<svg xmlns="http://www.w3.org/2000/svg" viewBox="0 0 41.56 47.24"><defs><style>.cls-1{fill:#e9eff8;}.cls-1,.cls-10,.cls-11,.cls-12,.cls-13,.cls-14,.cls-2,.cls-3,.cls-4,.cls-5,.cls-6,.cls-7,.cls-8,.cls-9{fill-rule:evenodd;}.cls-2{fill:#c9cfd7;}.cls-3{fill:#6791b9;}.cls-4{fill:#567c9d;}.cls-5{fill:#dbdcdc;}.cls-6{fill:#b4b4b5;}.cls-7{fill:#f9be00;}.cls-8{fill:#d7a400;}.cls-9{fill:#152139;}.cls-10{fill:#0b132a;}.cls-11{fill:#e85377;}.cls-12{fill:#ed8599;}.cls-13{fill:#0d131a;}.cls-14{fill:#fff;}</style></defs><title>Asset 94@</title><g id="Layer_2" data-name="Layer 2"><g id="Layer_1-2" data-name="Layer 1"><path class="cls-1" d="M19.25,19.6l1,1.49L15.8,30.73q-2.43-.4-3.15-4.15a12.2,12.2,0,0,1-.21-2.84,5.67,5.67,0,0,1,.3-1.91l6.51-2.23Z"/><path class="cls-2" d="M19.25,19.6l1,1.49L17.28,27.5A7.58,7.58,0,0,0,17,25.84a2.91,2.91,0,0,0-.73-1.29,2.79,2.79,0,0,0-1.56-.87,16.14,16.14,0,0,0-2.28-.41,5.09,5.09,0,0,1,.28-1.44l6.51-2.23Z"/><path class="cls-1" d="M14,7.53a13.23,13.23,0,0,1,1.34,2l3.44,10.79-.28.05q-3.9,2.52-6.89,1.18a5.56,5.56,0,0,1-1.78-1.29,4.65,4.65,0,0,1-.75-1l-4-9.43a11.47,11.47,0,0,1-.34-2.39,4.91,4.91,0,0,1,1-3.78c1.37-1.38,3.27-1,5.7,1.21A20.14,20.14,0,0,1,14,7.53Z"/><path class="cls-2" d="M14.52,8.27A10.37,10.37,0,0,1,15.3,9.5l3.44,10.79-.28.05A8.43,8.43,0,0,1,13.39,22a11.16,11.16,0,0,0,1.81-6.49,55.08,55.08,0,0,0-.68-7.2Z"/><path class="cls-1" d="M27.33,27.19l-3.51-7.47.63-1.84,12.09-.62a9.5,9.5,0,0,1,1,2.11,13.16,13.16,0,0,1,.71,3.27q.33,4.45-3,6.6a5,5,0,0,1-5.5,0A9.12,9.12,0,0,1,28,27.88l-.68-.69Z"/><path class="cls-2" d="M28.83,28.57a8.94,8.94,0,0,1-1.09-.95l-.41-.43-3.51-7.47.63-1.84,12.09-.62L37,18a11,11,0,0,1-3.26,2.53A12,12,0,0,1,29.8,21.8a15.67,15.67,0,0,1-1,6.77Z"/><path class="cls-1" d="M39.6,1.21c.93.83,1.47,2.51,1.6,5a13.15,13.15,0,0,1-1.75,7.38,8.9,8.9,0,0,1-3.71,3.9,16.75,16.75,0,0,1-4.62,1.27,13.54,13.54,0,0,1-5.08,0l-2.55-3.61a11.21,11.21,0,0,1,1.3-3.77,24,24,0,0,1,2.7-4.08,19.71,19.71,0,0,1,7.37-6.07q3.21-1.36,4.74,0Z"/><path class="cls-2" d="M27.2,15.57A15.66,15.66,0,0,1,29.46,19,11.74,11.74,0,0,1,26,18.75L24.8,17.32l-1.31-2.18a9.83,9.83,0,0,1,.59-2.24,14.08,14.08,0,0,1,3.12,2.67Z"/><path class="cls-3" d="M10.7,28.35a1.58,1.58,0,0,1,.72-.61,2.76,2.76,0,0,0,.71-.5,2.22,2.22,0,0,1,.26-.59,1.79,1.79,0,0,1,1-.65,10,10,0,0,0,2.69-1.7,11.82,11.82,0,0,0,3-3.33l1.62.17-4,4.48a9.06,9.06,0,0,1-2.18,1.66,5.94,5.94,0,0,1-1.49.6c-.53.12-.75.49-.64,1.11a1.92,1.92,0,0,1,0,.75l-.16.58a5,5,0,0,0,0,1c0,.64.05,1.12,0,1.42a5.67,5.67,0,0,1-.8,2.56,7.42,7.42,0,0,0-1,2.31,3,3,0,0,0,.23,2.07,4.48,4.48,0,0,0,.64.82l.24.6c.07.19,0,.3-.06.32a10.43,10.43,0,0,0-1.1.36,16.67,16.67,0,0,0-1.93.84,9.08,9.08,0,0,0-2,1.77c-.53.56-1.08,1.18-1.65,1.88a.09.09,0,0,1-.15,0,.18.18,0,0,1-.08-.13l-.13-.66a10.07,10.07,0,0,1,0-1.14c0-.4.55-1,1.66-1.73l1.65-1a14.53,14.53,0,0,0,1.38-2A1.53,1.53,0,0,0,9,38.5a8.75,8.75,0,0,0-.5-1.2,3.15,3.15,0,0,1-.06-1.83A7.85,7.85,0,0,1,9.41,33a8.89,8.89,0,0,0,.92-2.75l.37-1.88Z"/><path class="cls-4" d="M12,29a.73.73,0,0,1,.19-.2l.13-.06,0,.24a1.92,1.92,0,0,1,0,.75l-.16.58a5,5,0,0,0,0,1c0,.64.05,1.12,0,1.42a5.67,5.67,0,0,1-.8,2.56,7.42,7.42,0,0,0-1,2.31,3,3,0,0,0,.23,2.07,4.48,4.48,0,0,0,.64.82l.24.6c.07.19,0,.3-.06.32a10.43,10.43,0,0,0-1.1.36,16.67,16.67,0,0,0-1.93.84,21.88,21.88,0,0,0-3.39,3.29.53.53,0,0,1-.17-.25c-.07-.19,0-.55.29-1.07a8.37,8.37,0,0,1,2.11-2.09c1.37-1.06,2.15-1.69,2.33-1.89a2,2,0,0,0,.3-1.78l-.13-.93a1.39,1.39,0,0,1,.16-.82,14,14,0,0,0,1-2.91,27.46,27.46,0,0,0,.68-3.54A3.83,3.83,0,0,1,12,29Z"/><path class="cls-4" d="M19.06,21l1.62.17-4,4.48a9.33,9.33,0,0,1-1.55,1.28,2.53,2.53,0,0,0,.38-1.31c0-.34-.13-.54-.37-.6a16.08,16.08,0,0,0,2.13-1.76A10.35,10.35,0,0,0,19.06,21Z"/><path class="cls-3" d="M12.23,21.05a15.57,15.57,0,0,1-1.66-2.17c-.27-.44-.26-.74,0-.88l.51-.08.68.89A3.59,3.59,0,0,0,13.32,20a1.6,1.6,0,0,1,1,.79A4.76,4.76,0,0,1,14.61,22a9.14,9.14,0,0,1,1.58-2.61,19.94,19.94,0,0,1,1.45-1.7l.28,1.18A5,5,0,0,1,17,21a14.41,14.41,0,0,1-1.28,1.62.62.62,0,0,1-.59.46,3.79,3.79,0,0,1-1-.37,7.2,7.2,0,0,1-1.82-1.69Z"/><path class="cls-4" d="M17.64,17.69l.28,1.18a4.64,4.64,0,0,1-.85,2,14.21,14.21,0,0,1-1.24,1.61,4.44,4.44,0,0,0,.17-1.2.93.93,0,0,0-.55-.86q.56-.81,1.35-1.77a9.91,9.91,0,0,1,.84-.95Z"/><path class="cls-4" d="M11.11,17.92l.32.45a7.31,7.31,0,0,0,.8.91c-.52-.19-.85,0-1,.56a10.76,10.76,0,0,1-.66-1c-.27-.44-.26-.74,0-.88l.51-.08Z"/><path class="cls-5" d="M1,6.52l10,7.07,1.24,3.13a3.53,3.53,0,0,1-.88,1.34,5.44,5.44,0,0,1-2.62,1.37,3.49,3.49,0,0,1-1.23.13,1.09,1.09,0,0,1-.83-.31c-.14-.19-1.23-2.24-3.25-6.13S.32,7.11.23,6.84.15,6.37.29,6.3s.38,0,.7.22Z"/><path class="cls-6" d="M2.26,7.42,11,13.59l1.24,3.13a3.53,3.53,0,0,1-.88,1.34,5.4,5.4,0,0,1-2.56,1.36,2.58,2.58,0,0,0,.56-.31,5.26,5.26,0,0,0,1.56-1.7q-.32-.45-8.64-10Z"/><path class="cls-7" d="M26.73,24.21a9,9,0,0,1,.61,5.23,8.57,8.57,0,0,1-2,4.17,6.54,6.54,0,0,1-3.46,2.18,4.65,4.65,0,0,1-3.8-.69A5.13,5.13,0,0,1,15.94,32a8.62,8.62,0,0,1,0-4,13.62,13.62,0,0,1,1.5-3.89,9.85,9.85,0,0,1,2.3-2.82l4.53-.68,2.45,3.58Z"/><path class="cls-8" d="M26.73,24.21a9.17,9.17,0,0,1,.72,4.35,8.54,8.54,0,0,1-1.16,3.73,7.64,7.64,0,0,1-2.42,2.62,5.55,5.55,0,0,1-3.06,1,2,2,0,0,0,.29-1.29,2.93,2.93,0,0,1,.24-1.49c.83-.16,1.57-.88,2.23-2.16a10.68,10.68,0,0,0,1.08-4.12,6.68,6.68,0,0,0-.79-4,3.58,3.58,0,0,0-3.39-1.7l3.81-.57,2.45,3.58Z"/><path class="cls-9" d="M27.52,27.78a9.45,9.45,0,0,1-.31,2.82,5.4,5.4,0,0,0-.7-2.79,6.13,6.13,0,0,0-2-2.29,6.67,6.67,0,0,0-4.17-1A5,5,0,0,0,16.56,26a13.31,13.31,0,0,1,.65-1.42l.34-.61a3.89,3.89,0,0,1,1.93-1.25,6.28,6.28,0,0,1,2.83-.26,6,6,0,0,1,2.91,1.19,6.75,6.75,0,0,1,2.16,3.12l.14,1Z"/><path class="cls-9" d="M18.32,26.78a6.09,6.09,0,0,1,3.36,0,6,6,0,0,1,3,1.84,6.23,6.23,0,0,1,1.51,3.79l-.78,1.06a8.61,8.61,0,0,1-1.64,1.64,3.28,3.28,0,0,0-.15-3.4,4.8,4.8,0,0,0-2.78-1.87,4.77,4.77,0,0,0-3.27.1A2.61,2.61,0,0,0,16,32.44a4.38,4.38,0,0,1-.32-2.37l.19-1.5a4.14,4.14,0,0,1,2.47-1.79Z"/><path class="cls-10" d="M27.38,26.78l.13,1a10.21,10.21,0,0,1-.33,2.82,5.37,5.37,0,0,0-.64-2.73,5.83,5.83,0,0,0-1.95-2.24l-.08-.73a9.8,9.8,0,0,0-.51-2,5.7,5.7,0,0,1,1.94,1.4,6.87,6.87,0,0,1,1.44,2.44Z"/><path class="cls-10" d="M23.85,35a3.14,3.14,0,0,0-.49-3.64,6.85,6.85,0,0,0,1.09-3,6.15,6.15,0,0,1,1.78,4.08l-.78,1.09A5.73,5.73,0,0,1,23.85,35Z"/><path class="cls-7" d="M22,34.75a23.52,23.52,0,0,1-2.39,3.72c-1.45,2-2.25,3-2.4,2.87s-.12-1.39.08-3.79a25,25,0,0,1,.54-4.22,1.42,1.42,0,0,1,1-.9,2.79,2.79,0,0,1,3,1A1.42,1.42,0,0,1,22,34.75Z"/><path class="cls-8" d="M21.28,33a1.62,1.62,0,0,1,.68.77,1.35,1.35,0,0,1,0,1,18.46,18.46,0,0,1-1.79,3,18.53,18.53,0,0,1-2.8,3.46,40.25,40.25,0,0,0,2-3.64A26.45,26.45,0,0,0,21.28,33Z"/><path class="cls-7" d="M20.72,14.06h.41a4.45,4.45,0,0,1,1,.24,3.9,3.9,0,0,1,2.29,2.18,4,4,0,0,1,.07,3.62,3.3,3.3,0,0,1-3.15,1.71,3.3,3.3,0,0,1-3.13-2,4.51,4.51,0,0,1-.47-1.64A1.84,1.84,0,0,1,18,17l2.76-2.89Z"/><path class="cls-8" d="M20.72,14.06h.41a4.45,4.45,0,0,1,1,.24,3.9,3.9,0,0,1,2.29,2.18,4.23,4.23,0,0,1,.26,3.15,3,3,0,0,1-2.1,2,3.16,3.16,0,0,0,.71-1.92,3.59,3.59,0,0,0-.49-2,3.51,3.51,0,0,0-1.53-1.45A3.85,3.85,0,0,0,18.87,16l1.85-1.94Z"/><path class="cls-3" d="M30.3,26.61l-2.37-1.39a9.64,9.64,0,0,1-2.74-2.54,13,13,0,0,1-1.71-2.79.26.26,0,0,1,.09-.34.21.21,0,0,1,.32.06,14.06,14.06,0,0,0,2.34,2.48,16,16,0,0,0,3.1,1.84l2.46,1.2c.25.16.37.32.36.49a1.18,1.18,0,0,0,.28.79,7.6,7.6,0,0,0,.64.75,13.61,13.61,0,0,1,1,1.23,10.26,10.26,0,0,1,1.28,3.77,32.62,32.62,0,0,1,.56,4.17,6.37,6.37,0,0,1-.14,2.23,2.75,2.75,0,0,0-.18,1.18,4.48,4.48,0,0,0,2.51,3.31,14.35,14.35,0,0,0,1.69.8c.63.25,1,.4,1,.44.26.17.44.68.52,1.54a10.47,10.47,0,0,1,0,1.24,5,5,0,0,0-.55-.61,2.18,2.18,0,0,0-1.11-.68,5.14,5.14,0,0,1-1.65-1.1,6.6,6.6,0,0,0-2.36-1.4,4.46,4.46,0,0,0-1.36-.16L33.44,43c-.2-.08-.23-.28-.09-.59a8.45,8.45,0,0,1,.6-1,2.6,2.6,0,0,0,.43-1.1,2.79,2.79,0,0,0-.25-1.33l-.87-2a6.54,6.54,0,0,1-.6-1.89c0-.19.05-.78.16-1.77a5.17,5.17,0,0,0,0-1.77,8.21,8.21,0,0,1-.3-1.31,2,2,0,0,1,.12-1.08,1.51,1.51,0,0,0,0-1.08,4.84,4.84,0,0,0-.46-1,.39.39,0,0,0-.4-.23l-.38.14a3.17,3.17,0,0,1-1-.49Z"/><path class="cls-4" d="M26.58,22.37a1.43,1.43,0,0,0-1.54.12,12.86,12.86,0,0,1-1.56-2.6.26.26,0,0,1,.09-.34.21.21,0,0,1,.32.06,14.06,14.06,0,0,0,2.34,2.48l.35.28Z"/><path class="cls-4" d="M31.91,26.17c.08-.12-.17-.43-.74-1a8.34,8.34,0,0,0-1.29-1l1.17.54c.37.18.61.31.74.39s.37.32.36.49a1.18,1.18,0,0,0,.28.79,7.6,7.6,0,0,0,.64.75,13.61,13.61,0,0,1,1,1.23,10.26,10.26,0,0,1,1.28,3.77,32.62,32.62,0,0,1,.56,4.17,6.37,6.37,0,0,1-.14,2.23,2.75,2.75,0,0,0-.18,1.18,4.48,4.48,0,0,0,2.51,3.31,14.35,14.35,0,0,0,1.69.8c.63.25,1,.4,1,.44.26.17.44.68.53,1.54a10.47,10.47,0,0,1,0,1.24,5,5,0,0,0-.55-.61,2.24,2.24,0,0,0-1.12-.68.33.33,0,0,1-.27-.17l-.11-.35a1.74,1.74,0,0,0-.84-1A12.26,12.26,0,0,1,37,43.19a3.36,3.36,0,0,0-1-.64c-.3-.07-.55-.34-.76-.82A3.15,3.15,0,0,1,35,40.05,11,11,0,0,0,35,38l-.17-1.69c-.09-.72-.21-1.54-.38-2.47s-.3-1.79-.4-2.58a13.69,13.69,0,0,0-.33-1.76,8.18,8.18,0,0,0-.66-1.81,2.92,2.92,0,0,0-.88-.9c-.29-.23-.38-.42-.27-.58Z"/><path class="cls-3" d="M30.92,17a6.61,6.61,0,0,0-.21,1.32c-.07.71-.11,1.24-.12,1.62a1.32,1.32,0,0,1-.39.77l-.57.56-.2.43c-.06.15-.2.11-.4-.11a5.5,5.5,0,0,0-2.39-1.29L25.48,20a1.35,1.35,0,0,1-.72-.51c-.31-.46-.68-.93-1.08-1.42a7.78,7.78,0,0,0-1.36-1.39c-.12-.09-.18-.18-.17-.27s.08-.15.22-.17a2.48,2.48,0,0,1,1.57.58c.78.52,2.32,1.7,4.64,3.54a2.3,2.3,0,0,1,0-.46,1.42,1.42,0,0,1,.23-.78,7.63,7.63,0,0,0,.66-1.33c.33-.76.53-1.19.59-1.29l.57,0c.27.17.37.34.3.49Z"/><path class="cls-4" d="M25.79,18.18a1.64,1.64,0,0,0-1.09-.08c-.24.12-.36.4-.34.83a10.24,10.24,0,0,0-2-2.26c-.12-.09-.18-.18-.17-.27s.08-.15.22-.17a2.48,2.48,0,0,1,1.57.58l1.85,1.37Z"/><path class="cls-4" d="M30.92,17a6.61,6.61,0,0,0-.21,1.32c-.07.71-.11,1.24-.12,1.62a1.06,1.06,0,0,1-.21.54,2.17,2.17,0,0,0-.2-1.39,1.65,1.65,0,0,0-.91-.86l.44-1,.34-.7.57,0c.27.17.37.34.3.49Z"/><path class="cls-5" d="M36.35,1.21a78.47,78.47,0,0,1-.79,8.18q-.72,5.37-1,6.09t-1.71,1.29a3.76,3.76,0,0,1-2.24.23,3.63,3.63,0,0,1-2.07-1.41,3,3,0,0,1-.42-2.27q.19-1,3.33-6.25a58.92,58.92,0,0,1,3.89-6,4.57,4.57,0,0,1,.87-.89c.08,0,.11.36.1,1.05Z"/><path class="cls-6" d="M36.24.09c.06,0,.09.14.11.57a10.74,10.74,0,0,1,0,1.14c-.26,3.25-.47,5.55-.61,6.88a39.53,39.53,0,0,1-1.13,6.8c-.19.54-.76,1-1.73,1.33a3.25,3.25,0,0,1-2.22.19l-.51-.23a1.55,1.55,0,0,0,.91,0,1.21,1.21,0,0,0,.6-.53l2.26-7.51C35.26,4.21,36,1.33,36.24.09Z"/><path class="cls-7" d="M14.83,9.51l2-.1a4.18,4.18,0,0,1,1.35.28l1.93.87-.72,5.19a15,15,0,0,1-1.83,1.82q-1.38,1.2-1.89,1.17a2.49,2.49,0,0,1-1.1-.61A10.1,10.1,0,0,1,13,16.58q-2-2.44-1.41-4.5a3.73,3.73,0,0,1,3.26-2.57Z"/><path class="cls-8" d="M17.93,12.46a5.06,5.06,0,0,0-1.74-3.08l1.19.09a3.5,3.5,0,0,1,.8.22l1.93.87-.72,5.19a15,15,0,0,1-1.83,1.82q-1.38,1.2-1.89,1.17h-.09l1.1-1.31A7.92,7.92,0,0,0,17.62,16a6.47,6.47,0,0,0,.31-3.57Z"/><path class="cls-11" d="M11.53,12.26c.2,0,.53.73,1,2.08a13.7,13.7,0,0,1,.67,2.51c0,.33-.21.36-.72.07a2.9,2.9,0,0,1-1.16-1.17,4,4,0,0,1-.53-2.44c.09-.76.34-1.12.76-1.05Z"/><path class="cls-11" d="M19.06,11.25h1a2.51,2.51,0,0,1,.81,2.31,2.6,2.6,0,0,1-.81,1.73,4.24,4.24,0,0,1-1.71,1q-.81.15-1-.78a4.54,4.54,0,0,1,.25-2.69,2.36,2.36,0,0,1,1.44-1.59Z"/><path class="cls-3" d="M13.6,11c.14.37.13.61,0,.71s-.3,0-.44-.39a11.93,11.93,0,0,0-1.4-2.08,10.6,10.6,0,0,0-1.5-1.73c-.18-.12-.7.3-1.57,1.27-.63.7-1.22,1.43-1.78,2.17-.23.31-.49.71-.8,1.19a1.5,1.5,0,0,1-.76.65c-.31.09-.59-.1-.82-.56a1.22,1.22,0,0,1-.1-1.14A22.86,22.86,0,0,1,6.5,8.59,28.35,28.35,0,0,1,8.91,6.15a1.38,1.38,0,0,1,.94-.36,1.32,1.32,0,0,1,.76.54q.54.69,1.56,2.22A17,17,0,0,1,13.6,11Z"/><path class="cls-4" d="M13.6,11c.14.37.13.61,0,.71s-.3,0-.44-.39a11.93,11.93,0,0,0-1.4-2.08,10.6,10.6,0,0,0-1.5-1.73c-.18-.12-.7.3-1.57,1.27-.63.7-1.22,1.43-1.78,2.17-.23.31-.49.71-.8,1.19a1.5,1.5,0,0,1-.76.65,1.41,1.41,0,0,0,.19-.34,2.05,2.05,0,0,0,.11-1.09c0-.42.53-1.35,1.75-2.77A17.27,17.27,0,0,1,9.57,6.26a.78.78,0,0,1,.68-.15.7.7,0,0,1,.36.22q.54.69,1.56,2.22A17,17,0,0,1,13.6,11Z"/><path class="cls-3" d="M16.72,4.68c.08-.47.22-.67.43-.61s.32.24.49.57Q19.49,8,20.31,9.37a1.47,1.47,0,0,1,0,1.54,1.72,1.72,0,0,1-.81.85c-.2.08-.61-.55-1.25-1.89l-.91-2L17,9.26l-.53,2c-.08.22-.19.31-.34.27s-.21-.18-.16-.39L16.34,8c.21-2,.34-3.08.38-3.34Z"/><path class="cls-4" d="M20.31,9.37a1.47,1.47,0,0,1,0,1.54,1.72,1.72,0,0,1-.81.85c-.05,0-.22-.18-.53-.58a3.37,3.37,0,0,1-.56-1c.66.62,1.06.54,1.2-.23a4.09,4.09,0,0,0-.34-2.32l1,1.72Z"/><path class="cls-12" d="M19,14.79l1,0c.28.06.36.19.22.38a2.81,2.81,0,0,1-1,.84,2.57,2.57,0,0,1-1.1.34.6.6,0,0,1-.66-.52c0-.23.11-.44.44-.63A3.57,3.57,0,0,1,19,14.79Z"/><path class="cls-12" d="M11.8,16.44a.27.27,0,0,1,0-.35.61.61,0,0,1,.38-.21c.44-.11.71,0,.82.28a2.4,2.4,0,0,1,.18.65.34.34,0,0,1-.12.29q-.13.09-.54-.09a1.91,1.91,0,0,1-.71-.57Z"/><path class="cls-13" d="M9.79,20.49a6.24,6.24,0,0,1-.6-.78L9,19.37l.2-.12.19.3a4.57,4.57,0,0,0,.57.68,5.18,5.18,0,0,0,2.41,1.43l.63.13.43.45a4.69,4.69,0,0,1-1.08-.16,5.4,5.4,0,0,1-2.55-1.59Z"/><path class="cls-13" d="M16.86,21.4a1.42,1.42,0,0,0,.22-.42,12.88,12.88,0,0,0,1.32-.75l.14.22a16.32,16.32,0,0,1-1.68.95Z"/><path class="cls-13" d="M12.62,21.78l.24.11a5.43,5.43,0,0,0-.28,1.71,12.06,12.06,0,0,0,.14,2.62l-.32.21a13.1,13.1,0,0,1-.11-2.81,6.12,6.12,0,0,1,.33-1.84Z"/><path class="cls-13" d="M13.19,29a5.8,5.8,0,0,1-.44-1,2.78,2.78,0,0,1,.37-.13,6,6,0,0,0,.42,1,3.16,3.16,0,0,0,2.29,1.8l-.05.26A3.47,3.47,0,0,1,13.19,29Z"/><path class="cls-13" d="M12.89,17.05H13a12.5,12.5,0,0,0,.38,1.38,15.46,15.46,0,0,0,.77,2l-.31-.2a10.5,10.5,0,0,1-.66-1.86,10.78,10.78,0,0,1-.31-1.31Z"/><path class="cls-13" d="M15.41,9.44l-.23.11a17,17,0,0,0-2.61-3.47C10.86,4.23,9.36,3.2,8.05,3a2.41,2.41,0,0,0-2.18.71,4.27,4.27,0,0,0-1,3.11,11.78,11.78,0,0,0,.32,2.62c0,.06,0,.07-.14,0s-.18-.1-.2-.16a11.6,11.6,0,0,1-.33-2.67A4.52,4.52,0,0,1,5.59,3.32,2.64,2.64,0,0,1,8,2.66q2.07.33,4.7,3.19a16.62,16.62,0,0,1,2.71,3.59Z"/><polygon class="cls-13" points="8.96 6.11 8.83 6.22 5.74 3.64 5.82 3.54 8.96 6.11 8.96 6.11"/><polygon class="cls-13" points="4.64 6.52 4.75 6.45 6.9 8.26 6.78 8.37 4.64 6.52 4.64 6.52"/><polygon class="cls-13" points="8.18 9.31 8.29 9.18 11.72 11.74 11.64 11.84 8.18 9.31 8.18 9.31"/><polygon class="cls-13" points="13.13 6.61 13.19 6.7 10.98 6.83 10.95 6.68 13.13 6.61 13.13 6.61"/><polygon class="cls-13" points="8.6 9.53 8.78 9.67 9.22 12.31 9.07 12.24 8.6 9.53 8.6 9.53"/><path class="cls-13" d="M17.44,21.8l.34-1.14.13,0-.35,1.18h0a55.07,55.07,0,0,1-5,3.65l0-.24a57.38,57.38,0,0,0,4.9-3.5Z"/><polygon class="cls-13" points="14.94 23.78 15.04 23.68 15.47 24.75 15.35 24.91 14.94 23.78 14.94 23.78"/><path class="cls-13" d="M14,29.51c.2-.42.46-.93.79-1.53a5,5,0,0,1,1-1.45l.23-.16a6.89,6.89,0,0,0-.81,1.3c-.33.62-.69,1.31-1.07,2.07L14,29.51Z"/><path class="cls-13" d="M28.85,28.81a9.77,9.77,0,0,1-1.07-1l-.4-.44.05-.3.41.43a10.59,10.59,0,0,0,1.08.93,6.55,6.55,0,0,0,3.54,1.43l0,.19,0,.19a6.32,6.32,0,0,1-3.6-1.47Z"/><path class="cls-13" d="M36.42,17.33l.22-.15a11.45,11.45,0,0,1,1.43,3.24,10.2,10.2,0,0,1,.38,4.81,5.85,5.85,0,0,1-1.05,2.36,8.26,8.26,0,0,1-1.92,1.76,5.47,5.47,0,0,1-.78.45l-.13-.31a3.72,3.72,0,0,0,.65-.36A6.1,6.1,0,0,0,38,25a10.12,10.12,0,0,0-.26-4.62,10.23,10.23,0,0,0-1.31-3.09Z"/><path class="cls-13" d="M29.72,21.11,29.8,21a24.24,24.24,0,0,0,4.36,1.18,24.76,24.76,0,0,0,4.05.57v.13a23.52,23.52,0,0,1-4-.49,20.3,20.3,0,0,1-4.53-1.27Z"/><path class="cls-13" d="M34.37,22.27h.13a6.06,6.06,0,0,1-.31,1.93,6.53,6.53,0,0,1-.88,2.05l-.1-.08A6.84,6.84,0,0,0,34.05,24a8.86,8.86,0,0,0,.32-1.73Z"/><path class="cls-13" d="M32.1,25.63a7.23,7.23,0,0,1,1.12.49l.77.41a.62.62,0,0,1,.28.17l.11.39.69,2.29-.13,0-.84-2.61a11.22,11.22,0,0,0-2-1.06l0-.12Z"/><path class="cls-13" d="M26.45,18.7a11.08,11.08,0,0,0,2.55.16l-.19.29-2-.13-.31-.32Z"/><path class="cls-13" d="M35.63.73s0,.05-.1.2l-.22.25-.4.16a15,15,0,0,0-3.73,2.38A26,26,0,0,0,27.65,7.3a23.85,23.85,0,0,0-2.72,4.07,11.27,11.27,0,0,0-1.31,3.79l-.26,0a12.43,12.43,0,0,1,1.27-3.88A23.07,23.07,0,0,1,27.42,6.9a22.46,22.46,0,0,1,3.67-3.63,16.28,16.28,0,0,1,3.7-2.22l.84-.32Z"/><path class="cls-13" d="M41.08,6.25c-.16-2.76-.79-4.5-1.9-5.19A3.54,3.54,0,0,0,36.37.84s0,0,0-.15,0-.17,0-.18A3.91,3.91,0,0,1,39.41.7a3.76,3.76,0,0,1,1.42,1.87,11.89,11.89,0,0,1,.62,3.48,13.38,13.38,0,0,1-.53,4.44,14.6,14.6,0,0,1-1.36,3.2,15.92,15.92,0,0,1-1.74,2.53,6.09,6.09,0,0,1-1.93,1.59,12.34,12.34,0,0,1-2.27.74,20.64,20.64,0,0,1-2.9.49v-.32a23.56,23.56,0,0,0,2.78-.55,15.61,15.61,0,0,0,2.19-.77,8.83,8.83,0,0,0,3.7-3.95,13.25,13.25,0,0,0,1.69-7.2Z"/><polygon class="cls-13" points="32.3 6 32.31 6.13 28.24 6.31 28.42 6.17 32.3 6 32.3 6"/><path class="cls-13" d="M39.4,2,40,1.69l.07.11-.63.35c-1.64.9-2.72,1.53-3.24,1.87q-.09.06-.09-.06a.22.22,0,0,1,.08-.16,15.87,15.87,0,0,1,1.58-.92L39.4,2Z"/><path class="cls-13" d="M38.61,7.48a15.62,15.62,0,0,1,2.57-1.31l0,.13a14.17,14.17,0,0,0-2.61,1.38,20.5,20.5,0,0,0-3,2.19c-.06.05-.1.05-.1,0a.21.21,0,0,1,.08-.18,16.84,16.84,0,0,1,3-2.2Z"/><path class="cls-13" d="M37.91,12.16a10.66,10.66,0,0,1,2.57-1.05l0,.13a14.73,14.73,0,0,0-2.46,1,16.33,16.33,0,0,0-3,1.85h-.09A.19.19,0,0,1,35,14a15.08,15.08,0,0,1,2.89-1.82Z"/><polygon class="cls-13" points="37.35 8.36 37.48 8.35 37.86 12.29 37.63 12.4 37.35 8.36 37.35 8.36"/><path class="cls-13" d="M28.91,11.44c.05,0,.07,0,.08,0a.12.12,0,0,1-.07.12,30.87,30.87,0,0,0-2.6,1.76c-1,.72-1.82,1.38-2.52,2l-.09-.09a28.26,28.26,0,0,1,5.2-3.83Z"/><polygon class="cls-13" points="26.44 18.71 28.72 15.88 28.92 16.04 26.54 18.79 26.44 18.71 26.44 18.71"/><polygon class="cls-13" points="33.34 18.38 33.83 16.45 34.1 16.13 33.47 18.41 33.34 18.38 33.34 18.38"/><path class="cls-13" d="M12.23,27.31a1.74,1.74,0,0,1-.66.49,2,2,0,0,0-.75.6,5.89,5.89,0,0,0-.19,1c-.14.79-.26,1.39-.37,1.8a7.25,7.25,0,0,1-.73,1.9,7.58,7.58,0,0,0-.76,1.78,5.67,5.67,0,0,0-.25,1.58,2.25,2.25,0,0,0,.14.85l.41.94a2.73,2.73,0,0,1,.2.91,1,1,0,0,1-.11.5,8.18,8.18,0,0,1-.67,1.16,5.15,5.15,0,0,1-.71.89l-1.55,1a4.9,4.9,0,0,0-1.61,1.55,2.33,2.33,0,0,0-.06,1.27c.08.55.18.73.28.55a11.08,11.08,0,0,1,1.5-1.83,8.83,8.83,0,0,1,2.05-1.74,12.34,12.34,0,0,1,1.49-.64l1.06-.34.45-.13a.13.13,0,0,0,.09-.15,2.46,2.46,0,0,0-.23-.5,2.91,2.91,0,0,0-.28-.45,3.09,3.09,0,0,1-.49-.66,2.71,2.71,0,0,1-.26-1.22,4.85,4.85,0,0,1,.08-.83,5.56,5.56,0,0,1,.37-1.2c.11-.24.28-.55.51-.94a9.1,9.1,0,0,0,.59-1.14,5.09,5.09,0,0,0,.32-1.57v-.31l0-1.07,0-.7,0-.33.05-.15a2.82,2.82,0,0,0,.16-.85l0-.28,0-.31a.9.9,0,0,1,.77-.95,5.87,5.87,0,0,0,1.36-.59,10.62,10.62,0,0,0,2.49-1.89l-.05.44a9.06,9.06,0,0,1-2.52,1.9A5.6,5.6,0,0,1,13,28a.59.59,0,0,0-.45.4,1.29,1.29,0,0,0,0,.72,1.6,1.6,0,0,1,0,.62l-.17.47-.05.13a6.48,6.48,0,0,0,0,.95,14.47,14.47,0,0,1,0,1.57,8.4,8.4,0,0,1-.17,1.49,4,4,0,0,1-.46,1l-.65,1a3.58,3.58,0,0,0-.5,1.23,3.18,3.18,0,0,0,.07,1.68,2.46,2.46,0,0,0,.53.8,2.35,2.35,0,0,1,.65,1.07c0,.28,0,.44-.26.48a12.81,12.81,0,0,0-3,1.07,9.8,9.8,0,0,0-2.23,2.15A9.88,9.88,0,0,1,4.74,46.5c-.2,0-.37-.27-.49-.8a4.15,4.15,0,0,1-.1-1.43q.13-1,3.43-2.8a12.39,12.39,0,0,0,1.35-2A1,1,0,0,0,9,39.11a2.09,2.09,0,0,0-.23-.82l-.44-.87a2.28,2.28,0,0,1-.16-1,5.86,5.86,0,0,1,.29-1.66,9.27,9.27,0,0,1,.83-1.88A6.11,6.11,0,0,0,10,31.07l.28-1.77a4.48,4.48,0,0,1,.22-1,1.06,1.06,0,0,1,.43-.41l.57-.31a1.47,1.47,0,0,0,.56-.4l.11-.25a2.07,2.07,0,0,1,.23-.52,1.8,1.8,0,0,1,.86-.55,10.88,10.88,0,0,0,2.65-1.61A11.52,11.52,0,0,0,19,20.91l.23.13a12.06,12.06,0,0,1-3,3.33,10.15,10.15,0,0,1-2.77,1.75,2.31,2.31,0,0,0-.8.45,1.32,1.32,0,0,0-.24.43l-.14.31Z"/><path class="cls-13" d="M12.08,19.3a6.37,6.37,0,0,1-.85-1l.21-.16a4.4,4.4,0,0,0,1.92,1.7,1.84,1.84,0,0,1,1,.66,2.4,2.4,0,0,1,.31,1A10.82,10.82,0,0,1,16.27,19a19,19,0,0,1,1.28-1.42l.18.19a20.53,20.53,0,0,0-1.39,1.64,8.51,8.51,0,0,0-1.53,2.47c-.07.25-.14.34-.22.29l-.11-.13,0-.25a2,2,0,0,0-.22-.82,1.53,1.53,0,0,0-1-.87,3.14,3.14,0,0,1-1.2-.81Z"/><path class="cls-13" d="M12.12,21.19A19.08,19.08,0,0,1,10.45,19l-.1-.19.24-.1.09.15A17.15,17.15,0,0,0,12.31,21a7.37,7.37,0,0,0,1.8,1.67l.69.3.46,0a.58.58,0,0,0,.28-.35l0-.05a12.79,12.79,0,0,0,1.14-1.4,5.28,5.28,0,0,0,1.08-2.3l.15.24a7.13,7.13,0,0,1-2.17,3.63l-.14.32a.37.37,0,0,1-.19.18A2,2,0,0,1,14,23a7.1,7.1,0,0,1-1.85-1.76Z"/><polygon class="cls-13" points="10.71 13.56 7 10.94 7.16 10.71 10.74 13.27 10.71 13.56 10.71 13.56"/><path class="cls-13" d="M0,6.46a.41.41,0,0,1,.13-.31q.3-.24.87.18L5.59,9.6l-.21.19L.92,6.63a1.41,1.41,0,0,0-.4-.21.19.19,0,0,0-.18,0c-.06,0-.06.17,0,.38S1.49,9.13,3.51,13,6.61,19,6.76,19.17a1,1,0,0,0,.74.26,3.25,3.25,0,0,0,1.19-.13,5.14,5.14,0,0,0,2.68-1.48,3.32,3.32,0,0,0,.73-1.14l.24.08a4.26,4.26,0,0,1-.66,1.32,4.78,4.78,0,0,1-2.85,1.51,3.72,3.72,0,0,1-1.33.12,1.22,1.22,0,0,1-.94-.39Q6.24,18.92.11,7A1.24,1.24,0,0,1,0,6.46Z"/><path class="cls-13" d="M6.67,19.17a4.53,4.53,0,0,0,2.26-.53,5.83,5.83,0,0,0,2.7-2.51l.09.19A5.25,5.25,0,0,1,9,18.87a4.76,4.76,0,0,1-2.35.46l0-.16Z"/><path class="cls-13" d="M19.53,21.33l.17,0,.14.06A10.36,10.36,0,0,0,17,25.21a11.27,11.27,0,0,0-1.18,5.25,5.54,5.54,0,0,0,1.79,4.12l-.12.46a5.83,5.83,0,0,1-1.42-2,6.79,6.79,0,0,1-.58-2.55,11.32,11.32,0,0,1,1.19-5.27,11.06,11.06,0,0,1,2.82-3.91Z"/><path class="cls-13" d="M26.61,24.26l.31.11a9,9,0,0,1,.45,6,8.15,8.15,0,0,1-2.77,4.25,6.38,6.38,0,0,1-3.41,1.52l.17-.2.14-.24a5.92,5.92,0,0,0,2.85-1.34,8,8,0,0,0,2.7-4.2,8.84,8.84,0,0,0-.44-5.93Z"/><path class="cls-13" d="M25,23.43a6.64,6.64,0,0,1,2.42,3.32l-.16.06a6.49,6.49,0,0,0-2.36-3.24,5.78,5.78,0,0,0-2.49-1,6.36,6.36,0,0,0-2.81.19,3.87,3.87,0,0,0-2,1.26l-.14-.1a3.91,3.91,0,0,1,2.09-1.32,6.36,6.36,0,0,1,2.91-.2,5.91,5.91,0,0,1,2.56,1Z"/><path class="cls-13" d="M25.54,26.33a6.67,6.67,0,0,1,1.74,3.61l-.17,0a6.48,6.48,0,0,0-1.69-3.52A6.28,6.28,0,0,0,22,24.66a7,7,0,0,0-3.29.15,3.53,3.53,0,0,0-2.17,1.41l-.07-.17a3.52,3.52,0,0,1,2.21-1.43,7.41,7.41,0,0,1,3.35-.13,6.38,6.38,0,0,1,3.47,1.84Z"/><path class="cls-13" d="M15.77,28.53a4.19,4.19,0,0,1,2.4-1.79,5.94,5.94,0,0,1,3.4-.09,6,6,0,0,1,3.33,2,6.4,6.4,0,0,1,1.42,3.71h-.18a6.24,6.24,0,0,0-1.37-3.61,5.9,5.9,0,0,0-3.24-2,6,6,0,0,0-3.3.09,3.93,3.93,0,0,0-2.31,1.72l-.15-.09Z"/><path class="cls-13" d="M17.72,29.79a5,5,0,0,1,2.91-.13,5.27,5.27,0,0,1,2.63,1.4,3.34,3.34,0,0,1,1,1.75,3.59,3.59,0,0,1-.22,2l-.16-.07a3.18,3.18,0,0,0-.71-3.62,5.22,5.22,0,0,0-2.55-1.34,4.78,4.78,0,0,0-2.8.11,2.71,2.71,0,0,0-1.11.76,2.62,2.62,0,0,0-.61,1.65H15.9a2.83,2.83,0,0,1,.52-1.57,2.75,2.75,0,0,1,1.3-1Z"/><path class="cls-13" d="M19.43,32.19a2.72,2.72,0,0,1,1,.16A2.79,2.79,0,0,1,22,33.48a1.41,1.41,0,0,1,.13,1.43,24.37,24.37,0,0,1-3,4.74c-1,1.23-1.67,1.82-1.94,1.76s-.28-1.34-.07-3.83a26.51,26.51,0,0,1,.53-4.21,1.72,1.72,0,0,1,.34-.55,1.9,1.9,0,0,1,.54-.4,2.15,2.15,0,0,1,.95-.23Zm0,.26a2.17,2.17,0,0,0-.85.2,1.29,1.29,0,0,0-.66.72,30.34,30.34,0,0,0-.53,4.12c-.2,2.37-.25,3.57-.13,3.6s1-.89,2.37-2.82a21.16,21.16,0,0,0,2.21-3.56,1,1,0,0,0,.06-.37,1.57,1.57,0,0,0-.42-1,2.39,2.39,0,0,0-1.11-.72,2.54,2.54,0,0,0-.94-.15Z"/><path class="cls-13" d="M24.81,16.44a2.26,2.26,0,0,1,.12.51l.07.52a1.6,1.6,0,0,0-.45-.3l-.23-.63a3.82,3.82,0,0,0-2.17-2.1,3.61,3.61,0,0,0-1-.23l-.46,0,.12-.28h.47a3.77,3.77,0,0,1,1.1.22,3.82,3.82,0,0,1,2.4,2.31Z"/><path class="cls-13" d="M24.65,19.33l.24.23a3.81,3.81,0,0,1-.34.73l-.2-.18a3,3,0,0,0,.3-.78Z"/><path class="cls-13" d="M21.36,21.69a3.48,3.48,0,0,0,2.54-1l.15.24a3.34,3.34,0,0,1-2.5,1,3.86,3.86,0,0,1-2.21-.62,3.29,3.29,0,0,1-1.15-1.2,4.87,4.87,0,0,1-.58-1.58,1.61,1.61,0,0,1,.17-1.21l.39-.3A1.89,1.89,0,0,0,18,18.2a3.76,3.76,0,0,0,.45,1.63,3.93,3.93,0,0,0,1,1.2,3.06,3.06,0,0,0,2,.66Z"/><path class="cls-13" d="M25.32,22.64A9.83,9.83,0,0,0,28,25.11l1.81,1.05a9.56,9.56,0,0,0,1.51.81l.14,0a.86.86,0,0,1,.36-.1.52.52,0,0,1,.41.3,4.76,4.76,0,0,1,.47,1,1.65,1.65,0,0,1,.05,1.19,1.92,1.92,0,0,0-.1,1.06,8,8,0,0,0,.29,1.23,3.82,3.82,0,0,1,.09,1l-.12,1.21a10.44,10.44,0,0,0-.11,1.32,10.78,10.78,0,0,0,1.05,2.87l.41,1a2.85,2.85,0,0,1,.26,1.34,2.61,2.61,0,0,1-.45,1.22L34,41.7q-.63.93-.57,1.14l.1.08.69.07a5.48,5.48,0,0,1,1.54.16,4.69,4.69,0,0,1,1.45.7l1.18.92.74.59a1.55,1.55,0,0,0,.61.29,2.84,2.84,0,0,1,1.56,1.17,9,9,0,0,0-.14-1.47c-.1-.53-.23-.84-.4-1s-.28-.13-.67-.3a12.67,12.67,0,0,1-2.73-1.38,4.23,4.23,0,0,1-1.9-3l0-.32a2.17,2.17,0,0,1,.14-.74l.16-.55a5.39,5.39,0,0,0,.07-1l0-.83A32.84,32.84,0,0,0,35.16,32a10,10,0,0,0-1.22-3.57,13.64,13.64,0,0,0-1-1.3l-.56-.67a1.45,1.45,0,0,1-.32-.78v-.16a.16.16,0,0,0-.06-.13l-.24-.19c-.13-.08-.55-.29-1.26-.62-1-.47-1.73-.83-2.22-1.1a12,12,0,0,1-2.09-1.32,15.19,15.19,0,0,1-2.36-2.5.12.12,0,0,0-.14-.05c-.08,0-.09.1,0,.19a13.42,13.42,0,0,0,1.72,2.8Zm2.92.62c.53.3,1.22.64,2.06,1l.91.39a5.62,5.62,0,0,1,.66.31,1,1,0,0,1,.36.34.52.52,0,0,1,.05.3.74.74,0,0,0,0,.27,1.4,1.4,0,0,0,.24.44l.54.65.43.42a7.59,7.59,0,0,1,.76.91,10.35,10.35,0,0,1,1.3,3.8,38.42,38.42,0,0,1,.56,4.21A6.44,6.44,0,0,1,36.06,38l-.26.8-.11.41a1.62,1.62,0,0,0,0,.54,3.81,3.81,0,0,0,1.84,2.74,14.47,14.47,0,0,0,2.64,1.25,5,5,0,0,1,.77.38,1.63,1.63,0,0,1,.45.94,6.29,6.29,0,0,1,.17,1.71c0,.31,0,.47-.11.49s-.2-.08-.42-.3a4.41,4.41,0,0,0-.74-.6,2.06,2.06,0,0,0-.77-.35,1.11,1.11,0,0,1-.61-.35L38.2,45l-1.15-.9a5.17,5.17,0,0,0-1.39-.67l-1.07-.12h-.9a1,1,0,0,1-.46-.08c-.11-.05-.18-.1-.2-.17a1,1,0,0,1,.19-.65l.53-.83.09-.14a2.23,2.23,0,0,0,.41-1.1A2.86,2.86,0,0,0,34,39.1l-.42-1-.72-1.54a4.66,4.66,0,0,1-.4-1.33,5.38,5.38,0,0,1,.06-.67l.11-.78a5.71,5.71,0,0,0,0-2.2,3.51,3.51,0,0,1-.09-2.42,1.3,1.3,0,0,0,0-.91,4.1,4.1,0,0,0-.47-1c-.07-.11-.14-.17-.2-.17a.4.4,0,0,0-.24.07l-.2.07c-.23.05-.79-.2-1.69-.73l-2-1.24A9.28,9.28,0,0,1,25,22.71a14.73,14.73,0,0,1-1.63-2.77.39.39,0,0,1,0-.3.36.36,0,0,1,.17-.21.36.36,0,0,1,.47.11A14.67,14.67,0,0,0,26.32,22a12,12,0,0,0,1.92,1.27Z"/><path class="cls-13" d="M30.75,17.1l.26,0a9.34,9.34,0,0,0-.18,1.33c-.06.64-.1,1.13-.1,1.48a1.67,1.67,0,0,1-.49.94l-.53.49a1.14,1.14,0,0,0-.1.23c-.06.2-.13.3-.23.32s-.26-.05-.44-.24a5.49,5.49,0,0,0-2.33-1.25l-.74-.2-.68-.14a.94.94,0,0,1-.52-.39,13.58,13.58,0,0,0-2.42-2.92.5.5,0,0,1-.22-.27.25.25,0,0,1,0-.25c.11-.16.37-.2.78-.13a4,4,0,0,1,1.43.63c.4.26,1.12.82,2.15,1.67l2,1.64a1.68,1.68,0,0,1,.27-1,10.06,10.06,0,0,0,.76-1.58l.37-.84.22.15c-.07.14-.18.41-.34.79l-.39,1a3.19,3.19,0,0,1-.33.66,1.12,1.12,0,0,0-.22.55l-.06.61c0,.2-.07.27-.13.24l-.09-.12Q25,17.69,23.86,16.92a3.57,3.57,0,0,0-1.14-.54c-.24-.06-.39-.05-.43,0s0,0,0,.06l.1.1A8,8,0,0,1,23.79,18c.4.49.76,1,1.08,1.42a1.09,1.09,0,0,0,.44.39,3.66,3.66,0,0,0,.62.19l.75.2a5.58,5.58,0,0,1,2.45,1.32l.18.16.05-.14a.59.59,0,0,1,.19-.35,4.7,4.7,0,0,0,.59-.59,1.1,1.1,0,0,0,.32-.65q0-.49.09-1.41a13,13,0,0,1,.2-1.42Z"/><path class="cls-13" d="M36.22.24c-.15-.09-1.48,1.9-4,6s-3.84,6.48-4,7.11a2.63,2.63,0,0,0-.05.57,2.85,2.85,0,0,0,.49,1.64,3,3,0,0,0,1.51,1.13,4.12,4.12,0,0,0,2.6,0,2.21,2.21,0,0,0,1.63-1.25,59.45,59.45,0,0,0,1.28-8.35c.51-4.51.66-6.79.47-6.85Zm.1-.24c.24.07.21,2-.1,5.68a74.31,74.31,0,0,1-1.33,9.64c-.14.65-.73,1.17-1.77,1.54a4.54,4.54,0,0,1-2.63.24,3.26,3.26,0,0,1-2.15-1.56A3.18,3.18,0,0,1,28,13.23c.23-1,1.58-3.51,4.07-7.47S36-.1,36.32,0Z"/><path class="cls-13" d="M28,13.52l.16,0a2.62,2.62,0,0,0,.62,1.13,4.34,4.34,0,0,0,1.45,1.13,4,4,0,0,0,1.77.4,5.19,5.19,0,0,0,2.51-.7l.09.15a5.82,5.82,0,0,1-2.57.76A3.86,3.86,0,0,1,30.23,16a4.73,4.73,0,0,1-1.56-1.24A2.87,2.87,0,0,1,28,13.52Z"/><path class="cls-13" d="M13.42,9.75a6.69,6.69,0,0,1,2.76-.53l0,.3a6.47,6.47,0,0,0-2.53.5l-.38.19-.17-.28.36-.18Z"/><path class="cls-13" d="M18.12,9.54v.27A4,4,0,0,0,17,9.55L17,9.28a3.46,3.46,0,0,1,1.08.26Z"/><path class="cls-13" d="M19,16l.52-.17c-.61.72-1.18,1.33-1.69,1.83-.94.89-1.64,1.32-2.09,1.28a2.8,2.8,0,0,1-1.05-.56,10.06,10.06,0,0,1-1.47-1.3v-.26l0-.26A9.68,9.68,0,0,0,14.68,18a2.44,2.44,0,0,0,1,.57c.3,0,.84-.3,1.62-.94A14.56,14.56,0,0,0,19,16Z"/><path class="cls-13" d="M12.57,10.27l.19.26a3.1,3.1,0,0,0-1.06,1.59l0,.18-.26-.06,0-.2a3.47,3.47,0,0,1,1.12-1.77Z"/><path class="cls-13" d="M11.39,12.36c-.33.14-.49.55-.5,1.23a4.1,4.1,0,0,0,.53,2.1,3,3,0,0,0,.84,1c.32.24.57.33.76.27t0-.09a12.5,12.5,0,0,0-.76-2.61c-.48-1.32-.78-1.95-.9-1.9Zm-.16-.21.39,0a8.11,8.11,0,0,1,1,2.3,13.05,13.05,0,0,1,.61,2.13c0,.37,0,.57-.14.61a1.3,1.3,0,0,1-1-.27,3,3,0,0,1-1-1,4,4,0,0,1-.49-2.18,2.07,2.07,0,0,1,.62-1.57Z"/><path class="cls-13" d="M19,11.12l.07.26a2.27,2.27,0,0,0-1.36,1.54,4.52,4.52,0,0,0-.25,2.58q.12.55.45.66a1.19,1.19,0,0,0,.89-.12A4.35,4.35,0,0,0,20,15.25a2.09,2.09,0,0,0,.57-.91,3.34,3.34,0,0,0,.21-1.14A2.36,2.36,0,0,0,20,11.35l.17-.2a2.82,2.82,0,0,1,.7.93,2.5,2.5,0,0,1,.25,1.14,4.09,4.09,0,0,1-.2,1.25,2.87,2.87,0,0,1-.67,1,3.57,3.57,0,0,1-1.34.88l-1,0a1,1,0,0,1-.62-.86,4.78,4.78,0,0,1,.27-2.78A2.52,2.52,0,0,1,19,11.12Z"/><path class="cls-13" d="M13.14,11.16a1.72,1.72,0,0,0,.22.33l.13.1c.12,0,.11-.23,0-.56A16.53,16.53,0,0,0,12,8.61q-1-1.56-1.53-2.19a1.14,1.14,0,0,0-.69-.5A1.26,1.26,0,0,0,9,6.26,24.19,24.19,0,0,0,6.61,8.68a19.37,19.37,0,0,0-2.08,2.45.86.86,0,0,0,0,.61,1.53,1.53,0,0,0,.3.66q.25.31.51.24a1,1,0,0,0,.5-.34l.46-.65c.22-.36.4-.63.53-.8.56-.74,1.16-1.47,1.79-2.17A7.51,7.51,0,0,1,9.83,7.47c.21-.14.37-.17.49-.09a10,10,0,0,1,1.44,1.73,17.06,17.06,0,0,1,1.38,2.05Zm.58-.23a1.07,1.07,0,0,1,.09.57.31.31,0,0,1-.2.26c-.21.08-.41-.08-.59-.47a16.29,16.29,0,0,0-1.43-2A11.3,11.3,0,0,0,10.17,7.6c-.15,0-.57.34-1.25,1.08S7.63,10.16,7,11l-.53.78-.5.72a1.43,1.43,0,0,1-.62.43.72.72,0,0,1-.79-.32,2,2,0,0,1-.38-.78A1.13,1.13,0,0,1,4.23,11,22.47,22.47,0,0,1,6.35,8.49,25.19,25.19,0,0,1,8.78,6a1.68,1.68,0,0,1,1-.42,1.26,1.26,0,0,1,.85.56c.36.45.89,1.21,1.6,2.29a15.7,15.7,0,0,1,1.48,2.5Z"/><path class="cls-13" d="M17.52,4.7a1.39,1.39,0,0,0-.28-.41c-.07-.07-.13-.1-.17-.09s-.05,0-.08.07a1.34,1.34,0,0,0-.14.43c0,.21-.17,1.37-.4,3.51-.18,1.77-.29,2.77-.33,3a.24.24,0,0,0,0,.17l.07.07c.07,0,.12-.05.17-.18l.53-2,.35-1.42c0-.15.07-.23.1-.24s.09.08.15.22c.2.51.54,1.2,1,2.09.55,1.07.89,1.62,1,1.64s.31-.06.47-.25a2.15,2.15,0,0,0,.37-.69,1.62,1.62,0,0,0,.07-.44,1.32,1.32,0,0,0-.22-.71c-.33-.53-.87-1.48-1.62-2.83L17.52,4.7ZM17,3.94q.4-.06.72.51C19,6.74,19.88,8.36,20.47,9.3a1.59,1.59,0,0,1,.14,1.37,2.68,2.68,0,0,1-.47.86c-.21.27-.38.4-.52.4a.65.65,0,0,1-.49-.27,10.26,10.26,0,0,1-1-1.73c-.28-.59-.54-1.15-.75-1.66-.21.84-.48,1.8-.81,2.89a1,1,0,0,1-.2.35.26.26,0,0,1-.25.08A.28.28,0,0,1,16,11.4a.74.74,0,0,1,0-.37l.32-3.16.34-3.21c.08-.45.22-.69.43-.72Z"/><path class="cls-14" d="M12.15,14.09a1.45,1.45,0,0,1,.07.67c0,.2-.11.32-.24.36a.41.41,0,0,1-.39-.17,1.53,1.53,0,0,1-.32-.61,1.6,1.6,0,0,1-.06-.67c0-.2.11-.32.24-.36s.25,0,.38.18a1.43,1.43,0,0,1,.32.6Z"/><path class="cls-14" d="M18,13.13a1.34,1.34,0,0,1,.55-.64.69.69,0,0,1,.64-.08.66.66,0,0,1,.36.54,1.37,1.37,0,0,1-.14.83,1.41,1.41,0,0,1-.54.65.7.7,0,0,1-.65.07.68.68,0,0,1-.36-.53,1.5,1.5,0,0,1,.14-.84Z"/></g></g></svg>