<svg xmlns="http://www.w3.org/2000/svg" viewBox="0 0 45.46 43.13"><defs><style>.cls-1{fill:#eeeeef;}.cls-1,.cls-10,.cls-2,.cls-3,.cls-4,.cls-5,.cls-6,.cls-7,.cls-8,.cls-9{fill-rule:evenodd;}.cls-2{fill:#003f4d;}.cls-3{fill:#0d131a;}.cls-4{fill:#7c70a2;}.cls-5{fill:#655b86;}.cls-6{fill:#ed85a7;}.cls-7{fill:#f6c8d6;}.cls-8{fill:#fff;}.cls-9{fill:#5dc1cf;}.cls-10{fill:#50a8b4;}</style></defs><title>Asset 91@</title><g id="Layer_2" data-name="Layer 2"><g id="Layer_1-2" data-name="Layer 1"><path class="cls-1" d="M45.11,33.87a4.28,4.28,0,0,1-1.67,2.65,4.48,4.48,0,0,1-3.31.07,23.52,23.52,0,0,1-5.71-2.72c-2.29-1.4-3.63-2.43-4-3.08a.74.74,0,0,1,.09-.65c.13-.27.22-.4.28-.4C31.85,29,33,28.2,34.35,27.43,37,25.87,39,25.07,40.27,25a3.05,3.05,0,0,1,2.2.95,7.92,7.92,0,0,1,1.7,2.43,10.86,10.86,0,0,1,.95,2.94,5.56,5.56,0,0,1,0,2.52Z"/><path class="cls-1" d="M19.33,36c-.76-1.4-.77-2.44,0-3.12.53-.47,1.83-.8,3.89-1s3.18-.1,3.51.2a12.83,12.83,0,0,1,1.21,1.57,32.26,32.26,0,0,1,1.79,2.92c1.52,2.8,2,4.68,1.38,5.66a1.42,1.42,0,0,1-1.21.59,6,6,0,0,1-2.11-.31,16.05,16.05,0,0,1-5.45-3.06,12.09,12.09,0,0,1-3-3.47Z"/><path class="cls-2" d="M45.12,31.35a5.56,5.56,0,0,1,0,2.52,4.28,4.28,0,0,1-1.67,2.65,4.48,4.48,0,0,1-3.31.07A9.63,9.63,0,0,1,39,36.2a5.74,5.74,0,0,0,3.54-1,2.87,2.87,0,0,0,1.23-2.35,7.19,7.19,0,0,0-2.71-6.12,6.81,6.81,0,0,0-1.87-1l-.85-.25A6.5,6.5,0,0,1,40.27,25a3.05,3.05,0,0,1,2.2.95,7.92,7.92,0,0,1,1.7,2.43,10.86,10.86,0,0,1,.95,2.94Z"/><path class="cls-2" d="M19.51,33.23a4,4,0,0,0,.33,1.34,12.43,12.43,0,0,0,4.1,4.74,11.7,11.7,0,0,0,4.93,2.56q1.88.32,2.46-1a3.64,3.64,0,0,1,0,.74,1.67,1.67,0,0,1-.2.62,1.42,1.42,0,0,1-1.21.59,6,6,0,0,1-2.11-.31,16.05,16.05,0,0,1-5.45-3.06,12.09,12.09,0,0,1-3-3.47c-.76-1.4-.77-2.44,0-3.12l.22-.15,0,.48Z"/><path class="cls-3" d="M42.67,26.64a5.07,5.07,0,0,0-1.56-1.13,2.37,2.37,0,0,0-1.29-.25,13.23,13.23,0,0,0-3.72,1.39,25.21,25.21,0,0,0-4.86,3.14,1.17,1.17,0,0,0-.53.77c0,.25.19.54.59.86A31.36,31.36,0,0,0,36.83,35a18.59,18.59,0,0,0,4.62,1.54,2.51,2.51,0,0,0,2.83-1.13,5,5,0,0,0,.59-3.16,9.06,9.06,0,0,0-2.2-5.57Zm-3.08-1.79a3.26,3.26,0,0,1,3.06,1,8.47,8.47,0,0,1,2.15,3.4,9.36,9.36,0,0,1,.63,4.15,4.39,4.39,0,0,1-1.53,3.23c-1,.81-2.93.65-5.71-.5a25.08,25.08,0,0,1-7.33-4.63,2.53,2.53,0,0,1-.63-.68,2.61,2.61,0,0,1,.14-1q.16-.67,3.92-2.67a25.76,25.76,0,0,1,5.3-2.31Z"/><path class="cls-3" d="M22.41,32.12c-1.59.19-2.54.47-2.86.84-.59.7-.58,1.66.05,2.89a12.93,12.93,0,0,0,3.24,3.76,14.44,14.44,0,0,0,4.4,2.53q2.63.95,3.51.09c.45-.43.39-1.42-.18-3a28.86,28.86,0,0,0-2.13-4.34A18,18,0,0,0,27.22,33a2,2,0,0,0-1.06-.8,11.3,11.3,0,0,0-3.75-.06Zm-3.35.71c.21-.31,1-.58,2.37-.83a21.79,21.79,0,0,1,4-.37,2.31,2.31,0,0,1,1.56.54,5.18,5.18,0,0,1,.84,1,33.23,33.23,0,0,1,2.95,5.25c.95,2.2,1,3.6.26,4.19s-2,.64-3.65.11a15.18,15.18,0,0,1-4.6-2.55,13.12,13.12,0,0,1-3.48-3.78c-.81-1.44-.9-2.64-.27-3.59Z"/><path class="cls-3" d="M38,25.59l.41-.2a6,6,0,0,1,4,2.55A7.1,7.1,0,0,1,44,33a3.34,3.34,0,0,1-1.44,2.49,4.35,4.35,0,0,1-3.52.62l-.28-.23a1,1,0,0,0-.3-.2A4.5,4.5,0,0,0,42,35.33a3.28,3.28,0,0,0,1.47-3.26,7.06,7.06,0,0,0-2.22-4.81A6.87,6.87,0,0,0,39.55,26,3.58,3.58,0,0,0,38,25.59Z"/><path class="cls-3" d="M19.33,32.89l.18-.15.19-.15c-.19.84.19,1.94,1.13,3.3a13.76,13.76,0,0,0,2.79,3,15.57,15.57,0,0,0,4.64,2.56c1.75.57,2.71.35,2.87-.67v.17a.84.84,0,0,0,.06.32c-.37,1.06-1.6,1.18-3.7.34a17.87,17.87,0,0,1-2.4-1.2,15.63,15.63,0,0,1-1.63-1.09,14.18,14.18,0,0,1-3-3.26,5.28,5.28,0,0,1-1.17-3.16Z"/><path class="cls-3" d="M43.2,29.9l.11.18.1.19c-.67-.06-2.56-.07-5.68,0l-6,.07v-.25q1.91,0,11.52-.16Z"/><path class="cls-3" d="M42.86,35l-.18.14-.18.12c-.74-.25-2-.69-3.66-1.33q-3.29-1.24-7.23-2.82V31l6,2.1L42.86,35Z"/><polygon class="cls-3" points="43.69 32.61 43.72 32.78 43.72 32.95 37.96 31.82 31.61 30.64 31.61 30.36 43.69 32.61 43.69 32.61"/><path class="cls-3" d="M22.36,38.17a1.52,1.52,0,0,1-.26-.36l2.49-1.74c1.2-.85,2-1.44,2.35-1.76l.23.22c-.36.28-1.23.93-2.63,1.93a20.76,20.76,0,0,0-2.18,1.71Z"/><path class="cls-3" d="M25.38,40.32a1.17,1.17,0,0,1-.38-.26c.33-.54.79-1.45,1.39-2.71s1.1-2.29,1.3-2.65a.66.66,0,0,0,.45.19l-.08.11L26.7,37.65C26,39,25.57,39.88,25.38,40.32Z"/><path class="cls-3" d="M28.2,39l.24-3,.12.26a1.1,1.1,0,0,0,.12.28l-.2,2.8-.18,2.32a1.93,1.93,0,0,0-.33-.26L28.2,39Z"/><path class="cls-3" d="M40.18,30.63a1.47,1.47,0,0,1,.51,1.65,1.67,1.67,0,0,1-1.19,1.19c-.7.21-2.14,0-4.3-.78a18.24,18.24,0,0,1-4.51-2c-.13-.1-.08-.28.16-.54s.22-.25.19-.28l4.11.06c2.91.11,4.58.36,5,.74Z"/><path class="cls-1" d="M39.91,30.85a1.06,1.06,0,0,1,.42.56,1.4,1.4,0,0,1,.05.76,1.31,1.31,0,0,1-1.33,1,16.23,16.23,0,0,1-4.38-1.09c-2-.66-3.21-1.1-3.71-1.34a.31.31,0,0,1-.19-.35.3.3,0,0,1,.25-.28,29.7,29.7,0,0,1,3.94,0q4,.12,4.95.72Z"/><path class="cls-3" d="M27.51,38.5a2,2,0,0,1-1.76-.22A1.66,1.66,0,0,1,25,36.9a2,2,0,0,1,.56-1.54,7.66,7.66,0,0,1,2-1.45.68.68,0,0,1,.77.16.88.88,0,0,1,.36.68l0,1.17a6.21,6.21,0,0,1-.07,1.39,1.51,1.51,0,0,1-1.12,1.19Z"/><path class="cls-1" d="M27.87,37.93a1.6,1.6,0,0,1-1.56.24,1.32,1.32,0,0,1-1-1.29,2.43,2.43,0,0,1,.93-1.79,4.39,4.39,0,0,1,1.63-1,.3.3,0,0,1,.41.19,1.81,1.81,0,0,1,.11.59,12.83,12.83,0,0,1,0,1.77,1.89,1.89,0,0,1-.54,1.32Z"/><path class="cls-1" d="M41.13,9.14A33,33,0,0,1,44,15.08q1.43,4.16.23,6.3a18.94,18.94,0,0,1-6.83,6.55,28.47,28.47,0,0,1-3.51,1.85,7.22,7.22,0,0,1-2.1.68,3.47,3.47,0,0,1-2.18-1.17,7,7,0,0,1-1.41-1.67A20.59,20.59,0,0,1,25.78,21,34.1,34.1,0,0,1,25,10.93a18.41,18.41,0,0,1,1.85-6.86Q28.69.46,31.09.32c1.54-.08,3.44,1,5.71,3.29a27.58,27.58,0,0,1,4.33,5.53Z"/><path class="cls-1" d="M.61,16.6q.5-1.28,4.9.1a42.42,42.42,0,0,1,6.61,2.71,40.07,40.07,0,0,1,5.3,3.31,20.43,20.43,0,0,1,4.11,3.57l5.75,6.49a29.7,29.7,0,0,1-5.82,1.51c-3.27.61-5.53.74-6.8.39A15.33,15.33,0,0,1,10,32.53a23.45,23.45,0,0,1-5.21-5A23,23,0,0,1,1.06,21.1q-1-3-.45-4.5Z"/><path class="cls-2" d="M36.44,5.8a1.38,1.38,0,0,0-1.84-.31A2.48,2.48,0,0,0,34,6l-.23.26a4.15,4.15,0,0,0,.33-1.3c.09-.91-.2-1.45-.88-1.61a1.79,1.79,0,0,0-1.64.26,1.51,1.51,0,0,0-.33.38l-.1.18c.11-.86,0-1.29-.4-1.29a.68.68,0,0,0-.4.12l-.2.13c.19-1,.07-1.61-.36-1.87a1,1,0,0,0-.48-.12l-.22,0a3.41,3.41,0,0,1,2-.81c1.54-.08,3.44,1,5.71,3.29a27.58,27.58,0,0,1,4.33,5.53A33,33,0,0,1,44,15.08q1.43,4.16.23,6.3l-.84,1.38a5.94,5.94,0,0,0,.44-1.35A3.13,3.13,0,0,0,43.59,19c-.36-.56-.72-.78-1.07-.65a.66.66,0,0,0-.3.19,2.68,2.68,0,0,0,.36-.85,4.85,4.85,0,0,0-.36-3c-.47-1.11-1-1.7-1.49-1.76a.7.7,0,0,0-.48.09l-.16.12a.89.89,0,0,0,.26-.64A4.49,4.49,0,0,0,39.48,10c-.63-1.05-1.25-1.57-1.85-1.58a.92.92,0,0,0-.53.16l-.18.15a2.43,2.43,0,0,0,.27-.93,2.47,2.47,0,0,0-.75-2Z"/><path class="cls-2" d="M5.11,16.6l-1.38-.11c-1,0-1.52.27-1.68.76a1.2,1.2,0,0,0,.41,1.32,2.4,2.4,0,0,0,.69.45.53.53,0,0,0-.48.14.49.49,0,0,0-.16.44c0,.44.41.69,1.11.74a1,1,0,0,0-.84.65A1.7,1.7,0,0,0,3,22.37a2.5,2.5,0,0,0,1.61,1.06.79.79,0,0,0-.44.83,2.18,2.18,0,0,0,.54,1.09,4.4,4.4,0,0,0,1.12,1,3.31,3.31,0,0,0,1.34.5c-.38.27-.29.75.27,1.43a4.83,4.83,0,0,0,2.3,1.55.41.41,0,0,0-.17.55,1.71,1.71,0,0,0,.59.78A5.76,5.76,0,0,0,13,32.37c-.46.06-.61.19-.45.4a4.46,4.46,0,0,0,1.17.79,13.76,13.76,0,0,0,2.17.88l1.29.4a8.24,8.24,0,0,1-2.56-.16A15.33,15.33,0,0,1,10,32.53a23.45,23.45,0,0,1-5.21-5A23,23,0,0,1,1.06,21.1q-1-3-.45-4.5c.14-.36.7-.53,1.66-.48a14.23,14.23,0,0,1,2.84.48Z"/><path class="cls-3" d="M43.72,20a1.83,1.83,0,0,0-.53-1.18c-.32-.29-.58-.29-.79,0q-.52.74-5.43,5.93L31.72,30.3h.37a24.86,24.86,0,0,0,4.08-1.9,28.18,28.18,0,0,0,3.48-2.21,15.32,15.32,0,0,0,3.06-3,4.66,4.66,0,0,0,1-3.19ZM30.19,3.79a24.63,24.63,0,0,0-.73,2.39q-.45,1.67-.75,3.3a69.93,69.93,0,0,0-1.06,8,39.25,39.25,0,0,0,.06,7.85,1.35,1.35,0,0,0,.5,1c.28.18.44-.06.49-.73a62.06,62.06,0,0,1,2.17-11.47,50.57,50.57,0,0,1,2.71-8.1,2.35,2.35,0,0,0,.25-1.91,1.14,1.14,0,0,0-1-.73,1.37,1.37,0,0,0-1.37.7A7.22,7.22,0,0,0,30.79,6c-.37,1.51-.7,2.77-1,3.79l-.32-.1.82-3.16c.27-1.06.5-1.89.68-2.51s0-.84-.15-.92-.4.16-.62.72ZM30,2.17q-.06-.78-.54-.78a7.54,7.54,0,0,0-2.95,4,21.32,21.32,0,0,0-1.25,6.1,34.06,34.06,0,0,0,.14,6.61,23.11,23.11,0,0,0,1.25,5.5q.22.57.33.48c.07-.06.08-.26,0-.61a44.66,44.66,0,0,1,.67-10.23,61.51,61.51,0,0,1,1.69-8.35l.31-.94A4.53,4.53,0,0,0,30,2.17ZM41.21,13.46c-.33-.4-.64-.43-.92-.08A59.37,59.37,0,0,0,35,21.17,70.9,70.9,0,0,0,31,29.24a3.3,3.3,0,0,0-.3,1,7.09,7.09,0,0,1-1.79-1.48,5.69,5.69,0,0,1-1-1.42L27,25.71a20.59,20.59,0,0,1-.84-2.08,33.11,33.11,0,0,1-1.42-7.15,23.1,23.1,0,0,1,1.28-11.4,11.63,11.63,0,0,1,2-3.22A6,6,0,0,1,30.16.23C31.42-.3,33,.09,34.81,1.37a22.7,22.7,0,0,1,5,5.19,31.52,31.52,0,0,1,3.86,6.91,13.36,13.36,0,0,1,1.19,6.32q-.49,3.86-6.07,7.48a29.75,29.75,0,0,1-4.17,2.27,13.84,13.84,0,0,1-2.63,1,1.78,1.78,0,0,1-1-.12l.36-.33c1.13-1.21,2.8-3,5-5.28q3-3.23,5.4-6a2.65,2.65,0,0,0,.6-1.6A5.1,5.1,0,0,0,42,15.08a5.94,5.94,0,0,0-.82-1.62ZM39,9.68a3.21,3.21,0,0,0-1.08-.92q-.48-.19-.69.18a82.1,82.1,0,0,0-4.36,9.31,35.87,35.87,0,0,0-2.59,9.54,7.47,7.47,0,0,0,0,1.32c.06.36.22.25.48-.34a75.29,75.29,0,0,1,4.55-8.95c.57-.92,1.27-2,2.11-3.23l2.32-3.39a2.06,2.06,0,0,0,.3-1.48,4.26,4.26,0,0,0-1-2ZM34.24,4.16a2.47,2.47,0,0,1,.09,1.33A1.18,1.18,0,0,1,35.39,5a1.73,1.73,0,0,1,1,.54,3.15,3.15,0,0,1,.77,1.15,2.47,2.47,0,0,1,.18,1.34c.23-.08.52,0,.9.3a5.28,5.28,0,0,1,1.08,1.12,4.64,4.64,0,0,1,1.15,3.14,1.84,1.84,0,0,1,1.08.67,4.68,4.68,0,0,1,.83,1.43,4.38,4.38,0,0,1,.09,3.47,1.34,1.34,0,0,1,1.34,1A4.66,4.66,0,0,1,44,21.24a10.11,10.11,0,0,0-.35-6.15,29.09,29.09,0,0,0-3.82-7.25A25.28,25.28,0,0,0,34.7,2.09c-2-1.48-3.57-1.8-4.87-1q.39,0,.54.63a2.67,2.67,0,0,1,.05,1.1.61.61,0,0,1,.48-.05c.29.07.42.37.41.88A2.1,2.1,0,0,1,32.51,3a1.4,1.4,0,0,1,1.05.24,1.9,1.9,0,0,1,.68.9Zm2.52,2.68a1.8,1.8,0,0,0-1.09-1.28l-.76,0a2.68,2.68,0,0,0-1,1.19Q32.1,10,30.42,17.65c-.47,2.12-.83,4.09-1.09,5.89a21.16,21.16,0,0,0-.3,4c0,.49.13.77.25.84s.27-.2.41-.86a63.21,63.21,0,0,1,3.56-11.58c.53-1.28,1.15-2.61,1.84-4l1.53-3a2.65,2.65,0,0,0,.14-2.07Z"/><polygon class="cls-3" points="21.82 26.86 21.7 26.81 21.46 26.48 21.82 26.86 21.82 26.86"/><path class="cls-3" d="M2.67,18.93a1.58,1.58,0,0,1-.9-1.45c0-.62.4-.95,1.13-1a1.84,1.84,0,0,0-1.79.08,1.86,1.86,0,0,0-.48,1.6,13.88,13.88,0,0,0,2.25,6A27,27,0,0,0,8.33,30.8a14.41,14.41,0,0,0,7.31,3.76,12.13,12.13,0,0,1-2.36-1.05c-.95-.54-1.24-.91-.88-1.12a5.31,5.31,0,0,1-2.29-1.14c-.75-.61-1-1.07-.76-1.4a4,4,0,0,1-2.09-1.53,3.23,3.23,0,0,1-.52-.91c-.09-.28-.06-.45.09-.52a3.74,3.74,0,0,1-2.26-1.52A2.74,2.74,0,0,1,4,24.3a.63.63,0,0,1,.3-.75h0a2.48,2.48,0,0,1-1.12-.7,2.77,2.77,0,0,1-.62-1.22,1.38,1.38,0,0,1,.05-.78A.77.77,0,0,1,3,20.38a.9.9,0,0,1-.63-.77.62.62,0,0,1,.34-.68ZM.22,16.5q.48-.81,2.13-.66,4.2.38,10.25,3.65a37.93,37.93,0,0,1,8.52,6,.51.51,0,0,1,0,.4c-.05.08,0,.25.21.51a18.27,18.27,0,0,0-3.09-2.79,45,45,0,0,0-4.59-3q-5.85-3.32-9.89-3.85a2.14,2.14,0,0,0-1,.1.84.84,0,0,0-.58.64,1,1,0,0,0,.32.86A2.45,2.45,0,0,0,3.86,19q.81.17,2.31.63c1.13.36,2.28.76,3.45,1.22l-.68.07A28.37,28.37,0,0,0,3.1,19.23a.41.41,0,0,0-.3.09.34.34,0,0,0-.15.25q0,.38.72.51a48.07,48.07,0,0,1,7.23,2.11,77.08,77.08,0,0,1,8.57,3.5q-3.37-1.41-8.32-3-4.69-1.56-6.92-2c-.6-.13-.94.06-1,.58a1.73,1.73,0,0,0,.39,1.23,1.77,1.77,0,0,0,1.16.79A76,76,0,0,1,12.91,25q2,.54,9.91,2.94l.81.85a100.19,100.19,0,0,0-10.07-3.16q-5.22-1.38-8.51-1.89c-.43-.06-.64,0-.66.3a1.72,1.72,0,0,0,.43.95,5.08,5.08,0,0,0,1,1A2.52,2.52,0,0,0,7,26.57l6.88.68a80.54,80.54,0,0,1,10.54,2l.35.37c-3.33-.77-6.07-1.31-8.24-1.63s-5.2-.61-8.87-.85q-.58,0-.45.42a2.56,2.56,0,0,0,.54.82,3.79,3.79,0,0,0,1.05.82,3.24,3.24,0,0,0,1.32.45l7.62.61,7.9.67.3.31-7.43-.54-8.4-.58a.31.31,0,0,0-.22.06.23.23,0,0,0-.11.25c0,.31.56.73,1.52,1.26a6.25,6.25,0,0,0,2.09.54l2.45.18c3,.08,5.32.07,7,0a26.86,26.86,0,0,0,3.78-.44l.43.46-.06.06c-.07-.07-.2-.08-.39-.06l-5.93.33q-4.12.11-6.42-.07c-.86-.06-1.32-.05-1.39,0s.32.42,1.23.93a7.89,7.89,0,0,0,2.1.77,8.18,8.18,0,0,0,1.54.19,22.48,22.48,0,0,0,4.48-.47c1.28-.24,2.53-.54,3.76-.9a16,16,0,0,1-5.52,1.7,18.32,18.32,0,0,1-5.5.16,11.77,11.77,0,0,1-4.69-2,25.86,25.86,0,0,1-4.64-4.08A27.58,27.58,0,0,1,2,23.82,15,15,0,0,1,.08,18.67,3.76,3.76,0,0,1,.22,16.5Z"/><path class="cls-1" d="M31.86,12.24A10.72,10.72,0,0,1,32,15.86l-.29,2.38c-.2,1.51-.39,2.83-.57,4-.6,3.58-1.18,5.36-1.76,5.36a3.06,3.06,0,0,1-.81-.69,7.26,7.26,0,0,1-1.46-2.64,20.34,20.34,0,0,1-.84-4.49,40.32,40.32,0,0,1-.17-4.43,9.38,9.38,0,0,1,.76-3.85,2.88,2.88,0,0,1,2.79-1.9c1.17,0,1.93.93,2.26,2.69Z"/><path class="cls-1" d="M11.18,21a7,7,0,0,1,1.87.54,34.44,34.44,0,0,1,7.46,4.71,24.93,24.93,0,0,1,2,1.87c.48.49.71.78.69.85s-1.72-.16-5-.9q-5.86-1.32-6.5-1.42a11.52,11.52,0,0,1-3.64-1.1q-2-1.07-1.74-2.67c.19-1.11,1.1-1.76,2.72-1.94l2.1.06Z"/><path class="cls-2" d="M29.6,9.55c1.13,0,1.88.9,2.25,2.6a9.86,9.86,0,0,1,.06,3.9,5.86,5.86,0,0,0-.43-1.84q-.72-1.85-2.22-1.86A2.84,2.84,0,0,0,26.76,14a6,6,0,0,0-.55,1.14,3.83,3.83,0,0,0-.17.52V15.3a9.38,9.38,0,0,1,.76-3.85,2.88,2.88,0,0,1,2.79-1.9Z"/><path class="cls-2" d="M10.94,21.57q-2.12.36-2.19,1.83a2.77,2.77,0,0,0,1.46,2.49,5.06,5.06,0,0,0,1.53.72,11.52,11.52,0,0,1-3.64-1.1q-2-1.07-1.74-2.67c.19-1.11,1.1-1.76,2.72-1.94l2.1.06a7,7,0,0,1,1.87.54l-2.11.07Z"/><path class="cls-3" d="M28.94,27.24,28.65,27l-.32-.52a7.23,7.23,0,0,0,.61.79h0a.5.5,0,0,0,.72-.07c.33-.32.71-1.92,1.16-4.78.24-1.56.47-3.28.68-5.15a6,6,0,0,0-.32-3.18,2.16,2.16,0,0,0-1.66-1.4,2.21,2.21,0,0,0-2.08.74,3.84,3.84,0,0,0-1,2.25,24.4,24.4,0,0,0,.1,5,13.73,13.73,0,0,0,.94,4.48L27.4,25c-.64-.8-1.09-2.61-1.37-5.41A30.93,30.93,0,0,1,26,13a4.86,4.86,0,0,1,1.19-2.61,2.74,2.74,0,0,1,2.6-1.15c.92.15,1.61.85,2.07,2.08a9.23,9.23,0,0,1,.38,4.33q-.26,2.16-.84,5.47A36.62,36.62,0,0,1,30,27.28c-.19.48-.53.47-1,0Zm.34-15.18a2.14,2.14,0,0,1,1.52.7,4.44,4.44,0,0,1,1.06,2.08,7.09,7.09,0,0,0-.78-3.93,2,2,0,0,0-1.92-1.12,2.67,2.67,0,0,0-2,1.34,6.39,6.39,0,0,0-1,3.47,5.58,5.58,0,0,1,1.41-1.9,2.59,2.59,0,0,1,1.65-.64Z"/><path class="cls-3" d="M6.11,23.24A2.42,2.42,0,0,1,7.5,21.06a4.69,4.69,0,0,1,2.72-.46,16.2,16.2,0,0,1,6.61,2.73,31.62,31.62,0,0,1,5.37,4.11,9.14,9.14,0,0,1,1.43,1.63c.16.31,0,.4-.49.27q-6.19-1.61-11.38-2.45a10.55,10.55,0,0,1-4.2-1.48,2.61,2.61,0,0,1-1.45-2.17Zm2.4,0a1.92,1.92,0,0,1,1-1.3,4.54,4.54,0,0,1,2.42-.56,7.17,7.17,0,0,0-3.63,0A2.17,2.17,0,0,0,6.68,22.7a1.85,1.85,0,0,0,.56,1.85A5.24,5.24,0,0,0,10,26a3.12,3.12,0,0,1-1.23-1.24,2.21,2.21,0,0,1-.26-1.52ZM10,22.13a1.79,1.79,0,0,0-1,1.61c0,.7.45,1.33,1.42,1.91a9.47,9.47,0,0,0,3.37,1.14c1.36.23,2.63.47,3.83.75.76.17,2.13.52,4.12,1a3.34,3.34,0,0,0,.93.18c.15-.06-.06-.35-.63-.89a36.79,36.79,0,0,0-4.49-3.65A14.07,14.07,0,0,0,12.4,21.9a3.7,3.7,0,0,0-2.39.23Z"/><path class="cls-4" d="M23.33,23.32a6.61,6.61,0,0,1,4.22-.86,6.3,6.3,0,0,1,3.31,1.39,3.94,3.94,0,0,1,1.35,2.89,7.74,7.74,0,0,1-.46,3.14,10.87,10.87,0,0,1,2,.62,3.42,3.42,0,0,1,1.27.82,4.63,4.63,0,0,1,1.07,3.12,3.37,3.37,0,0,1-1.23,2.67,5.07,5.07,0,0,1-2.68,1.16,5.13,5.13,0,0,1-3-.71,3.23,3.23,0,0,1-1.35-1.68,7.16,7.16,0,0,1-.47-2.4,8.34,8.34,0,0,1-3.32.07A4.63,4.63,0,0,1,21.39,32a5,5,0,0,1-1-4.65,6,6,0,0,1,3-4Z"/><path class="cls-5" d="M34.83,37.11a5.07,5.07,0,0,1-2.68,1.16,5.13,5.13,0,0,1-3-.71,3.23,3.23,0,0,1-1.35-1.68,7.16,7.16,0,0,1-.47-2.4l.1,0,.7-.28a6.69,6.69,0,0,1,1.19-.45c.2,0,.19.28,0,.81a1.58,1.58,0,0,0,.33,1.86,3.2,3.2,0,0,0,2,.93,4,4,0,0,0,2.53-.5A3.84,3.84,0,0,0,36,33.46a4.12,4.12,0,0,1-.09,2,3.33,3.33,0,0,1-1.06,1.61Z"/><path class="cls-3" d="M27.53,22.58a6.19,6.19,0,0,0-4.76,1.36,5.79,5.79,0,0,0-2.29,4.18A5.14,5.14,0,0,0,21.77,32a4.54,4.54,0,0,0,2.77,1.41,6.7,6.7,0,0,0,3.29-.28c.34-.11.48-.09.43,0s-.26.27-.62.38a7,7,0,0,1-3.41.25,4.72,4.72,0,0,1-2.9-1.55,5.43,5.43,0,0,1-1.26-4.42,6.11,6.11,0,0,1,2.44-4.2,7.09,7.09,0,0,1,2.94-1.38,6.51,6.51,0,0,1,2.88,0,5.93,5.93,0,0,1,2.41,1.15,4.62,4.62,0,0,1,1.49,2,5.24,5.24,0,0,1,.33,2A5.8,5.8,0,0,1,32,29.72c-.27.6-.48.92-.65,1s-.11-.22.17-.78a5.34,5.34,0,0,0,.58-2.54,5,5,0,0,0-.71-2.46,4.87,4.87,0,0,0-3.9-2.31Z"/><path class="cls-3" d="M35.6,32.93a3.68,3.68,0,0,0-1.66-2.1,8.19,8.19,0,0,0-2.29-.77l.1-.16.09-.15a5.68,5.68,0,0,1,2.72,1,3.84,3.84,0,0,1,1.53,2.09,4.48,4.48,0,0,1,0,2.38,3.67,3.67,0,0,1-1.28,2,5.3,5.3,0,0,1-2.37,1.12A4.4,4.4,0,0,1,30,38.24a4,4,0,0,1-2-1.57,6,6,0,0,1-.88-3.1s.09-.07.18,0,.15,0,.18-.06a5.83,5.83,0,0,0,.78,2.81,3.81,3.81,0,0,0,4,1.79A4.85,4.85,0,0,0,34.6,37a3.31,3.31,0,0,0,1.07-1.62,3.89,3.89,0,0,0-.07-2.45Z"/><path class="cls-3" d="M22,27.27a4.38,4.38,0,0,1,1.1,1.88,5.31,5.31,0,0,1,.22,2.4,1.55,1.55,0,0,1-.8,1.23,1.56,1.56,0,0,1-1.63-.4,3.63,3.63,0,0,1-1.23-1.94,4.37,4.37,0,0,1,0-2.56,1.68,1.68,0,0,1,1-1.17c.41-.14.88.05,1.4.56Z"/><path class="cls-6" d="M21.75,27.45a4.26,4.26,0,0,1,1,1.84A5.25,5.25,0,0,1,23,31.42c-.08.63-.28,1-.59,1.15s-.72,0-1.18-.36A3.83,3.83,0,0,1,20,30a4.1,4.1,0,0,1,0-2q.23-.83.69-1c.32-.11.68,0,1.09.44Z"/><path class="cls-7" d="M21.27,27.39a3.45,3.45,0,0,1,.44,1.73,3.12,3.12,0,0,1-.16,1.26,1.18,1.18,0,0,1-.5.66.47.47,0,0,1-.59-.07A1.72,1.72,0,0,1,20,30a4.1,4.1,0,0,1,0-2q.23-.83.69-1c.2-.07.4.06.61.38Z"/><path class="cls-3" d="M26.8,27.36a4.29,4.29,0,0,1-1.33-2.12,2,2,0,0,1,.32-2,2.32,2.32,0,0,1,2.05-.46,4.3,4.3,0,0,1,2.39,1.09A4,4,0,0,1,31.42,26a2,2,0,0,1-.28,1.91,2.09,2.09,0,0,1-1.85.55,4.27,4.27,0,0,1-2.49-1.11Z"/><path class="cls-6" d="M26.87,26.92A3.86,3.86,0,0,1,25.75,25,1.54,1.54,0,0,1,26,23.49a1.91,1.91,0,0,1,1.54-.43,4.07,4.07,0,0,1,2.2.94,3.57,3.57,0,0,1,1.38,2.19,1.66,1.66,0,0,1-.36,1.67,1.84,1.84,0,0,1-1.48.32,4.14,4.14,0,0,1-2.42-1.26Z"/><path class="cls-7" d="M27.4,26.71a1.86,1.86,0,0,1-1.46-1.12,3,3,0,0,1-.27-1.21,1.2,1.2,0,0,1,.34-.89,1.71,1.71,0,0,1,1-.42,3.23,3.23,0,0,1,1.47.21,1.58,1.58,0,0,1,1,1.25,1.75,1.75,0,0,1-.4,1.69,1.7,1.7,0,0,1-1.7.49Z"/><path class="cls-3" d="M24.19,30.22c0-.08.25-.14.67-.2a1.79,1.79,0,0,1,.72,0q.11.06-.06.69c-.11.43-.23.65-.35.65s-.35-.15-.63-.49-.38-.55-.35-.64Z"/><path class="cls-8" d="M24.65,30.56s.11-.11.29-.16l.32-.06s0,.15,0,.4-.07.39-.13.41-.15-.08-.3-.27-.2-.29-.19-.32Z"/><path class="cls-3" d="M26.27,29.81c0-.09.12-.28.38-.59s.42-.45.49-.45.18.2.32.59.19.63.12.71l-.71,0c-.39-.1-.59-.18-.6-.23Z"/><path class="cls-8" d="M26.67,29.63c0-.05.06-.14.19-.26s.23-.19.27-.19.11.12.2.35.12.36.09.39-.16,0-.4-.09-.35-.16-.35-.2Z"/><path class="cls-3" d="M24.08,30.41a.78.78,0,0,1,0-.78,2.33,2.33,0,0,1,.95-1,2.38,2.38,0,0,1,1.38-.42c.44,0,.73.12.86.33a.89.89,0,0,1,0,.95,2.92,2.92,0,0,1-.88.92,2.38,2.38,0,0,1-1.22.44,1.15,1.15,0,0,1-1-.4Z"/><path class="cls-3" d="M28.05,34.25a2,2,0,0,0,0,.32l.35,0h.33a.8.8,0,0,1,0,.4l0,.36.34.11c.2,0,.31.09.33.13s0,.16-.09.31a1.8,1.8,0,0,1-.33.4,1.21,1.21,0,0,1-1.08.26,1.3,1.3,0,0,1-.82-.47,1.34,1.34,0,0,1-.27-1,1.12,1.12,0,0,1,.46-.77l.36-.23c.16-.08.26-.1.32-.06s.05.12.06.31Z"/><path class="cls-9" d="M27.38,35.86a1.08,1.08,0,0,1-.26-.66.8.8,0,0,1,.14-.56c.19-.23.36-.34.5-.33s.06.08.09.25l.06.27.32,0h.32a1,1,0,0,1,0,.33.88.88,0,0,0,0,.35l.29.08c.18,0,.27,0,.28.08s0,.11-.08.21a1,1,0,0,1-.36.31,1,1,0,0,1-.64.09,1.09,1.09,0,0,1-.64-.39Z"/><path class="cls-3" d="M32.82,31.15a1.48,1.48,0,0,1,.61,1,1.64,1.64,0,0,1-.18,1.14,1.26,1.26,0,0,1-.62.59l-.69,0q-.44-.06-.48-.18a.48.48,0,0,1,.08-.32l.11-.25a.84.84,0,0,0-.31-.11c-.21-.06-.32-.11-.34-.16s0-.16.16-.34l.18-.28s-.11-.06-.32-.12S30.7,32,30.68,32s.09-.32.36-.6a1.27,1.27,0,0,1,.85-.49,1.49,1.49,0,0,1,.93.29Z"/><path class="cls-9" d="M32.5,31.28a1.13,1.13,0,0,1,.58.78,1.67,1.67,0,0,1,0,1,.78.78,0,0,1-.55.55l-.44,0c-.17,0-.26,0-.28-.07s0-.14.1-.3S32,33,32,33a.93.93,0,0,0-.3-.09q-.27-.06-.3-.12s0-.14.11-.31.15-.29.14-.32-.11-.09-.3-.16-.29-.13-.3-.17,0-.16.19-.32a1.1,1.1,0,0,1,.62-.34,1.05,1.05,0,0,1,.65.11Z"/><path class="cls-9" d="M26.94,28.66a.68.68,0,0,1,0,.77,1.93,1.93,0,0,1-.75.78,2.18,2.18,0,0,1-1.1.34c-.35,0-.58-.06-.68-.22a.69.69,0,0,1,0-.69,1.83,1.83,0,0,1,.82-.87,2.19,2.19,0,0,1,1.07-.33.82.82,0,0,1,.7.22Z"/><path class="cls-10" d="M27,29a1.1,1.1,0,0,1-.22.66,2.2,2.2,0,0,1-.65.6,2.41,2.41,0,0,1-.94.33,1.23,1.23,0,0,1-.7-.09A3.36,3.36,0,0,0,26,29.9,2.32,2.32,0,0,0,27,29Z"/><path class="cls-3" d="M26,39.25q-1.41-.86-1.26-1.71c.08-.48.63-.78,1.66-.9a10,10,0,0,1,3.4.28,12.77,12.77,0,0,1,3.23,1.21c1,.57,1.5,1.08,1.4,1.54s-.82.86-2.16,1A11.22,11.22,0,0,1,29,40.38,10.18,10.18,0,0,1,26,39.25Z"/><path class="cls-3" d="M37.92,33.44a11.66,11.66,0,0,1,.19,4.38c-.18.81-.52,1.28-1,1.4s-1-.26-1.55-1.12a10.89,10.89,0,0,1-1.49-4,10.92,10.92,0,0,1-.24-3.4c.12-1,.44-1.64,1-1.85s1.13.11,1.77,1a8.68,8.68,0,0,1,1.39,3.58Z"/><path class="cls-9" d="M34.88,29.25c.43-.12.93.29,1.5,1.22a8.67,8.67,0,0,1,1.14,3,14.51,14.51,0,0,1,.3,3.9c-.1.9-.36,1.4-.77,1.5s-.86-.36-1.39-1.34A12.15,12.15,0,0,1,34.45,34a13.12,13.12,0,0,1-.25-3c.06-1,.28-1.61.68-1.72Z"/><path class="cls-10" d="M36.4,31.65c.22,0,.44.14.65.49a3.84,3.84,0,0,1,.47,1.32,15.42,15.42,0,0,1,.32,3.6,4.43,4.43,0,0,1-.17,1c-.08.25-.2.37-.37.36s-.33-.15-.52-.41a6.9,6.9,0,0,1-.92-3,7.94,7.94,0,0,1,0-2.45c.11-.61.28-.92.53-.94Z"/><path class="cls-9" d="M25.16,37.59q.16-.51,1.5-.6a9.92,9.92,0,0,1,3.24.37,13.59,13.59,0,0,1,3.25,1.22c.65.38,1,.72.94,1s-.53.53-1.53.61A12,12,0,0,1,29.22,40a10.08,10.08,0,0,1-3-1.07c-.83-.49-1.19-.91-1.07-1.29Z"/><path class="cls-10" d="M26.67,38.45c0-.26.39-.41,1.1-.44a10.43,10.43,0,0,1,2.59.29,7.73,7.73,0,0,1,2.64,1q.47.31.45.54c0,.16-.2.26-.59.31a11.08,11.08,0,0,1-1.66,0,13.83,13.83,0,0,1-2-.27,6.38,6.38,0,0,1-1.69-.6c-.6-.31-.88-.61-.86-.9Z"/><path class="cls-2" d="M13.69,16.14a3.86,3.86,0,0,1-2.16.27q-1.44-.18-1.41-1.05c0-.56.48-.8,1.37-.71a8.23,8.23,0,0,1,2.18.56,12.72,12.72,0,0,1,5.53,4.45,15,15,0,0,1,2.67,5.25,1.86,1.86,0,0,1,.11.78c-.05.08-.16-.08-.33-.47q-3.28-7.69-8-9.08Z"/><path class="cls-2" d="M24.42,23.42c0,.48,0,.7-.08.66s-.18-.26-.23-.69a35.47,35.47,0,0,0-2-7q-1.71-4.62-2.7-5.13a4.29,4.29,0,0,1-2.54-1.49.93.93,0,0,1,0-1.21q.46-.5,1.32,0a5.89,5.89,0,0,1,1.67,1.82,29.85,29.85,0,0,1,3.3,7.44,28.5,28.5,0,0,1,1.21,5.61Z"/><path class="cls-3" d="M24.3,23.94a21.09,21.09,0,0,0-1.2-6.09,29.14,29.14,0,0,0-3.23-7.17,7.38,7.38,0,0,0-1.52-1.77c-.63-.51-1.09-.6-1.38-.25s-.15.68.27,1.18A4,4,0,0,0,19.56,11,24.11,24.11,0,0,1,22.5,17a40,40,0,0,1,1.8,7Zm.13-1.1a2.31,2.31,0,0,1,0,1.31c-.12.15-.26-.12-.39-.82a43,43,0,0,0-1.82-6.44,21.35,21.35,0,0,0-2.77-5.58A3.87,3.87,0,0,1,16.93,10c-.46-.59-.5-1.11-.11-1.55s.8-.37,1.44,0A5.2,5.2,0,0,1,20,10.34a32.37,32.37,0,0,1,4.41,12.5Z"/><path class="cls-3" d="M10.28,15.21a.48.48,0,0,0,.18.54,1.82,1.82,0,0,0,.77.42,3.2,3.2,0,0,0,2.41-.2,11,11,0,0,1,5.73,4.68,22.16,22.16,0,0,1,2.52,4.89,15,15,0,0,0-3.07-6.13,11.81,11.81,0,0,0-5.23-4,11,11,0,0,0-2.14-.58c-.67-.08-1.06,0-1.17.38Zm.59,1.2a1.63,1.63,0,0,1-.75-.52.82.82,0,0,1-.13-.72c.12-.47.59-.68,1.39-.63a9.28,9.28,0,0,1,2.64.7,12,12,0,0,1,4.69,3.63A16.51,16.51,0,0,1,22,25c.13.46.14.72,0,.78s-.28-.14-.48-.6q-3.13-7.37-7.82-8.89a3.86,3.86,0,0,1-2.81.16Z"/></g></g></svg>