<svg xmlns="http://www.w3.org/2000/svg" viewBox="0 0 36.47 60.42"><defs><style>.cls-1{fill:#dcdbd6;}.cls-1,.cls-2,.cls-3,.cls-4,.cls-5,.cls-6,.cls-7,.cls-8,.cls-9{fill-rule:evenodd;}.cls-2{fill:#b4b4b0;}.cls-3{fill:#a95b00;}.cls-4{fill:#cf7100;}.cls-5{fill:#fff;}.cls-6{fill:#dbdcdc;}.cls-7{fill:#0d131a;}.cls-8{fill:#f9f1ab;}.cls-9{fill:#d3cd91;}</style></defs><title>Asset 83@</title><g id="Layer_2" data-name="Layer 2"><g id="Layer_1-2" data-name="Layer 1"><path class="cls-1" d="M17.75,6,19.4,6c.54,0,1.05,1,1.53,3.26a2.23,2.23,0,0,1-.81,2,11,11,0,0,1-1.53,1.29c-.24.18-.87.17-1.91,0a6.56,6.56,0,0,0-2.15-.21c-.53.14-2.1,1.48-4.73,4.05s-4,4.15-4.05,4.68a8.71,8.71,0,0,0,.92,2.27,32.17,32.17,0,0,1-1.69,4,16.38,16.38,0,0,1-2.37,3.52C2.36,30,2.15,29.34,2,28.64l-.21-.84-.27.2a.85.85,0,0,1-.65.1c-.35-.09-.17-1.43.55-4.05a3.06,3.06,0,0,1-.25-1.87,3.33,3.33,0,0,1,.44-1.33,2.07,2.07,0,0,0,.2-.75,2.09,2.09,0,0,1,.42-1,1.65,1.65,0,0,1,1.15-.59l.69,0Q8.52,9.92,9,8.81a2.22,2.22,0,0,0,.18-1.32L8.82,6.17a2.44,2.44,0,0,1,.33-1.59,18.34,18.34,0,0,0,1.08-2.47c.31-.95.66-1.46,1.06-1.54L13.37.4a2.5,2.5,0,0,1,2.1.28,7.21,7.21,0,0,1,1,1.37,2.13,2.13,0,0,1,.18,1.57,6.38,6.38,0,0,0-.13,1.87c.05.32.45.5,1.19.55Z"/><path class="cls-2" d="M17.52,6,19,6.08a5.67,5.67,0,0,0-1.57.69l-.89.83c-.36.36-.67.07-.93-.86a5.36,5.36,0,0,1-.2-2.4A3,3,0,0,0,15,2.15,3.25,3.25,0,0,0,12.57.6l.8-.2a2.5,2.5,0,0,1,2.1.28,7.21,7.21,0,0,1,1,1.37,2.13,2.13,0,0,1,.18,1.57,6.38,6.38,0,0,0-.13,1.87c0,.2.36.36,1,.46Z"/><path class="cls-2" d="M20.79,8.67l.14.58a2.23,2.23,0,0,1-.81,2,11,11,0,0,1-1.53,1.29c-.24.18-.87.17-1.91,0a6.56,6.56,0,0,0-2.15-.21c-.53.14-2.1,1.48-4.73,4.05s-4,4.15-4.05,4.68q0,.18-2,3.51l-2,3.31a1,1,0,0,1-.76.33A30.4,30.4,0,0,0,2.73,24q.21-.6-.12-.75c-.23-.1-.58,0-1,.33.29-.53.57-1,.83-1.36a3.12,3.12,0,0,1,1.67-1.32,52.82,52.82,0,0,1,5.87-6.71q3.2-3.06,4.34-3a9.17,9.17,0,0,0,3-.22,6.4,6.4,0,0,0,3.46-2.36Z"/><path class="cls-3" d="M5.76,21.09a1.92,1.92,0,0,1,.38.79,11.08,11.08,0,0,0,.53,1.37,32.17,32.17,0,0,1-1.69,4,16.38,16.38,0,0,1-2.37,3.52c-.31-.9-.56-1.77-.76-2.59,2.4-4.87,3.71-7.22,3.91-7.07Z"/><path class="cls-4" d="M3.32,18.46H4a1.36,1.36,0,0,1,.54,1.89,3.27,3.27,0,0,1-.8,1,3.28,3.28,0,0,1-1.33.81c-.13,0-.3.28-.53.77L1.37,24a3.62,3.62,0,0,1,.2-3.16,2.07,2.07,0,0,0,.2-.75,2.09,2.09,0,0,1,.42-1,1.64,1.64,0,0,1,1.13-.61Z"/><path class="cls-4" d="M28.38,47.58l3,.16A6.13,6.13,0,0,0,34,47.22c1-.62,1.68-.8,1.91-.53s.1,1.21-.46,2.73a10.34,10.34,0,0,1-2.76,3.8,8.56,8.56,0,0,1-4.89,2.57,1.78,1.78,0,0,1-2.11-1.12,5.06,5.06,0,0,1,0-2.93,9.92,9.92,0,0,1,1.22-3c.56-.89,1.05-1.29,1.49-1.2Z"/><path class="cls-3" d="M25.51,52.54a9.23,9.23,0,0,0,4.57.5,8.69,8.69,0,0,0,4.15-1.57,13.41,13.41,0,0,1-2.8,2.78,7.71,7.71,0,0,1-3.66,1.54,1.82,1.82,0,0,1-2-.84,3.78,3.78,0,0,1-.27-2.41Z"/><path class="cls-4" d="M7.13,46.09c.44-.18,1.27.1,2.48.84a19.56,19.56,0,0,1,3.5,2.73A11.27,11.27,0,0,1,15.64,53c.52,1.17.39,2-.38,2.62a11.79,11.79,0,0,1-5.11,2.11C8.53,58,7.46,58,7,57.6s-.47-.83,0-1.46l.86-.86-1-1.11-1.33-2a4.11,4.11,0,0,1-.31-3.42,3.65,3.65,0,0,1,2-2.7Z"/><path class="cls-3" d="M9.51,46.87a18.08,18.08,0,0,1,5.06,4.41q2.4,3.07.69,4.34a11.39,11.39,0,0,1-3.14,1.62,11.39,11.39,0,0,1-2.9.61c-.64-.13-.6-.37.1-.73a7.85,7.85,0,0,0,1.77-1c.34-.47.38-1.78.12-4a11.09,11.09,0,0,0-1.7-5.28Z"/><path class="cls-5" d="M7.54,55.54a2.6,2.6,0,0,1,1.62.73,1,1,0,0,1,0,1.58A3.89,3.89,0,0,1,7,57.6a.81.81,0,0,1-.21-1.15,2.94,2.94,0,0,1,.79-.91Z"/><path class="cls-6" d="M6.74,57.37a5.63,5.63,0,0,0,1.3,0A7.26,7.26,0,0,0,9.51,57a1.4,1.4,0,0,1-.36.82A3.89,3.89,0,0,1,7,57.6l-.22-.23Z"/><path class="cls-7" d="M17.08,3.74l-.23.81a2.54,2.54,0,0,0-.08.91c0,.13.3.24.82.32a5.58,5.58,0,0,0,1.73,0c.54-.09.95.23,1.22,1a24.57,24.57,0,0,1,.6,2.46,2.37,2.37,0,0,1-.74,2.05,9.7,9.7,0,0,1-1.6,1.37l-.08.07a3.85,3.85,0,0,1-2.42,0l-1.81.09c-.75.29-2.35,1.62-4.81,4S6,20.55,6,21a8.77,8.77,0,0,0,.9,2.18l0,.08,0,.09a32.9,32.9,0,0,1-1.61,3.81,17.06,17.06,0,0,1-2.5,3.76l-.24.26-.12-.34c-.3-.85-.56-1.73-.79-2.65a1.08,1.08,0,0,1-.84.14l-.24-.18a1.2,1.2,0,0,1-.09-.53,16.84,16.84,0,0,1,.71-3.53,4.48,4.48,0,0,1-.28-1.33A3,3,0,0,1,1,21.34a3,3,0,0,1,.38-.61l.13-.5A2.48,2.48,0,0,1,2,18.94a2,2,0,0,1,1.88-.71q.35-.82,2.79-5.53A32.37,32.37,0,0,0,8.87,8.13L8.74,7.06,8.57,5.81a6.23,6.23,0,0,1,.5-1.73l.78-2a3,3,0,0,1,.86-1.5,2.14,2.14,0,0,1,1.2-.25L13.49.07a3.61,3.61,0,0,1,2,.12A3.05,3.05,0,0,1,16.85,2a3.8,3.8,0,0,1,.23,1.73Zm-.76-1.57-.21-.33A3.44,3.44,0,0,0,15.2.74,2.55,2.55,0,0,0,13.41.61l-.83.13L12,.82a2.26,2.26,0,0,0-1,.37,3.47,3.47,0,0,0-.63,1.31L9.69,4.21A10.6,10.6,0,0,0,9.2,5.44a3.79,3.79,0,0,0,0,1.41l.16.84A2.35,2.35,0,0,1,9.2,8.9q-.48,1.1-5,9.66l-.07.13-.15,0-.62,0a1.47,1.47,0,0,0-1,.51,1.89,1.89,0,0,0-.3.58l-.1.49c.16,0,.21.05.15.22L1.75,21a2.53,2.53,0,0,0-.43,1.76,2.75,2.75,0,0,0,.14.79,3.28,3.28,0,0,1,.77-1.39L2,22.05c-.09-.07,0-.14.23-.2a4.48,4.48,0,0,0,1.3-.63c.56-.36.85-.63.87-.82l.33,0c0,.28-.32.63-.86,1a3.24,3.24,0,0,1-1.25.69,2.42,2.42,0,0,0-.61.88,6.64,6.64,0,0,0-.42,1c-.09.24-.23.84-.44,1.81a14.28,14.28,0,0,0-.3,1.77.56.56,0,0,0,0,.26.78.78,0,0,0,.7-.25l.25-.25L3.4,24.65a23.26,23.26,0,0,0,1.16-2.34c.06-.17.12-.13.2.14l.11.43L3.65,25.06A31.93,31.93,0,0,1,2,27.79a23.33,23.33,0,0,0,.71,2.51,22.77,22.77,0,0,0,3.74-7A8.44,8.44,0,0,1,5.54,21v0c0-.63,1.31-2.22,3.82-4.76s4.24-4,5.12-4.17a5.56,5.56,0,0,1,2,.17l1.15.11a1.72,1.72,0,0,0,.81-.17,6.58,6.58,0,0,0,1.35-1.06c.71-.68,1-1.28.89-1.8Q20,6.11,19,6.2l-1.3.07c-.87-.06-1.33-.3-1.38-.74a5.9,5.9,0,0,1,.09-1.74l.11-.85a1.37,1.37,0,0,0-.23-.77Z"/><path class="cls-7" d="M15.45,8.94a5.26,5.26,0,0,0,.77-1.63c.11-.34.18-.49.21-.48l.1.53a1.64,1.64,0,0,1-.26,1.06,2.25,2.25,0,0,1-.57.75c-.15.1-.26.14-.34.1s0-.15.09-.33Z"/><path class="cls-7" d="M30.92,48.05a14,14,0,0,1-2.57-.31c-.31-.07-.69.21-1.13.85a9.05,9.05,0,0,0-1.38,3.17,4.3,4.3,0,0,0,.1,3.14,1.67,1.67,0,0,0,1.8.73,8.51,8.51,0,0,0,4.83-2.53,10.31,10.31,0,0,0,2.7-3.73c.56-1.51.72-2.38.46-2.6-.08-.06-.26,0-.54.08l-1.13.52a8.76,8.76,0,0,1-3.14.68Zm-5.41,3.68a9.08,9.08,0,0,1,1.43-3.32c.53-.76,1-1.09,1.46-1l2.84.16A7.08,7.08,0,0,0,33.91,47l1.51-.7q.66-.26.87-.06c.19.16.23.55.13,1.14a11,11,0,0,1-.71,2.22,10.81,10.81,0,0,1-3.3,4.18A8.93,8.93,0,0,1,27.78,56a2,2,0,0,1-2.12-.88,4.66,4.66,0,0,1-.15-3.34Z"/><path class="cls-7" d="M7.59,55.71l-.25.23a2.3,2.3,0,0,0-.48.66.6.6,0,0,0,.15.81,1.19,1.19,0,0,0,.55.23l1.5,0a.55.55,0,0,0,.24-.37,1,1,0,0,0,0-.58,1.21,1.21,0,0,0-.64-.68,3.33,3.33,0,0,0-1.05-.35Zm-.4-9.48a3.39,3.39,0,0,0-1.67,2.31,5.54,5.54,0,0,0-.18,2.12,5.4,5.4,0,0,0,.44,1.81,5.73,5.73,0,0,0,1,1.52,4.36,4.36,0,0,0,1.15,1l.53.25-.12.08a1.74,1.74,0,0,0-.37.13l-.09.06a3.38,3.38,0,0,1,1,.43,1.71,1.71,0,0,1,.67.74,1.14,1.14,0,0,1-.09,1,11.62,11.62,0,0,0,5.68-2.17c.81-.6.84-1.58.08-2.94A15.11,15.11,0,0,0,11,48C9,46.59,7.78,46,7.19,46.23ZM4.67,50.36a5.09,5.09,0,0,1,.84-3.1,3.58,3.58,0,0,1,1.56-1.32c.73-.3,2.11.33,4.14,1.87a15.84,15.84,0,0,1,4.31,4.58c.91,1.64.95,2.76.11,3.36a11.32,11.32,0,0,1-3.3,1.64,14.19,14.19,0,0,1-3.1.62H9.15c-1.41.1-2.26-.08-2.56-.54a1,1,0,0,1,0-1A3.13,3.13,0,0,1,7.7,55.26a5.41,5.41,0,0,1-2.23-2.17,5.64,5.64,0,0,1-.8-2.73Z"/><path class="cls-4" d="M7.77,50.61q-2.2-3.13-1.08-7.86a13.77,13.77,0,0,1,2.78-5.88q1.68-1.93,7.79-.08l4.81,1.62a21.75,21.75,0,0,0,3.84,1.05,5.86,5.86,0,0,1,3.86,1.83l.9,1.18a3.55,3.55,0,0,0,.66.8l.8.59.54.53a1.92,1.92,0,0,1,.35,1.5,4.66,4.66,0,0,1-.58,2,2.12,2.12,0,0,1-1.15,1,4.12,4.12,0,0,1-1.36,0c-.4,0-.64-.16-.71-.39v-.32a.38.38,0,0,0-.2-.12l-.85-.06q1.41,1.27,1.16,4.44A11.87,11.87,0,0,1,27.54,58c-.87,1.37-1.8,2.1-2.76,2.18a2.65,2.65,0,0,1-1.85-.64,4.54,4.54,0,0,1-.8-1.16,8.56,8.56,0,0,0-1.73-2.07,15.48,15.48,0,0,1-7.27-.92,13.29,13.29,0,0,1-5.36-4.76Z"/><path class="cls-4" d="M7.62,50.66q-2.19-3.12-1-7.87a14.18,14.18,0,0,1,2.85-5.92q1.68-1.93,7.79-.08l4.81,1.62a21.75,21.75,0,0,0,3.84,1.05,5.86,5.86,0,0,1,3.86,1.83l.9,1.18a3.55,3.55,0,0,0,.66.8l.8.59.54.53a1.92,1.92,0,0,1,.35,1.5,4.66,4.66,0,0,1-.58,2,2.12,2.12,0,0,1-1.15,1,4.12,4.12,0,0,1-1.36,0c-.4,0-.64-.16-.71-.39v-.32a.38.38,0,0,0-.2-.12l-.85-.06q1.41,1.27,1.16,4.44A11.87,11.87,0,0,1,27.54,58c-.87,1.37-1.8,2.1-2.76,2.18a2.65,2.65,0,0,1-1.85-.64,7.29,7.29,0,0,1-1-1.17,11.07,11.07,0,0,0-2-2,15,15,0,0,1-7.13-.9,13.43,13.43,0,0,1-5.24-4.75Z"/><path class="cls-3" d="M9.45,38.45l-1.2.24a11.44,11.44,0,0,1,1.22-1.82q1.68-1.93,7.79-.08l4.81,1.62a21.75,21.75,0,0,0,3.84,1.05,5.86,5.86,0,0,1,3.86,1.83l.9,1.18a3.55,3.55,0,0,0,.66.8l.8.59.54.53a1.92,1.92,0,0,1,.35,1.5,4.66,4.66,0,0,1-.58,2,2,2,0,0,1-1.11,1,2.75,2.75,0,0,0,.21-1.68A2,2,0,0,0,31.1,46a13.2,13.2,0,0,0-1.43-1.47,10.29,10.29,0,0,0-3.3-2c-4-1.44-6.38-2.27-7.16-2.5a66.27,66.27,0,0,0-7.41-1.64,7.48,7.48,0,0,0-2.35,0Z"/><path class="cls-3" d="M23.35,44.4l2,.62a6.08,6.08,0,0,1,2.12,1,2.08,2.08,0,0,1,.33,1c.08.46.14.71.2.74l.37.29-.24,0q1.41,1.27,1.16,4.44A11.87,11.87,0,0,1,27.54,58c-1,1.58-2.08,2.31-3.21,2.18l.53-.81a2.08,2.08,0,0,1,.88-.76A3.59,3.59,0,0,0,27,57a10.43,10.43,0,0,0,1.15-3.19q.9-4.69-2.79-6.85a5.28,5.28,0,0,1-1.85-1.72c-.45-.67-.5-1-.16-.86Z"/><path class="cls-8" d="M7.69,51a7.39,7.39,0,0,1-1.11-2.69,11.92,11.92,0,0,1-.25-2.85q.5-3.54,3.06-4.76a6.68,6.68,0,0,1,4.31-.37,10.89,10.89,0,0,1,4.55,2.34,8.15,8.15,0,0,1,3.23,4.93q-3,2.4-2.91,5.22A5.93,5.93,0,0,0,20,56.31a16.71,16.71,0,0,1-7-.82A12.13,12.13,0,0,1,7.69,51Z"/><path class="cls-9" d="M20,56.31a17.6,17.6,0,0,1-6.44-.6,11,11,0,0,1-4.89-3.45,15.27,15.27,0,0,0,4.7,2.06,19.59,19.59,0,0,0,5.69.46A7.79,7.79,0,0,0,20,56.31Z"/><path class="cls-5" d="M22.77,59.38c0-.71.51-1.15,1.47-1.31a2.54,2.54,0,0,1,2.49,1q-1.83,2-3.8.46l-.16-.14Z"/><path class="cls-6" d="M25.94,58.39a2.74,2.74,0,0,1,.79.67q-1.69,1.83-3.46.7a3.3,3.3,0,0,0,1.53-.29,2.31,2.31,0,0,0,1.14-1.08Z"/><path class="cls-7" d="M25.16,58.26l-1.25.06a1.65,1.65,0,0,0-.68.41,1.1,1.1,0,0,0-.29.58l.32.25.34.2.33.13.19.06h0a2.51,2.51,0,0,0,2.35-.9,2.47,2.47,0,0,0-1.33-.8ZM20.71,38.11a50.13,50.13,0,0,0-6.43-1.9c-2.32-.41-3.89-.15-4.69.78a12.67,12.67,0,0,0-2.38,4.23,13.32,13.32,0,0,0-.72,4.22A9.83,9.83,0,0,0,11,54a12.26,12.26,0,0,0,8.71,2.13,5.61,5.61,0,0,1-1.43-3.73,5.43,5.43,0,0,1,1.53-3.73A4.45,4.45,0,0,1,23.13,47c.29,0,.43,0,.42.08s-.2.14-.55.24a5.77,5.77,0,0,0-3.06,2,5.06,5.06,0,0,0-1.19,3.28,5.34,5.34,0,0,0,.84,2.86,8.53,8.53,0,0,0,1.52,1.64,6,6,0,0,1,1.32,1.51l.25.44a1.66,1.66,0,0,1,.45-.65,2,2,0,0,1,.75-.46,2.36,2.36,0,0,1,1.37,0,3,3,0,0,1,1.48.92l.67-.91a11.49,11.49,0,0,0,1.79-5.48c.14-2-.23-3.43-1.12-4.24,0,.08-.13,0-.29-.09a1.78,1.78,0,0,1-.33-1.3l.06-.56-4.13-1.62c-.26-.09-.4-.2-.44-.33h.73a26.35,26.35,0,0,1,3.94,1.66l.16-.07c.1,0,.15,0,.14.1-.07,1,0,1.53.16,1.67l.15.16,0,0,.41,0a2.06,2.06,0,0,1,.65.16c.17.08.23.15.18.22l-.1.08,0,.07,0,.14c.07.11.26.18.6.2a5.13,5.13,0,0,0,1.26,0,1.7,1.7,0,0,0,1.05-.89,4.7,4.7,0,0,0,.54-1.94,1.83,1.83,0,0,0-.29-1.38l-.19-.2-1.13-.91a4.16,4.16,0,0,1-.74-.89A7.78,7.78,0,0,0,29,40.8a6,6,0,0,0-3.1-1.19,13,13,0,0,1-2.32-.54l-2.87-1Zm-6.56-2.27a48.2,48.2,0,0,1,6.67,2l2.84.95a12.58,12.58,0,0,0,2.26.54,6.73,6.73,0,0,1,3.23,1.12,6.64,6.64,0,0,1,1.56,1.69l.37.59.34.42,1,.82.25.2.24.31a2.72,2.72,0,0,1,.29,1.7,4.82,4.82,0,0,1-.62,2,1.82,1.82,0,0,1-1.25,1l-1.45-.05a1.07,1.07,0,0,1-.89-.38l0-.16,0-.16-.09-.05-.09-.07-.07,0-.23,0a4.9,4.9,0,0,1,.83,1.7A7.5,7.5,0,0,1,29.72,52a8.66,8.66,0,0,1-.5,3.1A26.86,26.86,0,0,1,28,57.55a9.89,9.89,0,0,1-1.17,1.79,2.94,2.94,0,0,1-2.26,1.08A2.79,2.79,0,0,1,22,58.65a4.64,4.64,0,0,0-.93-1.14L20,56.5l-2.26.2a12,12,0,0,1-7.88-2.79,10.22,10.22,0,0,1-3.79-8.26,13.41,13.41,0,0,1,.81-4.77,13.09,13.09,0,0,1,2.49-4.11c.87-1,2.47-1.32,4.8-.93Z"/><path class="cls-5" d="M27.81,47.85a.68.68,0,0,1,.62-.06.72.72,0,0,1,.53.37c-.24.58-.49.84-.76.78s-.39-.42-.39-1.09Z"/><path class="cls-1" d="M23.38,19l2.78-1.53a1.43,1.43,0,0,1,1.52.12c.45.3.53.6.26.87a13.22,13.22,0,0,0-1.86,3c-.39.78-.74,1.52-1,2.2l.32.6a4.81,4.81,0,0,1,.39,1.38,5.31,5.31,0,0,0,1.39,1.25,10,10,0,0,1,1.74,1.47,2.91,2.91,0,0,1,.33,2.12,11.12,11.12,0,0,0-.14,2.17c.42.37.41,1.13,0,2.29a9.75,9.75,0,0,1-.77,1.63l.19.44a5.5,5.5,0,0,1,.27,1.21,3.44,3.44,0,0,1-.51,2.11,5.57,5.57,0,0,1-.92,1.23l-1.12,1.35a3.62,3.62,0,0,1-1.49,1.2,1.49,1.49,0,0,1-1.22-.46l-1.17-.92A6.5,6.5,0,0,0,21,42.29L19.9,42c-.14,0-.46.16-.94.62a4,4,0,0,1-1.15.87c-.27.08-.65-.38-1.13-1.38l-.78-1.73a8,8,0,0,0-1.78-.85q-1.38-.55-1.92-.75a2.2,2.2,0,0,1-.73-.54l-.42-.45-.74-.29c-.52-.17-.82-.21-.9-.1l-.59.68a.89.89,0,0,1-1,.2A9.47,9.47,0,0,1,4.64,34.8L3.19,32.14a1,1,0,0,1-.92-.07c-.31-.13-.7-.68-1.18-1.65a4.36,4.36,0,0,1-.62-2.05c.06-.33.5-.74,1.34-1.24s1.49-.86,1.71-1a4.26,4.26,0,0,0,1-1.46L5,23.54a2.85,2.85,0,0,0-.65-1.61,13.86,13.86,0,0,1-1.23-1.07,2.2,2.2,0,0,1-.83-1.57A1.4,1.4,0,0,1,3,18.09a1.13,1.13,0,0,1,1.29.15A16.87,16.87,0,0,0,6.8,19.78a10.63,10.63,0,0,0,2.42.91l2-1a11.2,11.2,0,0,1,4.08-1A15.09,15.09,0,0,1,21,19.9c.27.11,1.06-.2,2.39-.92Z"/><path class="cls-2" d="M4.92,30.67l1.17,0L7.16,31l-2,.2-1.94,1A2.58,2.58,0,0,1,2,31.91c-.1-.05.23-.25,1-.6a7.67,7.67,0,0,1,1.91-.64Z"/><path class="cls-2" d="M11.67,37.16a6.29,6.29,0,0,0,1.81.92,4.23,4.23,0,0,1,2,1.31,3,3,0,0,1,.34.9c0,.11,0,.13-.11.05a7,7,0,0,0-1.7-.82c-.83-.33-1.45-.57-1.84-.7a2.2,2.2,0,0,1-.73-.54l-.42-.45-.74-.29c-.52-.17-.82-.21-.9-.1l-.59.68a.89.89,0,0,1-1,.2l-.43-.18-.42-.28a4.7,4.7,0,0,0,2.18-1.37c1.16-1.14,1.81-1.75,1.94-1.85a6.63,6.63,0,0,0,.23,1.23,8.66,8.66,0,0,0,.38,1.29Z"/><path class="cls-2" d="M21,42.29,19.9,42l-.82.63c-.47.42-.7.6-.7.54a8.6,8.6,0,0,1,.78-1.8c.54-1.09.87-1.55,1-1.39a3.54,3.54,0,0,0,1.32.67l1.63.52c.5.12,1.2,1,2.11,2.64a1.18,1.18,0,0,1-.52.27,1.49,1.49,0,0,1-1.22-.46l-1.17-.92A6.5,6.5,0,0,0,21,42.29Z"/><path class="cls-2" d="M28.3,36.53a7.2,7.2,0,0,1-.91-1.47,3.16,3.16,0,0,1-.29-1.72l1.12,1c.45.44.67.71.64.82l-.27.71-.29.62Z"/><path class="cls-2" d="M25.24,24a2,2,0,0,1-.56-.71,2.81,2.81,0,0,0-.52-.73,6.38,6.38,0,0,0,1.45-1.64,16.12,16.12,0,0,1,1.72-2.13c.51-.44.3.18-.63,1.89l-1.54,2.7v.2a.93.93,0,0,0,.09.42Z"/><path class="cls-2" d="M9.22,20.69,10.55,20a16.29,16.29,0,0,1,3-1,12.6,12.6,0,0,0-2,1.4l-.83.73-1.55-.42Z"/><path class="cls-2" d="M29.11,31.16l0,.67a2.46,2.46,0,0,0,0,.74,6.39,6.39,0,0,1-2.19-2.27l1.41.48c.54.15.82.28.83.38Z"/><path class="cls-2" d="M2.62,18.46a1.81,1.81,0,0,0,.06.77,1.71,1.71,0,0,0,.45.64l2.53,2.84c.78,1,1,1.61.8,1.92A12,12,0,0,1,3.51,27a7.46,7.46,0,0,0-2.14,1.62,3.44,3.44,0,0,0-.2,1.28,3.55,3.55,0,0,0,.16,1,8.79,8.79,0,0,1-.64-1.41,2.65,2.65,0,0,1-.22-1.09c.06-.33.5-.74,1.34-1.24s1.49-.86,1.71-1a4.26,4.26,0,0,0,1-1.46L5,23.54a2.85,2.85,0,0,0-.65-1.61,13.86,13.86,0,0,1-1.23-1.07,2.2,2.2,0,0,1-.83-1.57,1.48,1.48,0,0,1,.29-.83Z"/><path class="cls-2" d="M14.58,23.38c.36,0,.79.48,1.28,1.43a13.15,13.15,0,0,1,.89,2.13,13.26,13.26,0,0,1,.35,3,7.64,7.64,0,0,1-.21,2.83A3.4,3.4,0,0,1,15.28,34a5,5,0,0,1-2.62.52,3.51,3.51,0,0,1-2.27-1.81,6.24,6.24,0,0,1-1-2.12A11,11,0,0,1,10,27.54a12.46,12.46,0,0,1,1-2.91,5.26,5.26,0,0,1,1.64-.77,6.53,6.53,0,0,1,1.93-.48Z"/><path class="cls-4" d="M13.25,25.15a3.09,3.09,0,0,1,1.45-.46,7.7,7.7,0,0,1,1.18,2.07,27,27,0,0,1,1.24,2.78,5.27,5.27,0,0,1,.19,1.65A3,3,0,0,1,17,32.52c-.14.26-.77.51-1.88.74a11.69,11.69,0,0,1-2.2.3c-.33,0-.74-.33-1.23-1a5.7,5.7,0,0,1-.87-1.6,5.23,5.23,0,0,1,.24-2.28,11.49,11.49,0,0,1,.75-2.37,2.9,2.9,0,0,1,1.42-1.16Z"/><path class="cls-3" d="M13.25,25.15a3.09,3.09,0,0,1,1.45-.46,7.7,7.7,0,0,1,1.18,2.07,27,27,0,0,1,1.24,2.78l.17.87L16.48,29a5.15,5.15,0,0,0-2.41-2.4c-1-.37-1.93,0-2.77,1.2a9.92,9.92,0,0,1,.53-1.5,2.9,2.9,0,0,1,1.42-1.16Z"/><path class="cls-5" d="M16.47,32.12c.07.24.09.39.05.45l-.34.06a6.92,6.92,0,0,1-2-.69,4.68,4.68,0,0,1-1.27-.77c-.13-.14-.11-.74,0-1.8s.33-1.63.49-1.68c.44-.13,1,.41,1.74,1.61a12.86,12.86,0,0,1,1.29,2.82Z"/><path class="cls-2" d="M24.3,23.94c.54-.11,1,.59,1.43,2.09a14.28,14.28,0,0,1,.54,3.51,3,3,0,0,1-.69,1.92,2.47,2.47,0,0,1-.9.77l-.31.08c-.09,0-.07-.08.06-.19A3.56,3.56,0,0,0,25,30.88a8.3,8.3,0,0,0,.48-1.76,5.4,5.4,0,0,0-.38-2.07,13.44,13.44,0,0,0-.65-1.66c-.08-.16-.22-.18-.42,0s-.27.12-.27.06a5.5,5.5,0,0,1,.16-.81c.12-.42.24-.64.37-.66Z"/><path class="cls-4" d="M23.71,25.89a1.11,1.11,0,0,1,.18-.46.55.55,0,0,1,.29-.23c.26-.07.54.47.86,1.62a15.24,15.24,0,0,1,.5,2.61,3.05,3.05,0,0,1-.47,1.72c-.3.54-.54.85-.73.92s-.19,0-.26-.22l-.21-.64a15.64,15.64,0,0,1-.18-2.7,21.88,21.88,0,0,1,0-2.62Z"/><path class="cls-3" d="M23.71,25.89a1.11,1.11,0,0,1,.18-.46.55.55,0,0,1,.29-.23c.26-.07.54.47.86,1.62a15.24,15.24,0,0,1,.5,2.61v.18a12.79,12.79,0,0,0-.76-1.47c-.37-.53-.74-.67-1.1-.41a13.11,13.11,0,0,1,0-1.84Z"/><path class="cls-5" d="M24.47,27.63c.14-.05.25.28.33,1A8,8,0,0,1,24.87,30a2,2,0,0,1-.29.7,2.85,2.85,0,0,1-.5.56c-.14.11-.24-.18-.28-.85a9.64,9.64,0,0,1,0-1.33,4.15,4.15,0,0,1,.17-.8.85.85,0,0,1,.5-.6Z"/><path class="cls-2" d="M19.79,39a2.59,2.59,0,0,1,.15-1.26,1.08,1.08,0,0,1,.87-.65,3,3,0,0,1,1,0c.64.12,1.16.71,1.57,1.77a4.9,4.9,0,0,1,.39,2c0,.22-.14.3-.34.25L22.6,41a3.51,3.51,0,0,1-1.44-.5l-1.09-.66c-.14-.1-.23-.37-.28-.81Z"/><path class="cls-2" d="M26.6,36.19q.2-.27.63.3a3.73,3.73,0,0,1,.55.93,2.15,2.15,0,0,1-.12,1.16,7,7,0,0,1-.54,1.35c-.16.3-.28.36-.35.2l-.17-.67a10.7,10.7,0,0,1-.1-1.75,5.23,5.23,0,0,1,.1-1.52Z"/><path class="cls-7" d="M21,39.17a2.08,2.08,0,0,1,0-.77,1.58,1.58,0,0,1,.41-.72c.24-.27.44-.4.61-.39.57,0,1,.52,1.37,1.49a4.13,4.13,0,0,1,.34,1.69c0,.13-.25.11-.73,0l-1.36-.56a1,1,0,0,1-.67-.69Z"/><path class="cls-7" d="M26.49,37.27c.06-.14.28.17.66.92a1.1,1.1,0,0,1-.08.7l-.32.66c-.08.11-.15-.21-.22-1a5.37,5.37,0,0,1,0-1.3Z"/><path class="cls-7" d="M28.77,48.17a.67.67,0,0,0-.39-.22A.69.69,0,0,0,28,48a1.78,1.78,0,0,0,.12.64c0,.12.09.18.15.2s.34-.19.53-.62Zm-1.13-.39.05-.06a.84.84,0,0,1,.75-.09.86.86,0,0,1,.67.46l0,.07,0,.05q-.41,1-.93.9t-.54-1.26v-.07Z"/><path class="cls-7" d="M12.94,31.44a1.14,1.14,0,0,1-.26-.82,4,4,0,0,1,.07-.78c0-.12.08-.19.13-.21s.08.06.08.24c0,.79,0,1.22.16,1.29a10.71,10.71,0,0,0,1.81,1,4.06,4.06,0,0,0,1.2.35c.18,0,.27.06.27.11l-.31.09a3.61,3.61,0,0,1-1.35-.29,7.34,7.34,0,0,1-1.8-1Z"/><path class="cls-7" d="M16.53,32c.08.31.07.46,0,.44s-.14-.13-.21-.35A10.46,10.46,0,0,0,15,29.47a5.14,5.14,0,0,0-1.39-1.57c-.06,0-.1,0-.13,0l-.21.41-.14.16c-.05,0-.07-.06-.06-.19a1.44,1.44,0,0,1,.16-.51.68.68,0,0,1,.21-.29.1.1,0,0,1,.13,0l.14.08a4.89,4.89,0,0,1,1.68,1.75A7.62,7.62,0,0,1,16.53,32Z"/><path class="cls-7" d="M16.36,29.51l0,.27s-.07-.05-.12-.2l-.48-1-.48-.83c-.11-.15-.16-.25-.15-.29s.11,0,.29.14a2.71,2.71,0,0,1,.53.85,5.45,5.45,0,0,1,.39,1.1Z"/><path class="cls-7" d="M16.06,31a1.92,1.92,0,0,1-.33,1c-.19.26-.4.34-.61.25a1.7,1.7,0,0,1-.83-1.49,4.09,4.09,0,0,1,.35-2.17l.58.72A5.5,5.5,0,0,1,16.06,31Z"/><path class="cls-5" d="M15.53,30.67l-.08.48q-.07.18-.15.18c-.06,0-.11-.06-.16-.19a1.34,1.34,0,0,1-.1-.49,1.15,1.15,0,0,1,.1-.46c0-.13.1-.19.16-.19s.1.07.15.2l.08.47Z"/><path class="cls-7" d="M24.39,27.39c.06-.05.13,0,.21.05l.23.48.09.6-.05.4c-.05.09-.08.06-.11-.09a2.53,2.53,0,0,0-.29-1c-.09-.1-.2.1-.35.6.23,0,.36.31.41.86a3.51,3.51,0,0,1-.15,1.33l.41-.58.07-.07v.1l-.3.71a1.51,1.51,0,0,1-.51.58L24,31.15v0l0,0h0l-.11-.86,0-1.1-.11-.25a3,3,0,0,1,.26-.79,1.64,1.64,0,0,1,.44-.67Z"/><path class="cls-5" d="M24.18,29.68l0,.33-.09.18S24,30.12,24,30l0-.34c0-.34,0-.52.1-.52s.08.06.11.16l.05.38Z"/><path class="cls-7" d="M27.4,31.15a1.29,1.29,0,0,0-.54-.52,1.59,1.59,0,0,0-.62-.18,3.56,3.56,0,0,1-.46,1,3,3,0,0,1,.72.31,2,2,0,0,1,.57,1.18,11.69,11.69,0,0,0,1.16,3.31,10.87,10.87,0,0,0,.82-1.91c.21-.71.21-1.15,0-1.31l0-.05-.45-.38a4.59,4.59,0,0,1-1.16-1.41Zm1.31-2.64A10.25,10.25,0,0,0,27,27.1L26,26.28a11.34,11.34,0,0,1,.39,2l0,.75a5,5,0,0,1-.1,1,1.82,1.82,0,0,1,.7.24,1.52,1.52,0,0,1,.58.6,3.26,3.26,0,0,0,1.28,1.45,8.43,8.43,0,0,1,0-1.41A9.64,9.64,0,0,0,29,29.62a1.85,1.85,0,0,0-.32-1.11ZM21.1,38.58a1.41,1.41,0,0,0,0,.7.85.85,0,0,0,.31.39,5.9,5.9,0,0,0,1.2.46q.95.28,1,.21a3.13,3.13,0,0,0-.29-1.16,3.51,3.51,0,0,0-1.13-1.69l-.08-.05a1.09,1.09,0,0,0-.61.37,1.28,1.28,0,0,0-.38.77ZM10.42,35.93l-.7,1.24a3.67,3.67,0,0,1,1,.29,4.54,4.54,0,0,1-.31-1.53Zm-.5-3.48a3.48,3.48,0,0,1-.86-2c-.26.09-.71.29-1.37.59l-1.23.18-1.23-.05a1,1,0,0,0-.55.27,7,7,0,0,0-.66.48l-.31.21a.41.41,0,0,0-.19.25,8.86,8.86,0,0,0,1.42,2.55A9,9,0,0,0,7.86,38c.18.09.44,0,.78-.29l.46-.45A17.87,17.87,0,0,1,11.45,34a9,9,0,0,1-1.53-1.57Zm10.49,5A1.48,1.48,0,0,0,20,38.55a2.53,2.53,0,0,0,.09,1.05c.06.16.42.4,1.07.73a4.52,4.52,0,0,0,1.27.51l.68.09.42,0,.1-.16,0-.17a4,4,0,0,1-1.31-.33,5,5,0,0,1-1.05-.52.79.79,0,0,1-.33-.42,1.92,1.92,0,0,1,0-.79,1.61,1.61,0,0,1,.35-.78,1.45,1.45,0,0,1,.59-.47,1.34,1.34,0,0,0-1.4.15Zm-7-12.5c.74-.36,1.25-.48,1.54-.34s1,1.5,1.91,3.9a16.23,16.23,0,0,0-.76-3.2c-.41-1.08-.87-1.67-1.39-1.75a4.33,4.33,0,0,0-1.92.42,4,4,0,0,0-1.68,1,11.81,11.81,0,0,0-1,2.7,15.69,15.69,0,0,0-.61,2.73,3.7,3.7,0,0,0,1,2.18A7.3,7.3,0,0,0,12,34.06a2.58,2.58,0,0,0,2.25.06,6.59,6.59,0,0,0,2-1l-1.89.47L13,33.75c-.3,0-.74-.45-1.33-1.23a4.35,4.35,0,0,1-1-1.79,9,9,0,0,1,.41-2.55A6.17,6.17,0,0,1,12,25.86a6.69,6.69,0,0,1,1.39-.9Zm1.41-.05q-.3-.14-1.23.33a6.35,6.35,0,0,0-1.34.86,5.72,5.72,0,0,0-.81,2.16A8.81,8.81,0,0,0,11,30.69a4,4,0,0,0,.91,1.65c.55.7.91,1.06,1.11,1.08l1.54-.19a9.42,9.42,0,0,0,1.75-.45l.37-.17a3.54,3.54,0,0,0,.39-1.9l-.11-.81a24.75,24.75,0,0,0-1.07-3,6,6,0,0,0-1.09-2Zm10.34,0c-.38-.64-.65-.91-.8-.8s-.25.43-.33,1a.38.38,0,0,1,.29-.16c.22,0,.48.35.81,1.07a7.39,7.39,0,0,1,.59,3,5,5,0,0,1-.29,1.64,2.8,2.8,0,0,1-.81,1.38c.29,0,.63-.29,1-1a4.72,4.72,0,0,0,.48-2.69,8.78,8.78,0,0,0-.94-3.46Zm-1.1.62-.09.15a9.64,9.64,0,0,0-.15,1.6A20.19,20.19,0,0,0,24,30.7c.13.81.26,1.21.38,1.21a2.21,2.21,0,0,0,.66-1.17,5.48,5.48,0,0,0,.29-1.67,7.53,7.53,0,0,0-.45-2.58c-.26-.73-.49-1.1-.68-1.1l-.2.14ZM27.77,18a1,1,0,0,0-.58-.38,1.34,1.34,0,0,0-.94.08c-.31.14-.86.43-1.65.88a19,19,0,0,1-3,1.52c.4.35.6.55.6.62s-.42-.11-1.26-.57a8.8,8.8,0,0,0-2.46-.77A17.12,17.12,0,0,0,15.31,19a11,11,0,0,0-3.67.71,9.69,9.69,0,0,0-1.84.82c-.08.05.17.18.75.37s.78.29.67.33a5.78,5.78,0,0,1-2.06-.32A11.8,11.8,0,0,1,6.71,20a16.44,16.44,0,0,1-2.53-1.57,1,1,0,0,0-1-.14,1.11,1.11,0,0,0-.64,1,1.72,1.72,0,0,0,.53,1.14l1,.94.45.38a2.64,2.64,0,0,1,.54.79l.26.76.28.84c.09.33.08.5,0,.51s-.31-.19-.48-.66l-.52,1a4.07,4.07,0,0,1-1,1.24l-.81.47a15.08,15.08,0,0,0-1.33.81c-.51.34-.78.61-.81.83a3.84,3.84,0,0,0,.6,1.92c.45.92.8,1.44,1.06,1.54h.74L4,31.33a3.85,3.85,0,0,1,1.25-.49,5.05,5.05,0,0,0,2.23,0l.89-.43a3.89,3.89,0,0,1,.71-.32,24.22,24.22,0,0,1,.75-2.92,10.11,10.11,0,0,1,1-2.5,3.94,3.94,0,0,1,1.8-1,4.65,4.65,0,0,1,2.09-.4c.93.14,1.66,1.38,2.18,3.73a22.66,22.66,0,0,1,.52,3.52,4.83,4.83,0,0,1-.24,2.07,4.26,4.26,0,0,1-2.27,1.66c-1.38.58-2.45.58-3.2,0a6,6,0,0,0-1.1,1.39l.12.8a3.42,3.42,0,0,0,.36,1.19l.61.62.56.39,1.52.53a9.79,9.79,0,0,1,1.87.81v-.44c0-.2.12-.06.27.41A12.05,12.05,0,0,0,17,42.58c.29.47.54.72.76.74s.27-.08.48-.27l.51-.51.67-.57a.63.63,0,0,1,.54-.14l.5.12c-.31-.27-.22-.74.29-1.43L20,40.14c-.25-.14-.4-.26-.44-.37a2.53,2.53,0,0,1,0-1.26,2.22,2.22,0,0,1,.64-1.35,1.52,1.52,0,0,1,1.13-.32,2.13,2.13,0,0,1,1,.39,4,4,0,0,1,1.45,2.21A2.65,2.65,0,0,1,24,41.06c-.06.15-.24.22-.55.22l-.83-.1-.21,0L21.84,41,21,40.62a2.42,2.42,0,0,0-.37.67.83.83,0,0,0,.19.74,7.33,7.33,0,0,1,1.65.52,4.74,4.74,0,0,1,.88.66,1.77,1.77,0,0,0,1.46.6,2.37,2.37,0,0,0,1-.74L26.69,42l.47-.55A4.76,4.76,0,0,0,28,40.27a3.59,3.59,0,0,0,.46-2A9.25,9.25,0,0,0,27.77,36a14.27,14.27,0,0,1-.86-2.73,1.94,1.94,0,0,0-.57-1.2,2.22,2.22,0,0,0-.73-.38h0l-.32.32c-.38.38-.65.56-.8.54s-.36-.34-.51-.95a10.46,10.46,0,0,1-.33-2.17,28.5,28.5,0,0,1,0-3.4,10.22,10.22,0,0,1,.17-1.66c.09-.46.22-.71.41-.75a.54.54,0,0,1,.43.1,1.91,1.91,0,0,1,.46.44,3.62,3.62,0,0,0-1-1.41c-.19-.19-.26-.31-.2-.34s.19,0,.38.14a3.14,3.14,0,0,1,.76.69c.3-.7.62-1.4,1-2.11a12.53,12.53,0,0,1,1.78-2.84c.07-.09.07-.2,0-.34Zm-.46-.82a1.29,1.29,0,0,1,.82.57A.93.93,0,0,1,28,19a12.41,12.41,0,0,0-1.61,2.5c-.42.78-.79,1.51-1.09,2.2a8.73,8.73,0,0,1,.59,1.91,2.3,2.3,0,0,0,.57.55l.87.62.82.6.77.63.52.57a2.47,2.47,0,0,1,.25,1.12,2.32,2.32,0,0,1-.13.7l-.19.7-.1,1.13,0,.4a1.35,1.35,0,0,1,.31.51,2.08,2.08,0,0,1,.13.63,3.87,3.87,0,0,1-.5,1.69l-.69,1.16A4.84,4.84,0,0,1,29,38.2v.33a3.87,3.87,0,0,1-.63,2l-.87,1.16c-.73.89-1.25,1.49-1.59,1.82a2.12,2.12,0,0,1-1.3.79,2.84,2.84,0,0,1-1.23-.61,12.74,12.74,0,0,0-1.13-.77,8.92,8.92,0,0,0-1.39-.45l-1-.25a2.79,2.79,0,0,0-.78.62,5.6,5.6,0,0,1-1.33,1.07c-.31.08-.68-.25-1.12-1a7.68,7.68,0,0,1-.87-2.37,10.31,10.31,0,0,0-1.77-.8c-1-.39-1.61-.64-2-.76a1.7,1.7,0,0,1-.6-.38,1.94,1.94,0,0,1-.51-.62,2.81,2.81,0,0,0-1.31-.39l-.08.1a1.83,1.83,0,0,1-1,.81l-1-.07A7.43,7.43,0,0,1,5,36a19,19,0,0,1-2-3.55,1.38,1.38,0,0,1-.89-.13A4.1,4.1,0,0,1,.83,30.63,5,5,0,0,1,0,28.47v-.14c0-.28.34-.59.9-.94.1-.07.68-.4,1.72-1l.78-.46a3.41,3.41,0,0,0,.79-1.11l.62-1.32-.18-.71a2.15,2.15,0,0,0-.38-.72l-.43-.36a12.52,12.52,0,0,1-1.18-1.16,4.18,4.18,0,0,1-.77-1,1.86,1.86,0,0,1,.27-1.05,1.87,1.87,0,0,1,.72-.91c.39-.16.92,0,1.58.52a15.77,15.77,0,0,0,2.42,1.5,10.47,10.47,0,0,0,2.33.88l1.91-1.06a11.59,11.59,0,0,1,4.16-1,9.69,9.69,0,0,1,2.92.33,21.55,21.55,0,0,1,2.89,1c.24.1,1.35-.42,3.32-1.54q1.38-.76,1.68-.9a1.9,1.9,0,0,1,1.24-.12Z"/><path class="cls-7" d="M27,38.47a1,1,0,0,0-.09-.49,2.91,2.91,0,0,0-.32-.58c0,.57.06,1.18.13,1.82a2.52,2.52,0,0,0,.28-.75Zm-.22-2.07-.11.15-.08.53a2.26,2.26,0,0,1,.48.7,1.29,1.29,0,0,1,.14.73,3.22,3.22,0,0,1-.42,1.16v.26c0,.09,0,.14.07.15s.2-.27.4-.82A4.61,4.61,0,0,0,27.62,38v-.09a2.24,2.24,0,0,0-.19-.86,1.77,1.77,0,0,0-.44-.62q-.1-.1-.18-.06Zm-.44,2.26-.08-1.45c0-.71.11-1.1.33-1.18l.27,0a1.29,1.29,0,0,1,.33.17,2.14,2.14,0,0,1,.55.84,2.3,2.3,0,0,1,.21,1.1,3.53,3.53,0,0,1-.4,1.22,2.07,2.07,0,0,1-.64.91l-.21,0c-.16-.1-.28-.64-.36-1.61Z"/></g></g></svg>