<svg xmlns="http://www.w3.org/2000/svg" viewBox="0 0 50.69 43.62"><defs><style>.cls-1{fill:#d7a400;}.cls-1,.cls-10,.cls-11,.cls-12,.cls-2,.cls-3,.cls-4,.cls-5,.cls-6,.cls-7,.cls-8,.cls-9{fill-rule:evenodd;}.cls-2{fill:#b08600;}.cls-3{fill:#a4725d;}.cls-4{fill:#815847;}.cls-5{fill:#c8c9ca;}.cls-6{fill:#eeeeef;}.cls-7{fill:#c6dcdb;}.cls-8{fill:#a7bab9;}.cls-9{fill:#e4eeee;}.cls-10{fill:#0d131a;}.cls-11{fill:#fff;}.cls-12{fill:#dbdcdc;}</style></defs><title>Asset 98@</title><g id="Layer_2" data-name="Layer 2"><g id="Layer_1-2" data-name="Layer 1"><path class="cls-1" d="M18.26,15.81,20.12,17a10.79,10.79,0,0,0-2,1.84l-1.55,1.71c-.11.11-.24.06-.39-.16a2.61,2.61,0,0,1-.36-.8,2.77,2.77,0,0,1-.15-.91c0-.29.1-.45.26-.46.31,0,.77-.39,1.39-1.11a5.85,5.85,0,0,0,1-1.28Z"/><path class="cls-2" d="M20.12,17a10.41,10.41,0,0,0-1.9,1.72,3.91,3.91,0,0,0,.28-1.33,1.9,1.9,0,0,0-.44-1.24l.2-.32L20.12,17Z"/><path class="cls-1" d="M26.08,28.94c-.5.47-1,.34-1.43-.36a6.12,6.12,0,0,1-.4-.81l-.14-.4a4.19,4.19,0,0,0,1.32-.4,3.65,3.65,0,0,0,1.4-.9,1.09,1.09,0,0,1,.46-.37l.65,0a2.39,2.39,0,0,1,1,.74c.38.43.48.8.29,1.08a.78.78,0,0,1-.43.22L28,28a4.43,4.43,0,0,0-1.93,1Z"/><path class="cls-1" d="M37.67,28.7a6.3,6.3,0,0,0-2.1-1.54,2.34,2.34,0,0,0-1.22-.27l1.51-2.27a2.49,2.49,0,0,0,1,1.16,6,6,0,0,0,3.06.82c.7,0,1.07.23,1.12.61a1.34,1.34,0,0,1-.57,1.1,3,3,0,0,1-1.4.77,1.41,1.41,0,0,1-1.42-.38Z"/><path class="cls-2" d="M28.19,25.9a2.63,2.63,0,0,1,.87.68c.31.37.37.69.18,1a.78.78,0,0,1-.43.22L28,28a4.43,4.43,0,0,0-1.93,1,.72.72,0,0,1-.85.21,1.67,1.67,0,0,1-.63-.66,9,9,0,0,0,2.18-1c.66-.45.87-.86.63-1.24s-.22-.56,0-.57a1.73,1.73,0,0,1,.76.23Z"/><path class="cls-2" d="M35.86,24.62a2.25,2.25,0,0,0,.55.7,4.4,4.4,0,0,0,1.09.79,1,1,0,0,0,.27,1.45A7.46,7.46,0,0,0,40,28.68a2.47,2.47,0,0,1-1.22.43,1.36,1.36,0,0,1-1.12-.41,6.3,6.3,0,0,0-2.1-1.54,2.34,2.34,0,0,0-1.22-.27l1.51-2.27Z"/><path class="cls-1" d="M27,25.32a1.49,1.49,0,0,1,.2-1,2.53,2.53,0,0,1,.68-1l6.88-1.33.55.25c.38.19.58.34.61.44l.34,1.09c.15.62.12,1-.11,1.07s-.56.71-.94,1.79a4.48,4.48,0,0,1-1,2,4.78,4.78,0,0,1-2.75.57c-1.28,0-1.94-.27-2-.74a3.68,3.68,0,0,0-1.18-1.79A11.35,11.35,0,0,1,27,25.32Z"/><path class="cls-2" d="M30.69,25.29q-.12-.55,0-.51a4.72,4.72,0,0,0,1.94-.54,15.71,15.71,0,0,0,1.94-.89.39.39,0,0,0,.17-.54,6.56,6.56,0,0,1-.29-.82l.28,0,.55.25c.38.19.58.34.61.44l.34,1.09c.15.62.12,1-.11,1.07s-.56.71-.94,1.79a4.48,4.48,0,0,1-1,2,3.73,3.73,0,0,1-1.63.5,6.42,6.42,0,0,1-2,0c.54-.26.68-1.08.41-2.46l-.3-1.33Z"/><path class="cls-3" d="M21.26,10.85a25.81,25.81,0,0,1,1.48,3.36c1.05,3.09.26,4-2.39,2.82a6.71,6.71,0,0,1-3.08-2.45A3.14,3.14,0,0,1,16.9,12a3.86,3.86,0,0,1,1.36-2,3.31,3.31,0,0,1,2.11-.82l.89,1.63Z"/><path class="cls-3" d="M24.59,20.83a4.1,4.1,0,0,1-1.26-1.75c-.74-1.5-.39-2.9,1.05-4.18a10.7,10.7,0,0,1,5.29-2.33,9.52,9.52,0,0,1,5.68.42,3.53,3.53,0,0,1,2.21,4,2.78,2.78,0,0,1-.73,1.67,8.2,8.2,0,0,0-.85.65,3.76,3.76,0,0,0-.7.91,4.39,4.39,0,0,0-.41,2.07A6.8,6.8,0,0,1,31,23.65l-2,.09c-.58,0-.9-.13-1-.29a4.7,4.7,0,0,0-1-1.41l-.67-.57c-1-.31-1.58-.52-1.83-.64Z"/><path class="cls-4" d="M23.76,19.89c-.16-.29-.31-.56-.43-.81-.74-1.5-.39-2.9,1.05-4.18a10.7,10.7,0,0,1,5.29-2.33,9.52,9.52,0,0,1,5.68.42,3.53,3.53,0,0,1,2.21,4,2.78,2.78,0,0,1-.73,1.67,8.2,8.2,0,0,0-.85.65,3.76,3.76,0,0,0-.7.91,4.39,4.39,0,0,0-.41,2.07l-.25.22a2.15,2.15,0,0,1-.75.46,20.22,20.22,0,0,0-1.39-2,3.9,3.9,0,0,0-1.71-1.33A15.25,15.25,0,0,0,27,19.24c-1.89-.06-2.95.15-3.19.65Z"/><path class="cls-3" d="M38.58,10.14a3.21,3.21,0,0,1,1,1.36,2.43,2.43,0,0,1,.2,1.25,14,14,0,0,1-.57,2.43A3.74,3.74,0,0,1,38,17.13a7.49,7.49,0,0,1-2.81.61l-2.59.13c-.32,0-.72-.37-1.22-1.12a5.35,5.35,0,0,1-.73-1.39,3.52,3.52,0,0,1-.85-2.06Q29.67,11,33.1,9.87c2.4-.8,4.22-.71,5.48.27Z"/><path class="cls-4" d="M33.1,9.87A10.41,10.41,0,0,1,35,9.42a3.76,3.76,0,0,0-.75,2.32,1.73,1.73,0,0,0,.16.94.43.43,0,0,0,.62.16,9.11,9.11,0,0,0,1-.57,11.56,11.56,0,0,1,1.14-.65,2.49,2.49,0,0,1,2.55,0,2.56,2.56,0,0,1,.14,1.09l-.07.62a5,5,0,0,1-.12.71,8.25,8.25,0,0,1-.62,1.8,2.91,2.91,0,0,1-1,1.25,7.49,7.49,0,0,1-2.81.61l-2.59.13c-.32,0-.72-.37-1.22-1.12a5.35,5.35,0,0,1-.73-1.39,3.52,3.52,0,0,1-.85-2.06Q29.67,11,33.1,9.87Z"/><path class="cls-5" d="M28.46,35.26a2.34,2.34,0,0,1,.8.4c.37.25.5.43.37.54a1.77,1.77,0,0,1-.94.28l-.23-1.22Z"/><path class="cls-1" d="M20.6,36.46a4.3,4.3,0,0,0,1.16-1.17,5.4,5.4,0,0,0-.27-1.63l-.44-1.75a2,2,0,0,1,0-.68l.07-.2.79-.37A17.68,17.68,0,0,1,23.65,30q2.57-.82,2.67.33a19.1,19.1,0,0,0,.28,2.05,2.47,2.47,0,0,0,.54,1.1c.18.2.58.58,1.21,1.15s.76.85.69,1a5.42,5.42,0,0,0-.23.8.79.79,0,0,1-.41.49,13.3,13.3,0,0,0-1.23.83,7.47,7.47,0,0,0-1.1.92l-.78,1.41c-.4.73-.7,1.1-.91,1.1l-1.18-.11c-.54-.12-.84-.32-.92-.6a2.26,2.26,0,0,1,0-.87l.1-.41-.36,0a1.18,1.18,0,0,0-.57.19,2.61,2.61,0,0,1-.77.42q-.59.21-.81-.06a3.23,3.23,0,0,1-.5-1.19c-.15-.59-.16-1,0-1.09l1.3-1Z"/><path class="cls-1" d="M44.09,29.92A3.17,3.17,0,0,1,44.58,31a16.25,16.25,0,0,1,.5,2,4.09,4.09,0,0,0,.56,1.59,2.28,2.28,0,0,0,1.3.68,7.31,7.31,0,0,1,1.41.42,1.78,1.78,0,0,1,.75.69,2.18,2.18,0,0,1,.17,1.41c-.06.6-.18,1-.35,1.09a1.61,1.61,0,0,1-.63.31l-.76,0-1.46-.37a4.45,4.45,0,0,0-1.64-.15l.62,1.07a2.31,2.31,0,0,1,.09,1.2,1.78,1.78,0,0,1-.53,1.17,1.91,1.91,0,0,1-1.46.18,2.58,2.58,0,0,1-1.5-.77,2.23,2.23,0,0,1-.54-1.16,4.52,4.52,0,0,0-.85-1.56,16.28,16.28,0,0,0-1.07-1.35A3.82,3.82,0,0,1,39,35.56a15.69,15.69,0,0,0,0-2.37,13.86,13.86,0,0,0-.4-1.59,2.48,2.48,0,0,1-.18-1l5.6-.71Z"/><path class="cls-2" d="M20.71,39.81a.91.91,0,0,1-.8,0,2.8,2.8,0,0,0,.46-.9,1.29,1.29,0,0,1,.64-.81l1.41-.45c.6-.16.86-.19.77-.07l-.48.73-.52.85a1.45,1.45,0,0,0-.78.22,2.49,2.49,0,0,1-.7.39Z"/><path class="cls-2" d="M21,31.36l.08-.33.79-.37A17.68,17.68,0,0,1,23.65,30q2.57-.82,2.67.33a19.1,19.1,0,0,0,.28,2.05,2.47,2.47,0,0,0,.54,1.1c.18.2.58.58,1.21,1.15s.76.85.69,1a5.42,5.42,0,0,0-.23.8.79.79,0,0,1-.41.49l-.65.36-.73.45a2.09,2.09,0,0,0,0-1,1.19,1.19,0,0,0-.4-.5A4.57,4.57,0,0,1,25.3,34a2.9,2.9,0,0,0-1.76-2,3.07,3.07,0,0,0-2.48.07,1.73,1.73,0,0,1,0-.69Z"/><path class="cls-2" d="M44.09,29.92A3.17,3.17,0,0,1,44.58,31a16.25,16.25,0,0,1,.5,2,4.93,4.93,0,0,0,.32,1.17,2.89,2.89,0,0,1-1.4-.94,2.86,2.86,0,0,0-1.16-.93,6.09,6.09,0,0,0-2-.78c-.77-.11-1.41.38-1.94,1.46l-.28-1.25a5.61,5.61,0,0,1-.18-1.06l5.6-.71Z"/><path class="cls-2" d="M44.27,36.92l1.94.1c.77.09,1.16.23,1.16.42a2,2,0,0,0,.16,1c.22.39.69.53,1.41.43l0,0a1.61,1.61,0,0,1-.63.31l-.76,0-1.46-.37a4.45,4.45,0,0,0-1.64-.15l.62,1.07a2.31,2.31,0,0,1,.09,1.2c-.06.39-.23.44-.51.16s-.41-.51-.36-.64a1.26,1.26,0,0,0-.08-.72l-.32-1.12c-.26-1-.12-1.57.4-1.7Z"/><path class="cls-6" d="M20.21,38.61c.32.59.41.94.26,1a9.48,9.48,0,0,1-2.27.81,5.91,5.91,0,0,1,.37-1.64,1.55,1.55,0,0,1,.79-1c.25-.08.53.17.85.76Z"/><path class="cls-5" d="M19.15,40.19a4.25,4.25,0,0,1,1.13-1.45,2.82,2.82,0,0,1,.22.58c0,.18,0,.29,0,.34a5.8,5.8,0,0,1-1.32.53Z"/><path class="cls-6" d="M22.74,39.66c.23-.2.52-.07.85.4a2.57,2.57,0,0,1,.5,1c0,.17-.22.42-.74.76l-1.13.7a3.17,3.17,0,0,1,0-1.81,2.28,2.28,0,0,1,.53-1.1Z"/><path class="cls-5" d="M24.09,41.11c0,.19-.28.48-.92.88a4.21,4.21,0,0,1,.59-1.67,3,3,0,0,1,.33.79Z"/><path class="cls-6" d="M44,40.19a2.08,2.08,0,0,1,1.18,1.71,1.71,1.71,0,0,1-.31,1.49,5.74,5.74,0,0,0-.89-.66c-.35-.23-.69-.44-1-.62-.12-.07-.17-.23-.14-.47a2.34,2.34,0,0,1,.24-.72c.34-.64.65-.88.95-.73Z"/><path class="cls-5" d="M44.34,40.42a2.11,2.11,0,0,1,.77,1.25,2.55,2.55,0,0,1,0,1.26q-.09-.39-.39-1.26a7.79,7.79,0,0,1-.36-1.25Z"/><path class="cls-6" d="M49,36.57c.24.08.56.43,1,1a2.14,2.14,0,0,1,.49,1.7,5.84,5.84,0,0,0-.86-.26l-1.3-.27c-.52-.1-.6-.51-.23-1.24a3.08,3.08,0,0,1,.49-.71c.2-.2.35-.29.45-.26Z"/><path class="cls-3" d="M20.12,28.93a3.43,3.43,0,0,1,1.09-1.8,3.56,3.56,0,0,1,2-1.17c.18,0,.4.2.65.66a8.25,8.25,0,0,0,.7,1.14,4.55,4.55,0,0,0,1,.86,1.5,1.5,0,0,0,.94.31,1.08,1.08,0,0,1,.16.88.8.8,0,0,1-.28.52,1.37,1.37,0,0,0-.32-.16,1.14,1.14,0,0,0-.38-.07,3.42,3.42,0,0,0-1.49.53,3.44,3.44,0,0,0-1.19.92l-.4.64c-.13.11-.35,0-.65-.28a11.61,11.61,0,0,1-1.21-1.38,2.45,2.45,0,0,1-.6-1.6Z"/><path class="cls-4" d="M26.48,28.93a1.08,1.08,0,0,1,.16.88.8.8,0,0,1-.28.52,1.37,1.37,0,0,0-.32-.16,1.14,1.14,0,0,0-.38-.07,3.42,3.42,0,0,0-1.49.53,3.44,3.44,0,0,0-1.19.92.46.46,0,0,1-.27.23q-.16,0-.27-.18a2.77,2.77,0,0,1-.22-.78,3.77,3.77,0,0,1,0-1,2.25,2.25,0,0,1,1.26-1.64,4.13,4.13,0,0,1,1.12-.44,4.55,4.55,0,0,0,1,.86,1.5,1.5,0,0,0,.94.31Z"/><path class="cls-3" d="M42.8,26.25A2.66,2.66,0,0,1,44.24,28a4.55,4.55,0,0,1,.14,1.65,5,5,0,0,1-.7,1.63c-.44.79-.71,1.1-.82.93a3.78,3.78,0,0,0-1.35-.87,3.9,3.9,0,0,0-2-.52,1.5,1.5,0,0,1-1.33-.7,1.8,1.8,0,0,1-.48-1.29,1.88,1.88,0,0,0,.49-.59l.57-1a3.28,3.28,0,0,1,1.76-1.59,1.83,1.83,0,0,1,.87,0,7.85,7.85,0,0,1,1.38.52Z"/><path class="cls-4" d="M42.8,26.25A2.66,2.66,0,0,1,44.24,28a4.55,4.55,0,0,1,.14,1.65,5,5,0,0,1-.7,1.63c-.44.79-.71,1.1-.82.93a2.88,2.88,0,0,0-.94-.66,7.06,7.06,0,0,0-1.6-.66,4.46,4.46,0,0,0,1.07-.34,1.89,1.89,0,0,0,.8-.94,2.86,2.86,0,0,0-.11-2,4.11,4.11,0,0,0-1.25-2,4.74,4.74,0,0,1,2,.58Z"/><path class="cls-2" d="M39.87,15.1a5.83,5.83,0,0,0-.35.89,6.38,6.38,0,0,1-.43,1c-.43.74-1,.76-1.65.07a7.06,7.06,0,0,1-.74-.88c-.26-.37-.36-.62-.31-.75l.45-1.15c.36-.74.71-1,1-.89l1.47.67c.55.32.72.66.52,1Z"/><path class="cls-3" d="M9.22,17.25a1.42,1.42,0,0,1,1.22-.1,5.81,5.81,0,0,0,2,.31,23.39,23.39,0,0,0,2.37,0,1.94,1.94,0,0,1,1.33.53,2.35,2.35,0,0,1,.68,1.14,2.7,2.7,0,0,1,.05,1.29,1.46,1.46,0,0,1-.54.94,11.52,11.52,0,0,1-1.91.59,15.74,15.74,0,0,0-2.08.64,6.46,6.46,0,0,1-1.94.59,1.4,1.4,0,0,1-1.6-.88L8.35,18a1.71,1.71,0,0,1,.87-.72Z"/><path class="cls-4" d="M8.35,18a.91.91,0,0,1,.28-.33,2.29,2.29,0,0,1,.47-.32c.83-.16,1.46.4,1.87,1.68a7.22,7.22,0,0,1,.29,1.47,3.09,3.09,0,0,1,0,1c-.07.29,0,.48.14.55a.53.53,0,0,0,.41,0l.82-.25c.5-.15,1-.29,1.58-.43L15.56,21a6,6,0,0,0,1.19-.36,1.45,1.45,0,0,1-.47.68,11.52,11.52,0,0,1-1.91.59,15.74,15.74,0,0,0-2.08.64,6.46,6.46,0,0,1-1.94.59,1.4,1.4,0,0,1-1.6-.88L8.35,18Z"/><path class="cls-1" d="M7,16.46a3.67,3.67,0,0,1,.86,1,3.72,3.72,0,0,0,1,.89,2.16,2.16,0,0,0,1,.44c.33.12.56.57.68,1.36a2.15,2.15,0,0,1-.15,1.56l-2.14.65c-.84.25-1.33.4-1.46.46l-1.6-6.28A1.82,1.82,0,0,1,7,16.46Z"/><path class="cls-2" d="M8,20.22a1.55,1.55,0,0,0,1.76,0,1.33,1.33,0,0,0,.53-.78,3.94,3.94,0,0,1,.22,1.28,1.7,1.7,0,0,1-.2,1l-2.14.65c-.84.25-1.33.4-1.46.46L6,19.92c.07,0,.31-.06.72-.28s.65-.31.72-.28a1.58,1.58,0,0,0,.59.86Z"/><path class="cls-7" d="M.39,12.59a5,5,0,0,1,0-2.85A2.22,2.22,0,0,1,1.76,8.12a2.37,2.37,0,0,1,2.3.56,3.69,3.69,0,0,1,1.35,2,5.66,5.66,0,0,1,0,2.92l-.29.87a2.19,2.19,0,0,0-.12.84,33.54,33.54,0,0,0,.88,4.19A32.07,32.07,0,0,0,7,23.33a4.7,4.7,0,0,0,.67,1,2,2,0,0,1,.44.73c.05.23-.23.37-.86.4A3.44,3.44,0,0,1,6,25.37c-.2-.07-.34-.38-.41-.93,0-.24-.07-.87-.11-1.86a18.64,18.64,0,0,0-.75-3.48,23.21,23.21,0,0,0-1.06-3.17A1.79,1.79,0,0,0,3,15.29l-.95-.58A3.7,3.7,0,0,1,.39,12.59Z"/><path class="cls-8" d="M2.36,11.06a3,3,0,0,1,1-1.37,1.09,1.09,0,0,1,1.15-.13,1.51,1.51,0,0,1,.88,1.16,5.66,5.66,0,0,1,0,2.92l-.29.87a2.19,2.19,0,0,0-.12.84,33.54,33.54,0,0,0,.88,4.19A32.07,32.07,0,0,0,7,23.33a4.7,4.7,0,0,0,.67,1,2,2,0,0,1,.44.73c0,.18-.13.3-.52.37a2.83,2.83,0,0,0-2.07-1.15c0-.27-.06-.85-.09-1.73A14.36,14.36,0,0,0,4.93,20C4.66,19,4.36,18,4,17a1.88,1.88,0,0,0-.38-2l-.73-.91a3.31,3.31,0,0,1-.55-.94,2.82,2.82,0,0,1,0-2.08Z"/><path class="cls-1" d="M2.51,18.32a1.27,1.27,0,0,1,.58-.8A4.76,4.76,0,0,1,4,17l.48,1.38.8.14c.43.08.69.53.79,1.35a2.41,2.41,0,0,1,0,.81c0,.23-.13.33-.25.28s-.62-.17-1.38-.34S3.14,20.3,3,20.24s-.38-.34-.45-.8a5.15,5.15,0,0,1,0-1.12Z"/><path class="cls-2" d="M4.4,20.6c-.78-.18-1.26-.3-1.42-.36a.52.52,0,0,1-.31-.31h.86l.83,0a1.47,1.47,0,0,0,1.16-1.29A1.86,1.86,0,0,1,6.06,20a2,2,0,0,1,0,.68c0,.19-.13.26-.23.22s-.62-.17-1.38-.34Z"/><path class="cls-1" d="M4.38,23.8a.55.55,0,0,1-.5-.33,1.91,1.91,0,0,1-.14-.78,1.29,1.29,0,0,1,.5-.86,3.41,3.41,0,0,1,.9-.59l.24.87a3.63,3.63,0,0,1,1.22-.24,2.69,2.69,0,0,1,1.22.24c.37.17.47.49.31.95a1,1,0,0,1-.83.74c-.31,0-.84,0-1.57,0l-1.35,0Z"/><path class="cls-2" d="M4.38,23.8A.52.52,0,0,1,4,23.68a5.48,5.48,0,0,0,1.59-.5A.91.91,0,0,0,6,22l1.2,0a2.2,2.2,0,0,1,.62.19c.37.17.47.49.31.95a1,1,0,0,1-.83.74c-.31,0-.84,0-1.57,0l-1.35,0Z"/><path class="cls-1" d="M6.07,16.86H6.2a.81.81,0,0,1,.31.06,1.2,1.2,0,0,1,.61.94L7.36,19a4.5,4.5,0,0,1-.12,1.11,1.08,1.08,0,0,1-.72.92,2.18,2.18,0,0,1-.86,0c-.17,0-.28-.32-.33-.88L5.25,18.5a2.24,2.24,0,0,1,.11-1.06,1.64,1.64,0,0,1,.71-.58Z"/><path class="cls-2" d="M7.12,18l.2.95a3.62,3.62,0,0,1-.08,1.14,1.08,1.08,0,0,1-.72.92,2.18,2.18,0,0,1-.86,0c-.16,0-.27-.28-.32-.77.37.27.74.14,1.11-.38A4,4,0,0,0,7.12,18Z"/><path class="cls-9" d="M1.47,11.81A.51.51,0,0,1,1,11.46a1.71,1.71,0,0,1-.11-.91,2.07,2.07,0,0,1,.25-.87c.15-.27.32-.39.52-.37s.38.18.48.46a2.67,2.67,0,0,1,.09.86A1.64,1.64,0,0,1,2,11.5a.64.64,0,0,1-.56.31Z"/><path class="cls-10" d="M16.38,18.17l-.12-.12L16.13,18a3.32,3.32,0,0,0,1.2-1,6.93,6.93,0,0,0,.82-1.29l.25.21a5.8,5.8,0,0,1-.73,1,6,6,0,0,1-1.29,1.27Z"/><path class="cls-10" d="M20.34,17a8.71,8.71,0,0,0-1.71,1.37A17.75,17.75,0,0,0,17,20.26l0-.49c.49-.56,1-1.1,1.55-1.62a9.36,9.36,0,0,1,1.58-1.3l.29.12Z"/><path class="cls-10" d="M16.68,12.26a3.82,3.82,0,0,1,1.38-2.19,3.55,3.55,0,0,1,2.31-.91v.21a3.11,3.11,0,0,0-2.08.87,3.73,3.73,0,0,0-1.23,2.06,3.13,3.13,0,0,0,.59,2.57,6.76,6.76,0,0,0,2.76,2l0,.16a6.45,6.45,0,0,1-3.17-2.31,3.2,3.2,0,0,1-.52-2.49Z"/><path class="cls-10" d="M24,41.15v0a2,2,0,0,0-.33-.78q-.33-.57-.6-.66a.23.23,0,0,0-.25,0,2.57,2.57,0,0,0-.55,1.51c-.11.74-.1,1.14,0,1.18s.41-.15.93-.53.78-.63.78-.74Zm5-4.89,0,.08a1.08,1.08,0,0,0,.57-.22l0,0a.94.94,0,0,0-.39-.46v0a4.14,4.14,0,0,0-.17.58Zm-2.49-6.72a.89.89,0,0,0-.13-.46,2,2,0,0,1-1-.29,4.57,4.57,0,0,1-1-.86,2.41,2.41,0,0,1-.3-.47l-.25-.53-.32-.56c-.13-.19-.23-.27-.31-.27a3.51,3.51,0,0,0-1.93,1.16,3.27,3.27,0,0,0-1,1.69A3,3,0,0,0,21.16,31a4.8,4.8,0,0,0,.76.79c.25.21.43.3.54.28s.14-.08.22-.2l.26-.41a3.46,3.46,0,0,1,1.95-1.41,2.68,2.68,0,0,1,.92-.14.67.67,0,0,1,.53.21,1,1,0,0,0,.16-.41l0-.19ZM19.28,40.08a5.23,5.23,0,0,0,1.13-.5c.16-.15.09-.48-.2-1s-.56-.73-.82-.65-.6.51-.86,1.21-.32,1.07-.22,1.19a2.85,2.85,0,0,0,1-.26ZM20,37.13a3.09,3.09,0,0,0-.51.4.4.4,0,0,0-.13.22c.37-.08.7.13,1,.65a1.56,1.56,0,0,1,.29,1.2l-.1.18.3-.16a4.58,4.58,0,0,0,.48-.31,1.49,1.49,0,0,1,.89-.26,2.74,2.74,0,0,1,.64-1.14.93.93,0,0,1,.35-.29c.08,0,0,.12-.21.41a2.89,2.89,0,0,0-.48,1,4.38,4.38,0,0,0-.14,1.05,1.65,1.65,0,0,1,.31-.47.41.41,0,0,1,.44-.08,1.58,1.58,0,0,1,.69.69,3.39,3.39,0,0,1,.43.95.34.34,0,0,0,.25,0l.25-.2a10.37,10.37,0,0,0,.69-1.33,4.32,4.32,0,0,1,.8-1.3,10.16,10.16,0,0,1,1-.79,9.76,9.76,0,0,1,1.08-.7.63.63,0,0,0,.28-.25l.11-.34.11-.37a.87.87,0,0,0,0-.4,6.07,6.07,0,0,0-.89-.94l-1-.91a4.14,4.14,0,0,1-.62-2.18A1.64,1.64,0,0,0,26,30.33a.61.61,0,0,0-.41-.13,3,3,0,0,0-1.43.47,2.68,2.68,0,0,0-1.08,1c-.22.4-.42.62-.61.64a1,1,0,0,1-.62-.25,3.12,3.12,0,0,1-.7-.66,4.41,4.41,0,0,0,.27,1.48c.18.59.31,1.13.41,1.62a2.74,2.74,0,0,1,.07,1c-.07.3-.72.87-1.92,1.7ZM20.16,30a1.82,1.82,0,0,1-.27-1.06A3.54,3.54,0,0,1,21.19,27a3.64,3.64,0,0,1,2.1-1.15c.19,0,.42.22.68.67l.39.78a4.85,4.85,0,0,0,2-1l.46-.45a1.27,1.27,0,0,1,.34-.29l.08.11.1.11-.42.41a3.92,3.92,0,0,1-1.21.85,5.35,5.35,0,0,1-1.26.47,2.66,2.66,0,0,0,.67.79,3,3,0,0,0,.95.5,7.76,7.76,0,0,1,2.51-1.1,1.47,1.47,0,0,0,.48-.16l.18.32-.59.12c-.36.09-.65.17-.87.25a7,7,0,0,0-1.23.61,1.33,1.33,0,0,1,.2.88,1,1,0,0,1-.3.72l.17,1.27a5.14,5.14,0,0,0,.48,1.62,6.5,6.5,0,0,0,1,1,7.67,7.67,0,0,1,1,1,1.78,1.78,0,0,1,.47.45c.13.2.2.32.19.39s-.1.17-.28.27a2.5,2.5,0,0,1-.62.23.93.93,0,0,1-.42.45,9.64,9.64,0,0,0-1.31.8,5.45,5.45,0,0,0-1,.82,3.84,3.84,0,0,0-.47.85l-.35.87a1.36,1.36,0,0,1-1.21,1,4.19,4.19,0,0,1-1,.8q-.77.52-1,.45c-.17-.07-.25-.36-.24-.88a5.46,5.46,0,0,1,.16-1.24,2.15,2.15,0,0,1-.07-.6,2.51,2.51,0,0,1,.07-.62l-.37.09a1.05,1.05,0,0,0-.32.16,2.75,2.75,0,0,1-.6.38A1,1,0,0,1,20,40a11.18,11.18,0,0,1-1.56.61c-.3.07-.45,0-.44-.31a3.88,3.88,0,0,1,.33-1.37,2.58,2.58,0,0,1,.63-1,.79.79,0,0,1,.05-.3.66.66,0,0,1,.12-.22,15.17,15.17,0,0,1,1.5-1.09c.64-.43,1-.75,1-1a6.62,6.62,0,0,0-.37-1.83l-.47-1.66a1.36,1.36,0,0,1,0-.78A6.14,6.14,0,0,1,20.16,30Z"/><path class="cls-10" d="M43.93,40.27c-.11-.06-.25,0-.41.14a1.82,1.82,0,0,0-.41.54,1.93,1.93,0,0,0-.25.82c0,.13,0,.22.11.25s.36.23.68.45l0,0a10.4,10.4,0,0,0,1.16.76c.06,0,.11-.12.17-.34a3,3,0,0,0,.08-.65l0-.42a2,2,0,0,0-1.12-1.57Zm5-3.61c-.05,0-.14,0-.28.18a2.58,2.58,0,0,0-.49.66,1.62,1.62,0,0,0-.24.75l0,.16a.39.39,0,0,0,.34.28l.49.1,1.57.39s0-.08,0-.29a4.23,4.23,0,0,0-.23-.72A2.92,2.92,0,0,0,49,36.66Zm-4.68-6.18a10.21,10.21,0,0,1-.49,1,4.8,4.8,0,0,1-.45.7L43,32.5c-.07,0-.2-.06-.4-.22a6.7,6.7,0,0,0-1.3-.8A3.47,3.47,0,0,0,39.55,31a1.46,1.46,0,0,1-.86-.21q-.07.11.15.87a13,13,0,0,1,.38,1.51,11.7,11.7,0,0,1,0,2c0,.64-.05,1.1,0,1.37a2.54,2.54,0,0,0,.13.81l1,1.29a4.58,4.58,0,0,1,1,1.7A2.07,2.07,0,0,0,42.72,42a1.38,1.38,0,0,1-.09-.52,1.47,1.47,0,0,1,.16-.63,2.32,2.32,0,0,1,.55-.68c.27-.22.48-.28.66-.19a2.12,2.12,0,0,1,1,1l0-.09a2.29,2.29,0,0,0,0-1,3.88,3.88,0,0,0-.39-.75,3.09,3.09,0,0,1-.37-.55A1.82,1.82,0,0,1,44,37.45c.11-.52.2-.54.27-.07l.06.56a1.77,1.77,0,0,0,.19.56,4,4,0,0,1,1.2.1c.38.07.91.2,1.57.38l.28.07.68,0-.13,0a.67.67,0,0,1-.31-.19.73.73,0,0,1-.16-.26,1.44,1.44,0,0,1,.16-.94,2.94,2.94,0,0,1,.58-.87,1,1,0,0,1,.36-.23l.15-.05a1.4,1.4,0,0,0-.61-.64,6.18,6.18,0,0,0-1.37-.43,2.35,2.35,0,0,1-1.39-.73A4.16,4.16,0,0,1,44.93,33a12,12,0,0,0-.66-2.5Zm-.59.53a4.37,4.37,0,0,0,.55-1.33l0-.43A4.08,4.08,0,0,0,44,27.76a2.36,2.36,0,0,0-1.25-1.37,6.86,6.86,0,0,0-1.3-.5l-.86,0a2.43,2.43,0,0,0-1.17.84A8.69,8.69,0,0,0,38.59,28l-.37.6a1.74,1.74,0,0,1-.34.39l.07.42a2.22,2.22,0,0,0,.54.9,1.24,1.24,0,0,0,1,.45,4,4,0,0,1,1.95.49,4.48,4.48,0,0,1,1.47.92A3.82,3.82,0,0,0,43.68,31Zm-.77-4.89a3,3,0,0,1,1.63,2,5.45,5.45,0,0,1,0,1.55l-.11.41a9.77,9.77,0,0,1,.81,2.63l.14.81a2.45,2.45,0,0,0,.2.67,1.82,1.82,0,0,0,1.37.86,8,8,0,0,1,1.43.43,2,2,0,0,1,.81.74,1.14,1.14,0,0,1,.16.38A3.68,3.68,0,0,1,50.67,39c0,.2,0,.32,0,.37s-.12.07-.26.06l-.65-.13-1-.21a2.56,2.56,0,0,1-.83.3,1.87,1.87,0,0,1-.79-.09,9.77,9.77,0,0,0-1.33-.41,4.86,4.86,0,0,0-1.13-.13l.16.28a4.27,4.27,0,0,1,.36.64,2.08,2.08,0,0,1,.13.71,4.28,4.28,0,0,1,0,.55l0,.27,0,.24.08.38.06.42a2.39,2.39,0,0,1-.25,1.22c-.07.14-.2.16-.38.07a2.12,2.12,0,0,1-.4-.29,4.16,4.16,0,0,0-1.18-.85,2.64,2.64,0,0,1-1.55-.75,2.29,2.29,0,0,1-.61-1.3,4,4,0,0,0-1-1.65,7.66,7.66,0,0,1-1.08-1.43,5.7,5.7,0,0,1,0-1.44l.14-2a3.4,3.4,0,0,0-.18-1.15l-.31-.95L38.28,31c0-.21,0-.33.07-.39a1.53,1.53,0,0,1-.58-.74,1.73,1.73,0,0,1-.18-1,4.53,4.53,0,0,0-.66-.65,5.81,5.81,0,0,0-1.85-1.06l.06-.29a5.84,5.84,0,0,1,2.64,1.74l.21-.26.34-.53a10.64,10.64,0,0,1,.72-1.13A5.53,5.53,0,0,1,37,26a3,3,0,0,1-1-.91l.17-.16a2.61,2.61,0,0,0,1,.84,5.75,5.75,0,0,0,2.17.6,2.65,2.65,0,0,1,1.24-.8,3.43,3.43,0,0,1,2.4.54Z"/><path class="cls-10" d="M10.38,17.29a1.08,1.08,0,0,0-.46-.11l-.43.07a1.85,1.85,0,0,0-.65.37,1.23,1.23,0,0,0-.36.42l-.2-.13a2.41,2.41,0,0,1,.41-.57,1.59,1.59,0,0,1,.67-.46,1.52,1.52,0,0,1,1.15.06,6.06,6.06,0,0,0,1.87.33,19.17,19.17,0,0,0,2.38,0,2.22,2.22,0,0,1,1.33.48,2.41,2.41,0,0,1,.8,1.23A2.8,2.8,0,0,1,17,20.44a1.69,1.69,0,0,1-.61,1h0a5.13,5.13,0,0,1-.83.31l-1.11.3a13.77,13.77,0,0,0-2.05.7,8.4,8.4,0,0,1-1.49.55,2.31,2.31,0,0,1-1.44,0,1.54,1.54,0,0,1-.8-1l.27-.11a1.17,1.17,0,0,0,.64.7,2.24,2.24,0,0,0,1.3,0,8,8,0,0,0,1.4-.51,16.35,16.35,0,0,1,2.1-.64,10.15,10.15,0,0,0,1.86-.58,1.12,1.12,0,0,0,.39-.54,2,2,0,0,0,.14-.79,2.69,2.69,0,0,0-.11-.79,2.19,2.19,0,0,0-.5-.9,1.84,1.84,0,0,0-1.35-.61,22.13,22.13,0,0,1-2.31,0,6.15,6.15,0,0,1-2.07-.32Z"/><path class="cls-10" d="M7.66,17.47a3.1,3.1,0,0,0-.81-.84,1.75,1.75,0,0,0-1.7.06l-.07-.36a2,2,0,0,1,1.74-.11A2.48,2.48,0,0,1,8,17.36a2.74,2.74,0,0,0,.92.82,2.49,2.49,0,0,0,.94.46l-.25-.4c-.08-.1-.11-.15-.09-.17s.08,0,.16.1a3.19,3.19,0,0,1,1,2,2.18,2.18,0,0,1-.79,2.15.24.24,0,0,1-.18.06c-.05,0,0-.06,0-.15l.34-.37L9,22.31l-.84.32L8,22.32c.56-.21,1.3-.45,2.21-.74a1.94,1.94,0,0,0,.17-1.23A3.17,3.17,0,0,0,10,19a3,3,0,0,1-1.23-.58,4.17,4.17,0,0,1-1.06-.91Z"/><polygon class="cls-10" points="5.22 20.81 5.47 22.01 5.23 22.1 4.97 20.81 5.22 20.81 5.22 20.81"/><path class="cls-10" d="M3.83,8.68a2.26,2.26,0,0,0-2-.42A2.11,2.11,0,0,0,.52,9.83a4.84,4.84,0,0,0,0,2.72A3.06,3.06,0,0,0,1.4,14a6.5,6.5,0,0,0,1.2.86l.7.46a1.7,1.7,0,0,1,.46.53,24.82,24.82,0,0,1,.89,2.59H4.52l-.13,0A18.73,18.73,0,0,0,3.54,16a1.21,1.21,0,0,0-.43-.47l-.67-.42a7.49,7.49,0,0,1-1.28-.93,3.54,3.54,0,0,1-1-1.62,4.91,4.91,0,0,1,0-2.92A2.44,2.44,0,0,1,1.71,7.94,2.6,2.6,0,0,1,4,8.31a3.72,3.72,0,0,1,1.65,2.37,6.22,6.22,0,0,1,.16,2.18,7.43,7.43,0,0,1-.37,1.35l-.22.57a1.48,1.48,0,0,0-.07.57,16.05,16.05,0,0,0,.34,2l-.1.09-.08.12a16,16,0,0,1-.39-2.21,2.09,2.09,0,0,1,0-.65c0-.14.1-.34.19-.61a5.22,5.22,0,0,0,.32-1.27,6,6,0,0,0-.18-2.08A3.41,3.41,0,0,0,3.83,8.68Z"/><path class="cls-10" d="M6.37,21l.29,1L6.4,22,6.14,21A.58.58,0,0,1,6.37,21Z"/><path class="cls-10" d="M5.5,25a6,6,0,0,1-.11-1.13h.24c.07.87.19,1.35.37,1.42a3.05,3.05,0,0,0,1,.11,1.62,1.62,0,0,0,.92-.17l0-.06a.91.91,0,0,0-.15-.32l-.25-.32-.46-.6.26-.06.47.56a2,2,0,0,1,.42.66.31.31,0,0,1-.12.35A1.85,1.85,0,0,1,7,25.65a3.32,3.32,0,0,1-1.14-.12c-.18-.07-.3-.26-.37-.57Z"/><path class="cls-10" d="M3.4,18.45a2.56,2.56,0,0,1,.75-.15l1,0v.29a5.11,5.11,0,0,0-1.74,0l-.21,0s0-.08.17-.13Z"/><path class="cls-10" d="M2.35,18.25a1.39,1.39,0,0,1,.56-.85,5.29,5.29,0,0,1,1-.65l.11.36a4.35,4.35,0,0,0-1,.64,1,1,0,0,0-.39.59,3.85,3.85,0,0,0,.06,1.19c.08.34.18.53.31.57l1.31.33.52.12.5.05a1,1,0,0,0,.16.37,10.67,10.67,0,0,1-1.37-.28c-.55-.13-1-.25-1.24-.34S2.5,20,2.4,19.6a4.47,4.47,0,0,1,0-1.35Z"/><path class="cls-10" d="M4.17,21.71a3.49,3.49,0,0,1,.94-.64l.09.3a3.22,3.22,0,0,0-.86.57,1.16,1.16,0,0,0-.46.75,1.89,1.89,0,0,0,.08.56c.08.27.22.4.42.4l1.24,0,1.66,0a.66.66,0,0,0,.47-.24A1,1,0,0,0,8,22.92a.75.75,0,0,0,0-.36.55.55,0,0,0-.28-.36,3.32,3.32,0,0,0-1.33-.1A4.07,4.07,0,0,0,5,22.31c-.15.06-.24.08-.26.05s0-.1.22-.19a3.34,3.34,0,0,1,1.39-.34A2.9,2.9,0,0,1,7.83,22a.76.76,0,0,1,.38.39,1.06,1.06,0,0,1,0,.59,1.14,1.14,0,0,1-.31.64.93.93,0,0,1-.64.31q-.36,0-1.65,0l-1.23-.07a.72.72,0,0,1-.61-.3,1.35,1.35,0,0,1-.22-.82,1.47,1.47,0,0,1,.57-1Z"/><path class="cls-10" d="M5.29,17.35A1.16,1.16,0,0,1,6,16.83h.28s0,.09-.18.17a1.18,1.18,0,0,0-.58.46,2.15,2.15,0,0,0-.16,1,9.31,9.31,0,0,0,.21,2.32c.12.2.37.23.74.11A1.07,1.07,0,0,0,7.09,20a4.25,4.25,0,0,0,0-1.42A2.76,2.76,0,0,0,7,17.9c0-.09,0-.14,0-.15s.08,0,.16.11a1.75,1.75,0,0,1,.27.91,4.07,4.07,0,0,1,0,1.36,1.23,1.23,0,0,1-.94,1.05.92.92,0,0,1-1-.24,9.25,9.25,0,0,1-.28-2.44,2.09,2.09,0,0,1,.18-1.15Z"/><path class="cls-10" d="M27.35,24.36c-.21.47-.28.76-.21.89a3.89,3.89,0,0,0,.57.61c.57.54,1,1,1.23,1.27a2.52,2.52,0,0,1,.66,1.27c0,.12.11.24.31.34A4.38,4.38,0,0,0,32,29a4.24,4.24,0,0,0,2.05-.53,1.78,1.78,0,0,0,.51-.81l.4-1.19c.36-1,.72-1.64,1.1-1.8.08,0,.12-.16.1-.38a5.38,5.38,0,0,0-.35-1.41l-.07-.19c0-.07-.1-.15-.25-.23L35,22.21v.12c0,.13-.17.3-.51.53a6.3,6.3,0,0,1-1.4.66,8.48,8.48,0,0,1-4.57.3c-.28-.06-.46-.17-.52-.34L28,23.4a2.64,2.64,0,0,0-.61,1ZM33,10l.16-.34a6.29,6.29,0,0,1,3-.46,4.48,4.48,0,0,1,2.35.91,4.73,4.73,0,0,1,1.21,1.43,2.19,2.19,0,0,1,.36,1.31l-.06.58a4.3,4.3,0,0,1-.16.89l.16.12.06.11-.1.22c-.23-.16-.49-.33-.78-.5a7.61,7.61,0,0,0-1.55-.74,2,2,0,0,0-.81.8,2.68,2.68,0,0,0-.36,1.14,5,5,0,0,0,.61,1,4.87,4.87,0,0,0,.87,1,.93.93,0,0,1-.36.22,1.88,1.88,0,0,1-.47.83,4.26,4.26,0,0,1-.85.8,2.61,2.61,0,0,0-.8,1A5,5,0,0,0,35,21.94a1.79,1.79,0,0,1,.65.27,1,1,0,0,1,.36.4,4,4,0,0,1,.43,1.48c0,.46,0,.73-.16.8a1.5,1.5,0,0,0-.49.64,6.9,6.9,0,0,0-.45,1.07l-.43,1.28a2,2,0,0,1-.58.89,4.64,4.64,0,0,1-2.19.52A4.89,4.89,0,0,1,29.8,29c-.32-.15-.48-.34-.5-.57,0-.5-.6-1.29-1.73-2.38a3.7,3.7,0,0,1-.7-.77,2,2,0,0,1,.24-.95,3,3,0,0,1,.79-1.14,5,5,0,0,0-1.55-1.58l-.88-.21a7.83,7.83,0,0,1-1.06-.31,1.71,1.71,0,0,1-.52-.6l-.56-1.05.24-.22.55.91a1.74,1.74,0,0,0,.53.57,6.12,6.12,0,0,0,1.51.54c.5.11.75.19.73.26s-.06.05-.16.05l.6.52a4.09,4.09,0,0,1,.91,1.34l.39.14a6.85,6.85,0,0,0,3.8-.14,9.41,9.41,0,0,0,1.62-.57c.45-.22.67-.41.67-.56a4.73,4.73,0,0,1,.35-1.85A4.06,4.06,0,0,1,36.13,19a4.52,4.52,0,0,0,1.22-1.49,20.78,20.78,0,0,1-2.18.33L32.81,18c-.38,0-.85-.43-1.41-1.21a4.76,4.76,0,0,1-.82-1.42l.25-.06a4.09,4.09,0,0,0,.81,1.31c.52.67.91,1,1.18,1,.73,0,1.43,0,2.08-.06a13.26,13.26,0,0,0,2.41-.29A6.56,6.56,0,0,1,36.38,16a3.3,3.3,0,0,0,0,.39c0,.14,0,.21,0,.22s-.12-.13-.16-.42a2.74,2.74,0,0,1,.18-1.44,2.93,2.93,0,0,1,1.12-1.35,1.7,1.7,0,0,1,.36-.21,2.18,2.18,0,0,1,.42-.18.14.14,0,0,1,.14,0s0,.07,0,.1l-.55.31a11.85,11.85,0,0,1,1.68.75,3.75,3.75,0,0,0,.07-.72,5,5,0,0,1,0-.71,2,2,0,0,0-.28-1.13,3.7,3.7,0,0,0-1-1.24,4.29,4.29,0,0,0-2-.8A6.41,6.41,0,0,0,33,10Z"/><path class="cls-1" d="M44.78,22,46,25.2a2.38,2.38,0,0,1-2,.46,5.92,5.92,0,0,1-2.46-.81,6.15,6.15,0,0,1-1.8-1.63,2,2,0,0,1-.53-1.64,2.47,2.47,0,0,1-.37-.59,7.89,7.89,0,0,1-.33-1.33,10.47,10.47,0,0,0-.63-1.87,4.07,4.07,0,0,1-.42-1.34,2.31,2.31,0,0,1,.37-1.17c.24-.4.47-.63.68-.69L40,14.24l2.11,2.65L44.78,22Z"/><path class="cls-2" d="M44.78,22,46,25.2a1.76,1.76,0,0,1-1.06.45l-1.45-.07a7.1,7.1,0,0,0-1.77-3.32,8.91,8.91,0,0,0-3.1-2.19l-.08-.41a7.64,7.64,0,0,0-.35-1.16A2.89,2.89,0,0,0,39,16.68a4.16,4.16,0,0,0-.33-2.13L40,14.24l2.11,2.65L44.78,22Z"/><path class="cls-3" d="M43.06,23.66l.27.25a1.34,1.34,0,0,0,.38.22,3.28,3.28,0,0,0,1.78-.2l.18,1.42a2,2,0,0,1-1.83.38,6.34,6.34,0,0,1-2.32-.88,6.1,6.1,0,0,1-1.77-1.56,2.18,2.18,0,0,1-.59-1.59l1,.74A5,5,0,0,0,41.3,23l.76.34a5.19,5.19,0,0,0,1,.35Z"/><path class="cls-4" d="M42.06,23.31a5.19,5.19,0,0,0,1,.35l.27.25a1.34,1.34,0,0,0,.38.22,3.28,3.28,0,0,0,1.78-.2l.18,1.42a2,2,0,0,1-1.74.4,6.32,6.32,0,0,1-2.24-.8,3.72,3.72,0,0,0-.4-2h0l.76.34Z"/><path class="cls-7" d="M41.63,6.89a5.4,5.4,0,0,1,1.56,3A5.74,5.74,0,0,1,43,12.72l-2.69,1.52a4.64,4.64,0,0,1-1.61-.89,8.55,8.55,0,0,1-1.65-2,4.39,4.39,0,0,1-.62-3.07A3,3,0,0,1,37.79,6a2.38,2.38,0,0,1,1.53-.33,4.06,4.06,0,0,1,2.31,1.26Z"/><path class="cls-8" d="M42.2,7.53a5.68,5.68,0,0,1,1,2.69,5.71,5.71,0,0,1-.21,2.5l-1.39.79a3.49,3.49,0,0,0-.76-.37A4.15,4.15,0,0,1,40,12.7a1.43,1.43,0,0,1-.52-.84,9.43,9.43,0,0,1-.38-3c.07-1.17.46-1.89,1.18-2.16a1.16,1.16,0,0,1,1,.14l.9.7Z"/><path class="cls-7" d="M42,16.69l1.75-.35a18.11,18.11,0,0,0,1.41,2.84l1.57,2.76A2.67,2.67,0,0,0,48,23.06a3.63,3.63,0,0,1,.49.27.6.6,0,0,1,.25.41c.06.36-.24.82-.89,1.39a4,4,0,0,1-1.55.94q-.31.08-.51-.3a3,3,0,0,1-.24-1l-.08-.9a4.17,4.17,0,0,0-.17-.95,29,29,0,0,0-1.53-3.22c-.85-1.61-1.4-2.61-1.68-3Z"/><path class="cls-8" d="M43.79,16.34a11,11,0,0,0,.55,1.26,4.67,4.67,0,0,0-1.49.49,15.41,15.41,0,0,0-.81-1.4l1.75-.35Z"/><path class="cls-8" d="M45.35,23.27l-.1-.34a30.75,30.75,0,0,0-1.8-3.71,4.15,4.15,0,0,1,1.39-.67l1.07,1.85.86,1.54A2.67,2.67,0,0,0,48,23.06a3.63,3.63,0,0,1,.49.27.6.6,0,0,1,.25.41q.06.45-.66,1.17a5.51,5.51,0,0,1-1.37,1,8.5,8.5,0,0,0,.94-1.58c.15-.54-.11-.93-.8-1.16a2.73,2.73,0,0,0-1.45.1Z"/><path class="cls-1" d="M45.71,17.75a6.38,6.38,0,0,1-1,.34q-.21.06-.6-.84l-.34-.91a20.05,20.05,0,0,1-1.94.64,4.63,4.63,0,0,1-.58,1.95,3,3,0,0,1-1,1.26,1.3,1.3,0,0,1-1.16,0,1.68,1.68,0,0,1-.94-.77,2.7,2.7,0,0,1,.17-1.69c.33-1,.55-1.76.65-2.21a2,2,0,0,1,.73-1.28c.07-.05.43-.22,1.07-.53l1.92-.87a5.39,5.39,0,0,1,2-.58,1.76,1.76,0,0,1,1.21.79,2.87,2.87,0,0,1,.59,1.13,4.41,4.41,0,0,1-.27,1.65,18.83,18.83,0,0,1-.61,1.92Z"/><path class="cls-2" d="M46.59,14.18a4.41,4.41,0,0,1-.27,1.65,18.83,18.83,0,0,1-.61,1.92,6.38,6.38,0,0,1-1,.34q-.21.06-.6-.84l-.34-.91a20.05,20.05,0,0,1-1.94.64,4.63,4.63,0,0,1-.58,1.95,3,3,0,0,1-1,1.26,1.31,1.31,0,0,1-1.07,0,1.88,1.88,0,0,1-.94-.65A3.57,3.57,0,0,0,40.16,18l.67-1.1a10.47,10.47,0,0,1,.65-1,3.54,3.54,0,0,1,1-.76c.15-.08.57-.27,1.28-.58A4.23,4.23,0,0,0,45.93,13a3.3,3.3,0,0,1,.44.66,2,2,0,0,1,.22.55Z"/><path class="cls-1" d="M47.34,16.81a2.06,2.06,0,0,1,1.18.05,1.36,1.36,0,0,1,.81.9,1.66,1.66,0,0,1,.12,1,8.45,8.45,0,0,1-1.08,2.35,6.88,6.88,0,0,1-1.11,1.47,9.93,9.93,0,0,1-.84-1.43,13.4,13.4,0,0,1-1.5.61c-.6,1.13-1.31,1.7-2.11,1.7a1.66,1.66,0,0,1-.83-.22,1.23,1.23,0,0,1-.46-.39c-.13-.22,0-.86.47-1.93a5.14,5.14,0,0,1,1-1.8l1.43-.8c.88-.48,1.46-.8,1.75-1a3.8,3.8,0,0,1,1.18-.55Z"/><path class="cls-2" d="M48.69,17a1.48,1.48,0,0,1,.67.91,1.71,1.71,0,0,1,.09.92,8.76,8.76,0,0,1-1.06,2.34,7.52,7.52,0,0,1-1.09,1.44,7.94,7.94,0,0,1-.9-1.41l-.78.36a5.27,5.27,0,0,1-.7.27,3.72,3.72,0,0,1-1.16,1.4,1.72,1.72,0,0,1-1.1.3,6.7,6.7,0,0,0,1-1.46c.47-.88.74-1.38.82-1.51a3.06,3.06,0,0,1,1-.81c.28-.16.74-.4,1.36-.7,1.18-.62,1.81-1.31,1.91-2.05Z"/><path class="cls-1" d="M39.19,1c.34-.18.55-.21.64-.08s0,.3-.17.55l-3.37,4.2a44.69,44.69,0,0,0-3.52,4.78,3.35,3.35,0,0,0,.17,2.26,12.42,12.42,0,0,0,.77,1.76c.19.38.26.64.19.79s-.19.16-.42.16c-3,.15-4.9.28-5.6.39a8.89,8.89,0,0,0-2.77,2c-.81.71-1.55,1.41-2.24,2.1a1.06,1.06,0,0,1-.84.21,2.07,2.07,0,0,1-1-.32c-.37-.26-.62-1.5-.75-3.74,0-.41-.48-.83-1.37-1.26l-1.71-.69a1.21,1.21,0,0,1-.49-.31c-.05-.11,0-.24.22-.41l1.49-1.26c.77-.65,1.26-1,1.47-1.2a5.16,5.16,0,0,1,.2-1.22,1.93,1.93,0,0,1,.3-.76c-.07-.45-.48-1.88-1.2-4.32L18,.71c-.09-.3-.1-.51,0-.61s.2-.07.38.11L24.2,6.14A6.26,6.26,0,0,1,27.53,6a3.83,3.83,0,0,1,1.22.47Q38.29,1.5,39.19,1Z"/><path class="cls-2" d="M27.86,10.74a3.3,3.3,0,0,0,1.21-1.67l.21-.61c.06-.15.11-.18.17-.12a2,2,0,0,1,.25,1.22,2.32,2.32,0,0,1-.59,1.65,7,7,0,0,0-1,1.85c-.33.81-.66,1.24-1,1.3l-1.25.19a3,3,0,0,0-.94.28,9.12,9.12,0,0,0-1.43,1.77c-.72,1-1.11,1.5-1.16,1.45a13.76,13.76,0,0,1,.86-2.26,17.15,17.15,0,0,1,1.12-2.44,14.3,14.3,0,0,1,1.34-1.07c.75-.56,1.46-1.07,2.16-1.54Z"/><path class="cls-2" d="M21.81,3.65l2.44,2.52a15.72,15.72,0,0,0-1.54.69c-.09,0-.44-.52-1.06-1.7L19.59,1.35l2.22,2.3Z"/><path class="cls-2" d="M23.6,17.81l.53.15c.35.11.52.19.5.26a1.87,1.87,0,0,1-.43.51,4.1,4.1,0,0,1-.75.61,2.22,2.22,0,0,0,.2-1l0-.52Z"/><path class="cls-2" d="M37.84,2.77a6.87,6.87,0,0,1,1.51-1.28.55.55,0,0,1,.27-.09c.06,0,.07,0,0,.07l-3.37,4.2a44.69,44.69,0,0,0-3.52,4.78,3.22,3.22,0,0,0,.16,2.2,3.61,3.61,0,0,1-.64-1.2A4.39,4.39,0,0,1,32,9.77q.06-.7,2.37-3.33,1.22-1.37,3.45-3.67Z"/><path class="cls-11" d="M21.64,12.92l-.13,1a1.25,1.25,0,0,1-.26-.13,1.87,1.87,0,0,1-.52-.44,1.3,1.3,0,0,1-.18-.71V12l1.09.92Z"/><path class="cls-11" d="M26.56,14a3.7,3.7,0,0,1-1.18.18c-.63,0-1,0-1.07-.12a.61.61,0,0,1-.11-.31l0-.11.36-.45,2.67-1.12A3.12,3.12,0,0,1,27,13.28c-.15.43-.31.69-.47.76Z"/><path class="cls-12" d="M21.65,12.85l0,.32a10.74,10.74,0,0,0-1.07-.83l0-.41,1.09.92Z"/><path class="cls-12" d="M27.25,12.11l0,.17,0,.2-1.45.58c-.5.18-.8.3-.9.35l-.38.23-.27.26s0,0,0-.1v-.18l.36-.39,2.67-1.12Z"/><path class="cls-1" d="M24,17.46a4.22,4.22,0,0,1,1.2.12,4.55,4.55,0,0,1,1.27.5A9.76,9.76,0,0,1,28.17,20c1,1.31,1.74,2.17,2.14,2.58a6,6,0,0,0,3.36,1.78,5.4,5.4,0,0,0,2.77-.19c.1,0,.17,0,.19,0s0,.12-.09.19a4.87,4.87,0,0,1-.75.56l-.39.23.84-.09,1.13-.18c0,.16-.44.5-1.25,1l.25.26a1.78,1.78,0,0,0,.37.3,1.13,1.13,0,0,1-.45.31l-.3.11.39.65a4.27,4.27,0,0,0,.73.9,3.34,3.34,0,0,1-1-.08l-.69-.15.12.35a1.06,1.06,0,0,0,.4.5,2,2,0,0,1-.76.08,2.69,2.69,0,0,1-.91-.21c.13.28.3.59.49.91a3.39,3.39,0,0,1-1.05-.23A6.89,6.89,0,0,1,31.2,28a9.39,9.39,0,0,1-1.6-2.14c-.45-.78-1.07-2.07-1.88-3.86a9.55,9.55,0,0,0-2.24-3.3,3.17,3.17,0,0,0-1.79-.87l.29-.36Z"/><path class="cls-2" d="M36.38,27.52a4.27,4.27,0,0,0,.73.9,3.34,3.34,0,0,1-1-.08l-.69-.15.22.41a1.45,1.45,0,0,0,.49.57,1.85,1.85,0,0,1-.86,0,3.66,3.66,0,0,1-1-.27,4.49,4.49,0,0,0,.68,1,3.8,3.8,0,0,1-1.15-.27A7.05,7.05,0,0,1,31.2,28a8.81,8.81,0,0,1-1.14-1.39,7.85,7.85,0,0,0,2.48,1.19,3.44,3.44,0,0,0,1.54.27c.06,0,0-.22-.21-.58s-.21-.48-.1-.46l.62.11.82,0c.07,0,.06-.17,0-.46s-.11-.4-.05-.38a3.84,3.84,0,0,0,.88.18l.74,0a1.2,1.2,0,0,1-.45.3l-.3.11.39.65Z"/><path class="cls-9" d="M37.18,8.31a2.22,2.22,0,0,1,.16-.64.79.79,0,0,1,.34-.41.77.77,0,0,1,.91.13,1.06,1.06,0,0,1,.42.85c0,1.3-.25,1.95-.76,2-.35,0-.63-.21-.85-.66a2.36,2.36,0,0,1-.22-1.25Z"/><path class="cls-1" d="M24.42,6.76c.1.14,0,.32-.32.54a4,4,0,0,0-1.22,1.42,5.75,5.75,0,0,0-.47,1.37c0,.17-.12.25-.26.27a.63.63,0,0,1-.41-.15,1.23,1.23,0,0,1-.53-1.08,2.1,2.1,0,0,1,.84-1.38,4.5,4.5,0,0,1,1.46-.92c.5-.19.8-.21.91-.07Z"/><path class="cls-10" d="M40,14.1l-.34.37-1.13.24a1.42,1.42,0,0,0-.71.67,1.47,1.47,0,0,0-.25,1.12,6.88,6.88,0,0,0,.3,1,5.79,5.79,0,0,0,.32.75,1.35,1.35,0,0,0-.09.5l-.39-.79a5.09,5.09,0,0,1-.41-1.39,1.82,1.82,0,0,1,.22-1.11,1.85,1.85,0,0,1,.95-.92A10.68,10.68,0,0,1,40,14.1Z"/><path class="cls-10" d="M42.81,8.11a5.85,5.85,0,0,1,.65,2.43,6,6,0,0,1-.28,2.23l-.28-.09a5.64,5.64,0,0,0,.23-2.16,5.74,5.74,0,0,0-.67-2.29,4.82,4.82,0,0,0-2-2.1A2.81,2.81,0,0,0,37.9,6c-.67.3-1.07,1-1.2,2.23a5.25,5.25,0,0,0,.52,3.06,4.9,4.9,0,0,0,1.46,1.78,6.07,6.07,0,0,0,1.75.85l-.29.26a5.75,5.75,0,0,1-1.69-.94A5.88,5.88,0,0,1,37,11.42,5.41,5.41,0,0,1,36.36,8,3.08,3.08,0,0,1,37.7,5.71a2.76,2.76,0,0,1,2.71.07,5.07,5.07,0,0,1,2.4,2.33Z"/><path class="cls-10" d="M42.78,23.64l.16-.15a1.82,1.82,0,0,0,2.44.23l.08.33a1.81,1.81,0,0,1-1.31.28,2.18,2.18,0,0,1-1.37-.69Z"/><path class="cls-10" d="M43.93,16.29a13.59,13.59,0,0,0,.85,1.84l-.27.12a11.86,11.86,0,0,1-.86-1.87l.28-.09Z"/><path class="cls-10" d="M45.29,24.53A7.2,7.2,0,0,0,44.73,22l.08-.13.11-.11a5.91,5.91,0,0,1,.47,1.42,9.9,9.9,0,0,1,.16,1.42,2.53,2.53,0,0,0,.2.82,1.18,1.18,0,0,0,.3.47c.21.15.69-.07,1.44-.65s1.12-1.09,1-1.49a.45.45,0,0,0-.16-.3l-.4-.24a2.8,2.8,0,0,1-.65-.42,2.72,2.72,0,0,1-.66-.85l-.37-.74.23-.11a5.58,5.58,0,0,0,.7,1.27,2.42,2.42,0,0,0,.84.62,2.44,2.44,0,0,1,.47.28.71.71,0,0,1,.27.46c.08.47-.22,1-.9,1.56a3.15,3.15,0,0,1-1.64.85.69.69,0,0,1-.58-.17,2.51,2.51,0,0,1-.4-1.45Z"/><path class="cls-10" d="M43.35,18.74a1.4,1.4,0,0,0-.24.22c-.6-1.14-1-1.85-1.19-2.14h.34c.22.34.58,1,1.09,1.92Z"/><path class="cls-10" d="M46.09,12.88a3.44,3.44,0,0,1,.6,1.24,4.85,4.85,0,0,1-.21,1.69A13.18,13.18,0,0,1,46,17.45l-.43.25c.23-.61.43-1.26.62-1.95a4.5,4.5,0,0,0,.26-1.54,2.91,2.91,0,0,0-.56-1.07,1.61,1.61,0,0,0-1.11-.73A6,6,0,0,0,42.7,13c-.67.27-1.32.56-1.94.86a3.74,3.74,0,0,0-.87.58,3.7,3.7,0,0,0-.73,1.08,12.76,12.76,0,0,0-.58,1.95,4.58,4.58,0,0,0-.26,1.85,1.32,1.32,0,0,0,.43.46,1.87,1.87,0,0,0,.62.3,1.06,1.06,0,0,0,.85-.05,3.43,3.43,0,0,0,1-1.39,4.51,4.51,0,0,0,.54-1.7l0-.21a.07.07,0,0,1,.07-.06l.78-.09a5.06,5.06,0,0,0,.69-.23,5.14,5.14,0,0,0,1.26-.7c.18-.16.28-.22.28-.18s0,.13-.16.28a3,3,0,0,1-1.2.87A3.89,3.89,0,0,1,42,17a5.56,5.56,0,0,1-.68,2,3.44,3.44,0,0,1-1,1.31,1.37,1.37,0,0,1-1.09.08,2.08,2.08,0,0,1-.72-.38,1.38,1.38,0,0,1-.46-.59,4.3,4.3,0,0,1,.21-2.1c.17-.62.35-1.23.57-1.83a3.25,3.25,0,0,1,1.7-1.84c1-.48,1.67-.81,2.06-1A6.11,6.11,0,0,1,44.79,12a1.82,1.82,0,0,1,1.3.88Z"/><path class="cls-10" d="M48.56,16.64a1.51,1.51,0,0,1,.95,1,2.25,2.25,0,0,1,.07,1.28,8.85,8.85,0,0,1-1.07,2.36,6.48,6.48,0,0,1-1.06,1.39l-.2-.26a6.53,6.53,0,0,0,1-1.37,9,9,0,0,0,1-2.29,1.55,1.55,0,0,0-.11-1,1.29,1.29,0,0,0-.73-.72,1.86,1.86,0,0,0-.87-.09,4.7,4.7,0,0,0-1.32.52l-1.76.93c-.93.49-1.44.78-1.52.85A6.9,6.9,0,0,0,42.11,21c-.41,1-.56,1.64-.46,1.81a1.2,1.2,0,0,0,.42.36,1.54,1.54,0,0,0,.78.18A2,2,0,0,0,44,22.67c.43-.4.65-.7.66-.91s.12-.16.33-.25.38-.15.76-.29A4,4,0,0,0,47.56,20c.19-.23.28-.32.29-.25a.6.6,0,0,1-.11.32,3,3,0,0,1-1.12,1.07,6.21,6.21,0,0,1-1.67.72,4,4,0,0,1-1.13,1.39,1.71,1.71,0,0,1-1,.37,1.58,1.58,0,0,1-.88-.22,1.32,1.32,0,0,1-.5-.46c-.18-.28-.05-1,.39-2.12a5.16,5.16,0,0,1,1-1.89l1.57-.85,1.75-.95a2.72,2.72,0,0,1,2.4-.5Z"/><path class="cls-10" d="M21.26,13.65l.28.15v.13l-.34-.16a1.78,1.78,0,0,1-.59-.47,1.61,1.61,0,0,1-.16-.84V11.8l.2.2v.53a1.29,1.29,0,0,0,.11.69,1.71,1.71,0,0,0,.51.43Z"/><path class="cls-10" d="M27.14,12.12l.32-.13a3.36,3.36,0,0,1-.26,1.24c-.18.48-.37.76-.57.85a3.21,3.21,0,0,1-1.34.2c-.6,0-.93,0-1-.16a.85.85,0,0,1-.09-.27v-.11l.1-.05s0,0,0,.09a.56.56,0,0,0,.1.26c.06.08.38.11,1,.08A4,4,0,0,0,26.52,14c.14-.06.28-.3.42-.71a2.89,2.89,0,0,0,.2-1.12Z"/><path class="cls-10" d="M26.64,12.3A7.3,7.3,0,0,0,28,11.58c.16-.12.26-.17.28-.15s0,.11-.17.23a6.63,6.63,0,0,1-1.89,1.06l-1.27.48a1.38,1.38,0,0,0-.55.44,2.86,2.86,0,0,0-.33.65c-.91,2.11-1.43,3.28-1.55,3.5s-.15.23-.17.23,0-.1.07-.27l1.45-3.55a4.59,4.59,0,0,1,.44-.88,1.16,1.16,0,0,1,.43-.31,20,20,0,0,0,1.92-.71Z"/><path class="cls-10" d="M21.69,12.84l.12.12,0,.16c-.08.35-.3,1.83-.66,4.46,0,.21-.06.3-.08.27s0-.13,0-.28l.25-2.17.3-2.36-.78-.69a3.75,3.75,0,0,1-.56-.61l-.14-.22.14.11a13.68,13.68,0,0,0,1.41,1.21Z"/><path class="cls-10" d="M21.06,19c0-.11,0-.16,0-.15l.09.14.1.36c0,.09,0,.13-.05.14s-.08,0-.1-.09a1.18,1.18,0,0,1-.08-.4Z"/><path class="cls-10" d="M22,19.48a1,1,0,0,1,.11-.38c.1-.19.14-.18.13,0l-.09.41c0,.07-.06.1-.1.09s-.06-.06-.05-.14Z"/><path class="cls-10" d="M21.3,12.57a.33.33,0,0,1,.11.27l-.05.28c0,.09-.06.14-.09.13s-.06-.08-.08-.24a3.1,3.1,0,0,1,0-.41c0-.1.06-.11.13,0Z"/><path class="cls-10" d="M25.07,13.1s.05-.09.16-.12.16,0,.16,0a2,2,0,0,1-.05.53c0,.11-.07.17-.11.17s-.07,0-.1-.15a1.36,1.36,0,0,1-.06-.45Z"/><path class="cls-10" d="M23.73,17.89c-.13,0-.2-.06-.19-.1s0,0,.13,0l.6.14a3.57,3.57,0,0,1,1,.49,8.21,8.21,0,0,1,2.58,3.53c.8,1.78,1.42,3.06,1.86,3.83a9.52,9.52,0,0,0,1.59,2.12,7.67,7.67,0,0,0,2,1.43,5.57,5.57,0,0,0,1.41.51,2.84,2.84,0,0,1-.66-.85c-.09-.21,0-.27.2-.2L35,29a5.47,5.47,0,0,0,.89.16,2.68,2.68,0,0,1-.7-.91c0-.09,0-.14,0-.17h.2a9.39,9.39,0,0,0,1.37.24,5.87,5.87,0,0,1-.56-.73,4.24,4.24,0,0,1-.35-.6c0-.12.06-.21.34-.3s.35-.13.31-.18l-.38-.37c-.15-.17-.18-.28-.09-.34a7.46,7.46,0,0,0,.91-.65l-.92.12-.62.05c-.15,0-.24,0-.25-.06s.05-.12.17-.22l.41-.25a3.75,3.75,0,0,0,.62-.43,5.11,5.11,0,0,1-3.7-.09,12.19,12.19,0,0,1-4.35-3.85,10.6,10.6,0,0,0-2.16-2.29A4.85,4.85,0,0,0,24,17.47q-.22,0-.21-.06s.05-.05.15-.05a4,4,0,0,1,2.35.6,9.81,9.81,0,0,1,2.22,2.23,12.11,12.11,0,0,0,4.12,3.72,4.82,4.82,0,0,0,3.55.19c.67-.21.76-.06.26.44a3,3,0,0,1-.45.39l1-.11c.22,0,.35,0,.39,0s0,.15-.13.28l-.36.36-.57.42.44.41c.14.12.21.22.2.28s-.11.13-.3.19l-.57.15a7.5,7.5,0,0,0,.54.74l.54.61.23.21-.3,0-.84-.07-.78-.17a4.15,4.15,0,0,0,.45.59c.14.16.2.26.2.31s-.09.06-.25.07a4.8,4.8,0,0,1-1.49-.2,6.41,6.41,0,0,0,.57.63c.13.13.18.22.16.26l-.49,0a6.6,6.6,0,0,1-3.6-1.89,9.49,9.49,0,0,1-1.61-2.18c-.41-.74-1-2-1.87-3.89-1.09-2.45-2.38-3.83-3.85-4.15Z"/><path class="cls-10" d="M39,.94c.48-.21.78-.25.91-.09s0,.46-.32.92L36.15,6.1q-3.12,4-3.3,4.4a2.93,2.93,0,0,0,.1,1.8,9.38,9.38,0,0,0,.83,2.1c.24.41.3.71.18.89s-.37.26-.78.26l-2.89.12-2.37.21a8.5,8.5,0,0,0-2.43,1.79.75.75,0,0,0-.38-.1,8.64,8.64,0,0,1,2.74-1.9l2.89-.25,2.44-.11c.3,0,.49,0,.55-.14s0-.32-.15-.63A11,11,0,0,1,32.89,13a5.73,5.73,0,0,1-.39-1.87,1.86,1.86,0,0,1,.14-.77,51.55,51.55,0,0,1,3.5-4.71l3.34-4.22c.12-.18.17-.3.14-.35l-.36,0q-.32.11-5,2.56c-3.08,1.62-4.87,2.59-5.37,2.89a1.44,1.44,0,0,1,.47.53q0,.18-.51-.27A4,4,0,0,0,26.57,6a6.22,6.22,0,0,0-2.5.3c-.21.07-.31.08-.31,0s.08-.09.27-.18L18.27.32c-.11-.1-.17-.09-.17,0a1.16,1.16,0,0,0,.06.32l1.05,3.42c.66,2.15,1.07,3.59,1.24,4.3a3.09,3.09,0,0,1,.63-.62,6.31,6.31,0,0,1,.79-.49c.24-.13.35-.18.35-.14s-.1.11-.3.26A4.73,4.73,0,0,0,20.5,8.93a4,4,0,0,0-.46,2l0,.37s-.05,0-.11-.16c-.28.21-.8.62-1.53,1.23L16.9,13.53c-.08.07-.11.14-.07.22a.56.56,0,0,0,.37.21,6.73,6.73,0,0,1,2.3,1c.61.41.92.78.94,1.12.14,2.24.36,3.46.66,3.67A1.65,1.65,0,0,0,22,20a.93.93,0,0,0,.73-.2q.81-.8,1.77-1.65l.15,0a.27.27,0,0,1,.16.08l-1.08,1-.93.82a1.34,1.34,0,0,1-.86.19A1.71,1.71,0,0,1,21,20c-.4-.26-.67-1.55-.8-3.88,0-.65-1.11-1.32-3.21-2-.3-.11-.45-.23-.48-.34s.09-.31.35-.54L18.34,12l1.51-1.23a3.66,3.66,0,0,1,0-1,3.2,3.2,0,0,1,.33-1L19,4.56,18,1C17.87.45,17.85.13,18,0s.3,0,.61.27C19.11.76,21,2.67,24.29,6a4.91,4.91,0,0,1,2.19-.33,4.4,4.4,0,0,1,2.2.62L33.5,3.75Q37.89,1.43,39,.94Z"/><path class="cls-10" d="M41.58,22.86l0,.22a3.57,3.57,0,0,1-2.23-1.18,2.71,2.71,0,0,0,.7,1.44,5.87,5.87,0,0,0,1.59,1.38,5.5,5.5,0,0,0,2.46.83,1.91,1.91,0,0,0,1.55-.34l.08.28a2.19,2.19,0,0,1-1.61.37A5.56,5.56,0,0,1,41.46,25c-1.6-1-2.4-2.09-2.43-3.4a4.33,4.33,0,0,1-.46-.89,3.47,3.47,0,0,1-.22-1l.34.21a3.36,3.36,0,0,0,1.12,2,3.31,3.31,0,0,0,1.77.92Z"/><path class="cls-1" d="M20.67,17.31l0,.52A2.71,2.71,0,0,0,20,19a11.77,11.77,0,0,0-.2,1.93c0,1.06-.07,1.73-.11,2a10.15,10.15,0,0,1-1.1,3.59,7,7,0,0,1-1.41,1.94,4.6,4.6,0,0,1-1.48,1l-.65.2.14-.2a2.18,2.18,0,0,0,.19-.8,3.69,3.69,0,0,1-2.56.23,8.09,8.09,0,0,1,1-.58l.49-.24-1.45-.05,1-.82-.49,0a3.05,3.05,0,0,0-.85.16l.2-.77a1.27,1.27,0,0,1,.33-.64l-1,.07-.67.11a1.68,1.68,0,0,1,.68-.87L12.6,25l-.7-.34a3.16,3.16,0,0,1,1.58-.24l1.44-.06a4.12,4.12,0,0,0,1.64-.58A4.56,4.56,0,0,0,18,21.79a11.61,11.61,0,0,0,.8-2.19,3.25,3.25,0,0,1,1.83-2.29Z"/><path class="cls-2" d="M19.19,22.76c.38-1.29.59-1.81.62-1.57a4.88,4.88,0,0,1,0,.94l-.1.86a10.15,10.15,0,0,1-1.1,3.59,7,7,0,0,1-1.41,1.94,4.6,4.6,0,0,1-1.48,1l-.65.2.14-.2a2.18,2.18,0,0,0,.19-.8,3.69,3.69,0,0,1-2.56.23,8.09,8.09,0,0,1,1-.58l.49-.24-1.45-.05,1-.82-.49,0a3.05,3.05,0,0,0-.85.16l.2-.77a1.27,1.27,0,0,1,.33-.64l-1,.07-.67.11c0-.09.27-.23.73-.43a3.17,3.17,0,0,1,1.05-.3.77.77,0,0,1,.52.12c.09.11.09.32,0,.63-.05.16.09.17.44,0l.76-.34c.09,0,.06.19-.08.66s-.15.7,0,.67l.78-.26.6,0,.13.59c0,.27.09.41.14.41s.39-.29.91-.88a5.51,5.51,0,0,0,1.07-1.58l.81-2.72Z"/><path class="cls-10" d="M20.75,17.32c.05,0,0,.11-.28.23A3.05,3.05,0,0,0,19,19.64a12.68,12.68,0,0,1-.69,2,5.13,5.13,0,0,1-1.64,2.25,4.37,4.37,0,0,1-2,.64,6.31,6.31,0,0,1-1.21,0,3.08,3.08,0,0,0-1.19.11,1.78,1.78,0,0,1,.43.16c.12.08.17.14.16.18l-.2.12a2.45,2.45,0,0,0-.57.34,2.42,2.42,0,0,0-.53.62l.82-.14.71-.05.18,0s0,.06,0,.13a3.3,3.3,0,0,0-.31.57,3.14,3.14,0,0,0-.17.6l1.12-.11.37,0c.06,0,0,.06-.09.13l-.45.32-.47.36L14.3,28c.16,0,.19.06.09.16a4.17,4.17,0,0,1-1.21.74l1.14-.05a4,4,0,0,0,1-.27l.3-.13v.18l-.15.46-.19.44a5.16,5.16,0,0,0,1.81-1.09,7.33,7.33,0,0,0,1.46-2.09,10.46,10.46,0,0,0,1-3.36c0-.42.08-1,.11-1.73a17.43,17.43,0,0,1,.13-1.87A2.49,2.49,0,0,1,20.36,18c.26-.25.4-.35.42-.32s-.07.17-.3.44A2.3,2.3,0,0,0,20,19.43c0,.22-.05.83-.09,1.81v.91l-.05.89a11,11,0,0,1-1.24,4,6.82,6.82,0,0,1-1.2,1.63,5,5,0,0,1-1.69,1q-.64.24-.75.18s0-.17.11-.43l.16-.47a5.75,5.75,0,0,1-1.53.29,2.43,2.43,0,0,1-1-.09c-.12-.06-.18-.1-.19-.14s.05-.07.17-.12a4.09,4.09,0,0,0,1.11-.57H13l-.56,0s.08-.13.35-.32l.65-.46a3.94,3.94,0,0,0-.84.14h-.17s0-.08,0-.19a1.69,1.69,0,0,1,.16-.66,3.28,3.28,0,0,1,.32-.6,5.06,5.06,0,0,0-1.28.17l-.26,0c-.06,0-.06-.13,0-.29a1.75,1.75,0,0,1,.46-.64,1.89,1.89,0,0,1,.7-.45l-.66-.23c-.11,0-.17-.06-.17-.09a.56.56,0,0,1,.17-.14,1.62,1.62,0,0,1,.61-.19l1-.06,1.4-.05a4.08,4.08,0,0,0,1.6-.56,5,5,0,0,0,1.57-2.15,12.47,12.47,0,0,0,.69-1.9,3.12,3.12,0,0,1,1.63-2.14c.2-.1.32-.14.37-.11Z"/></g></g></svg>