<svg xmlns="http://www.w3.org/2000/svg" viewBox="0 0 42.47 43.86"><defs><style>.cls-1{fill:#8b92c7;}.cls-1,.cls-2,.cls-3,.cls-4,.cls-5,.cls-6,.cls-7,.cls-8{fill-rule:evenodd;}.cls-2{fill:#ffe100;}.cls-3{fill:#ba0031;}.cls-4{fill:#797fad;}.cls-5{fill:#dcc200;}.cls-6{fill:#990024;}.cls-7{fill:#db8f86;}.cls-8{fill:#0d131a;}</style></defs><title>Asset 119@</title><g id="Layer_2" data-name="Layer 2"><g id="Layer_1-2" data-name="Layer 1"><path class="cls-1" d="M4.83,30a35.86,35.86,0,0,1-4.55-.92,3,3,0,0,1,.19-.72,4.53,4.53,0,0,1,.39-.9l3.55-3.08a58,58,0,0,0,4.28-3.95,43.8,43.8,0,0,1,4.24,2.93,1,1,0,0,1,.1.31c-.74,1.81-1.67,4.18-2.82,7.13L4.83,30Z"/><path class="cls-1" d="M12.53,2.16q.47.17,3.94,2.33c2.38,1.48,4.11,2.6,5.17,3.35-1.07,1.36-2,2.4-2.65,3.12q-2.49.48-7.72,1.7l-.69-8.91A5.38,5.38,0,0,1,10.72,3,4.34,4.34,0,0,1,11,2.11h.79l.77.05Z"/><path class="cls-1" d="M40,11.23a2.76,2.76,0,0,1-.14,1.57,31.11,31.11,0,0,1-1.47,3.13L36.75,19c-1.35-1.36-2.34-2.32-3-2.86l.09-.11a1.81,1.81,0,0,0-.23-.47,2.56,2.56,0,0,0-.4-.51l-.15,0c-.24-1.15-.56-2.51-.94-4.08l3.24-.16a28,28,0,0,1,3.13,0,4.17,4.17,0,0,1,.87.15,2.63,2.63,0,0,1,.6.24Z"/><path class="cls-1" d="M19.89,33.58A8.2,8.2,0,0,1,22.6,33a40.39,40.39,0,0,1,3.31,3.47,68.16,68.16,0,0,1-7.27,6.5l-.42.24a4.38,4.38,0,0,1-1.16.28,3.35,3.35,0,0,1-.59-.57,3.61,3.61,0,0,1-.5-.63c0-.08-.13-1.15-.32-3.19a22.94,22.94,0,0,0-.55-3.77c2.42-.87,4-1.44,4.79-1.7Z"/><path class="cls-1" d="M30.64,5.43c.55,2,1,3.82,1.49,5.6s.84,3.34,1.2,4.69c.65.55,1.33,1.18,2.07,1.92L36.75,19l3.12,3.23,1.74,1.85a1.92,1.92,0,0,1,.36.81,1.79,1.79,0,0,1,.07.85,5.75,5.75,0,0,1-1.9.51L36.48,27a19,19,0,0,0-2.59.61l-.23,8.65a38,38,0,0,1-.27,4.28,4.29,4.29,0,0,1-.33.85,1.71,1.71,0,0,1-.42.63,6.07,6.07,0,0,1-1.12-.23,4,4,0,0,1-.91-.33,21.82,21.82,0,0,1-1.77-1.81l-2.93-3.19A40.39,40.39,0,0,0,22.6,33a8.2,8.2,0,0,0-2.71.63c-.78.26-2.37.83-4.79,1.7C13.26,36,11.9,36.42,11,36.7a8.28,8.28,0,0,1-2.43.55,10.59,10.59,0,0,1-.1-1.08,4.06,4.06,0,0,1,0-.9l1.73-4.48c1.15-2.95,2.08-5.32,2.82-7.13a1,1,0,0,0-.1-.31,43.8,43.8,0,0,0-4.24-2.93c-.91-.6-2-1.27-3.14-2L4,17.41a4.33,4.33,0,0,1-.59-.63A5.51,5.51,0,0,1,2.84,16l.7-.79a6.13,6.13,0,0,1,.86-.8,18.27,18.27,0,0,1,2.24-.63l4.63-1.13Q16.51,11.45,19,11c.69-.72,1.58-1.76,2.65-3.12Q23,6.15,24.79,3.71l1.89-2.56a3,3,0,0,1,.89-.63,2.32,2.32,0,0,1,.82-.34c.09,0,.3.26.62.73A4.8,4.8,0,0,1,29.65,2q.32,1,1,3.39Z"/><path class="cls-2" d="M26.07,12a19.54,19.54,0,0,0,1.55-3.81,2.87,2.87,0,0,1,.89.19c.39.14.59.23.61.3a6.33,6.33,0,0,1,0,2,24.09,24.09,0,0,1-.35,2.51A17.43,17.43,0,0,0,30,14.64L31.26,16c.35-.14,1.29-.6,2.83-1.37a3,3,0,0,1,.46.56c.19.28.27.45.25.52a9.11,9.11,0,0,1-1.11.88c-.83.6-1.3.95-1.4,1a12.14,12.14,0,0,0,.12,1.23L32.58,20a10,10,0,0,1,2,1,8.16,8.16,0,0,1,1.3,1l0,.81a5.29,5.29,0,0,1-.12.76l-1.85-.37L32.44,23a9.81,9.81,0,0,1-.23,1.17l-.33,1.27A11.88,11.88,0,0,1,33,28.94l-.36.41-.82.77-.9-1.25a5.78,5.78,0,0,0-1-1.15c-.23.07-.92.33-2.06.76l-2.46.88a12.78,12.78,0,0,1-.89,1.94l-.75,1.25L22,31.89l.17-1.37a17,17,0,0,0,.15-2.14l-2.09-2c-.72-.72-1.27-1.23-1.63-1.54a10,10,0,0,0-1.6.43l-1.61.51-.29-.6a3.72,3.72,0,0,1-.31-.81,7,7,0,0,1,1.36-1.23l1.48-1c0-.08,0-.52-.09-1.34a13.35,13.35,0,0,1-.08-1.95,12.16,12.16,0,0,0-1.33-.74l-1.76-.9a3.16,3.16,0,0,1,.24-.74l.29-.69a11.72,11.72,0,0,1,1.54,0l2,.13c.21-.2.84-.7,1.88-1.5-.06-.29-.25-.92-.58-1.88a14.69,14.69,0,0,0-.6-1.61,2.17,2.17,0,0,1,.62-.45,1.49,1.49,0,0,1,.56-.23,4.6,4.6,0,0,1,1,.84,19,19,0,0,1,1.57,1.74,9.32,9.32,0,0,0,1.82-.33A6.29,6.29,0,0,0,26.07,12Z"/><path class="cls-1" d="M33.89,27.57A19,19,0,0,1,36.48,27q1.26,3.59,1.89,5.84c.68,2.44.89,3.94.63,4.52a22.26,22.26,0,0,1-3-.54l-2.3-.56.23-8.65Z"/><path class="cls-3" d="M26,14.11a17.44,17.44,0,0,1,1.75.61,11.86,11.86,0,0,1,2.26,1,15.74,15.74,0,0,1,.73,1.42,15.09,15.09,0,0,1,.71,1.57A16.69,16.69,0,0,1,31.55,21a11.5,11.5,0,0,1,0,2.08l-1.77,1.7A15.05,15.05,0,0,1,28,26.43c-.39-.09-1.59-.49-3.59-1.2A25.75,25.75,0,0,1,21.27,24c-.05-.09-.23-.77-.53-2s-.47-2-.47-2.16a14.62,14.62,0,0,1,.8-2.06c.49-1.18.77-1.81.82-1.89a14.75,14.75,0,0,1,2-.94A13.07,13.07,0,0,1,26,14.11Z"/><path class="cls-4" d="M36.48,27l.64,1.71.69,1.84A3.62,3.62,0,0,0,36.68,30c-.64-.21-1.08-.22-1.33,0a6.11,6.11,0,0,0-.9,2.15,25,25,0,0,0-.76,3.17l.2-7.71A19,19,0,0,1,36.48,27Z"/><path class="cls-4" d="M4.83,30a35.86,35.86,0,0,1-4.55-.92l0-.15a9,9,0,0,1,1.25-1.15,43,43,0,0,1,4.73-2.11c2.71-1.1,4.89-1.91,6.54-2.41l.11.17.1.24c-.74,1.81-1.67,4.18-2.82,7.13L4.83,30Z"/><path class="cls-4" d="M21.06,36.17a.54.54,0,0,0-.44-.79,3.5,3.5,0,0,0-1.62.2,7.81,7.81,0,0,0-2,.91,4.6,4.6,0,0,0-1.47,1.32l-.23-1.35-.23-1.18c2.42-.87,4-1.44,4.79-1.7A8.2,8.2,0,0,1,22.6,33a40.39,40.39,0,0,1,3.31,3.47,68.16,68.16,0,0,1-7.27,6.5l-.42.24a4.38,4.38,0,0,1-1.16.28l-.14-.08-.11-.08c.17,0,.74-.73,1.7-2.29a39.08,39.08,0,0,0,2.55-4.82Z"/><path class="cls-4" d="M29.81,27.75l.42.39.48.5a18.27,18.27,0,0,0-2.95.95,17.64,17.64,0,0,0-3.08,1.64l.36-.95.34-1,4.43-1.57Z"/><path class="cls-4" d="M33.46,23.19a7.18,7.18,0,0,0-.72,1.72,8.63,8.63,0,0,0-.4,2l-.51-1.44.36-1.32A11.31,11.31,0,0,0,32.44,23l1,.22Z"/><path class="cls-4" d="M16,25.55l1.45-.42a9.14,9.14,0,0,1,1.2-.33A16.31,16.31,0,0,1,20,26.08l2.31,2.3a10.64,10.64,0,0,1-.1,1.24q-.13,1.06-.15,1.32a12.61,12.61,0,0,0-2.62-3.1A10.26,10.26,0,0,0,16,25.55Z"/><path class="cls-4" d="M34.74,10.88a11.47,11.47,0,0,0,.1,2.2,4,4,0,0,0,.44,1.5,9.42,9.42,0,0,0,3.12,1.28c-.8,1.5-1.35,2.56-1.65,3.16-1.21-1.23-2.15-2.12-2.81-2.67l.87-.72a1.53,1.53,0,0,0-.26-.5,2.21,2.21,0,0,0-.43-.55s-.36.17-1,.53c-.24-1.15-.56-2.51-.94-4.08l2.61-.15Z"/><path class="cls-4" d="M13.06,12.2l-1.88.41q-.45-7.24-.7-8.46a14.31,14.31,0,0,0,2.35,4.76,21.18,21.18,0,0,0,2.57,2.81l-2.34.48Z"/><path class="cls-4" d="M7.41,21.6l1.1-1.15,4.2,2.84Q8.65,24.67,7.66,25a1.64,1.64,0,0,0,.89-2,2.19,2.19,0,0,0-.41-1,1,1,0,0,0-.73-.47Z"/><path class="cls-5" d="M25.25,29.49l.32-1.41.27-1.34c.15,0,.57.16,1.25.37l1.08.29.85-.73.75-.69c.1,0,.35.32.75.92a11.09,11.09,0,0,1,.77,1.25c.12.26.39.22.81-.14s.57-.66.5-1a5.85,5.85,0,0,1,.38,1.8l-.44.6a2.26,2.26,0,0,1-.73.61c-.19-.26-.51-.67-1-1.22a7,7,0,0,0-1-1.1c-.73.23-1.71.59-2.93,1.08l-1.63.66Z"/><path class="cls-5" d="M35.92,22.1l-.05.69a1.66,1.66,0,0,1-.19.74l-1.53-.26A12,12,0,0,0,32.49,23q-.12.59-.66,2.52l-.35-.71-.19-.42.53-.63a2.16,2.16,0,0,0,.23-.4l0-.69,0-.72a12.9,12.9,0,0,1,2.34.79c.26.11.43-.11.53-.63a1,1,0,0,0-.18-1,5.33,5.33,0,0,1,1.12,1Z"/><path class="cls-5" d="M17.36,24.35a13.09,13.09,0,0,1,1.33-.72,3.6,3.6,0,0,1,1-.31,5,5,0,0,1-.57.82c-.38.49-.59.71-.64.68l-1.52.4-1.63.47-.61-1.38.49-.45a5.92,5.92,0,0,1,.74-.6c-.08.06-.09.17,0,.34a1.06,1.06,0,0,0,.27.48.92.92,0,0,0,1.21.27Z"/><path class="cls-5" d="M23,29.76a.44.44,0,0,0,.17.49,1.41,1.41,0,0,0,.65.31c.66.16,1.07,0,1.21-.38a12.27,12.27,0,0,1-1.27,2.35L22,31.89c.09-.66.16-1.38.2-2.16l.05-1a2.8,2.8,0,0,1,.67-1.25c.37-.46.62-.69.75-.71a11.79,11.79,0,0,1-.26,1.46c-.12.56-.26,1.07-.4,1.53Z"/><path class="cls-5" d="M17.22,17.51l2.31.88-2.09.35-3.1-1.58.51-1.46,1.07,0-.1.2a1.08,1.08,0,0,0,0,.5c.08.52.56.89,1.44,1.14Z"/><path class="cls-4" d="M24.54,33.22,27,35.31q3.53,2.94,5,3.09c.23,0,.53-.32.92-1a5.31,5.31,0,0,0,.71-2.13c0,3.31-.1,5.08-.14,5.3a3.3,3.3,0,0,1-.38.88c-.24.44-.43.67-.58.7a2.63,2.63,0,0,1-1-.18,3.38,3.38,0,0,1-.92-.36l-3.87-4.23a34.74,34.74,0,0,0-4.28-4.31q-.45-.16-7.13,2.13T8.51,37.47a3.12,3.12,0,0,1-.12-.95,5.81,5.81,0,0,1,0-1.2l2-5.23.38,1.57q.43,1.59.78,1.71c.53.2,2.38,0,5.57-.58s5.18-.82,5.78-.67a6.17,6.17,0,0,1,1.69,1.1Z"/><path class="cls-4" d="M2.67,16a4.62,4.62,0,0,1,2-.41,57.22,57.22,0,0,1,10,.51l-.35,1,3.1,1.58L17.66,22l-2.9,2.39-11-7L2.67,16Z"/><path class="cls-4" d="M35.69,23.62,36,22.54l2.41.89a11.83,11.83,0,0,1,3.79,2.31l-9.35,2a16.17,16.17,0,0,0-.88-2.39l.57-2.4,3.2.63Z"/><path class="cls-6" d="M24.26,21.51l0,0,0,0h-.06l0,0,.69.24,3.31-3.39.27,4.55L23,24.83a11.49,11.49,0,0,1-1.76-.72L20.48,21l3.78.56ZM26,14.09q.32.09,1.74.66a11.6,11.6,0,0,1,2.23,1.07l.4,2-.76-1.53-5.29,5.16-1.15-2.34a25.42,25.42,0,0,0-2.8.77l.67-2,.88-2a19.86,19.86,0,0,1,2-.93A17.27,17.27,0,0,1,26,14.09Z"/><polygon class="cls-6" points="31.44 18.92 31.49 19.69 30.16 20.6 30.37 18.05 31.44 18.92 31.44 18.92"/><path class="cls-6" d="M30,21.49a5.14,5.14,0,0,1,.73.91c.23.35.41.64.55.89L30,24.6l-.67-2.4.74-.71Z"/><polygon class="cls-6" points="28.52 18.18 28.96 18.08 29.43 19.31 28.68 19.65 28.52 18.18 28.52 18.18"/><path class="cls-7" d="M27,14.47a9.59,9.59,0,0,1,1.77.74l-1.64.21-.85-.34-2,1-1.18,3.05L20.19,20l.31-1L21.88,16l4-1.81,1.08.33Z"/><polygon class="cls-7" points="29.63 16.43 26.76 19.07 27.43 17.9 24.09 20.93 23.45 19.79 28 15.73 29.63 16.43 29.63 16.43"/><path class="cls-8" d="M29,1a3.68,3.68,0,0,0-.59-.73,3.29,3.29,0,0,0-.78.35,3.07,3.07,0,0,0-.81.56l-.72,1L22.8,6.56q-2.27,3-3.6,4.36a.51.51,0,0,1-.33.1c-.17,0-.23,0-.2,0a58.76,58.76,0,0,0,4.59-5.67l3.11-4.25a3.72,3.72,0,0,1,1-.68A3,3,0,0,1,28.46,0c.13,0,.39.31.79.84A5.54,5.54,0,0,1,30,2q.53,1.61,1.47,5.15,1.21,4.56,1.83,7.75s0,.09-.15.14-.17.08-.18,0Q32.3,11.93,31,7.29q-1-3.58-1.5-5.21A5.1,5.1,0,0,0,29,1Z"/><path class="cls-8" d="M38.51,10.51a4.73,4.73,0,0,1,1.06.26,2.22,2.22,0,0,1,.69.3,1.2,1.2,0,0,1,.1.64,3,3,0,0,1-.2,1.12,70.68,70.68,0,0,1-3.22,6.32s-.11,0-.26-.24q2.55-4.89,3-6.15a2.9,2.9,0,0,0,.19-1l0-.42a2.23,2.23,0,0,0-.58-.21L38.49,11l-6.23.19-.13-.41,3.3-.18c1.46-.07,2.49-.08,3.08-.05Z"/><path class="cls-8" d="M12.88,2q.43.17,3.86,2.37c2.21,1.44,3.87,2.54,5,3.33l-.17.26c-1.08-.75-2.79-1.87-5.15-3.33S12.83,2.41,12.5,2.28l-.69,0h-.76a8,8,0,0,0-.23.83,4.8,4.8,0,0,0-.12.69l.69,8.89-.3,0-.92-8.91a4.94,4.94,0,0,1,.26-.89,6.57,6.57,0,0,1,.36-1l.1-.07L12,1.87l.85.09Z"/><path class="cls-8" d="M19.17,10.71a.54.54,0,0,1,0,.32c-2,.39-4.88,1-8.7,1.94s-5.79,1.41-6,1.55a5.5,5.5,0,0,0-.73.69L3,16a8.63,8.63,0,0,0,.55.73,4.41,4.41,0,0,0,.53.56L8.3,20A53.38,53.38,0,0,1,13,23.26a.55.55,0,0,1,.1.23A.64.64,0,0,1,13,24c-.11.19-.16.25-.16.15a1.44,1.44,0,0,0-.08-.53.59.59,0,0,0-.21-.24Q11,22.22,8.36,20.58l-4.6-2.87A3.54,3.54,0,0,1,3.11,17a6.32,6.32,0,0,1-.6-.87.15.15,0,0,1,0-.13,11.61,11.61,0,0,1,.84-.89,6.88,6.88,0,0,1,1-.92,62.71,62.71,0,0,1,6.38-1.62c3.91-.9,6.73-1.51,8.44-1.82Z"/><path class="cls-8" d="M33.78,27.1c0-.6.08-.9.2-.91s.16.3.15.91L34,34.55q-.15,5.66-.28,6.21a3.46,3.46,0,0,1-.45.89,1.8,1.8,0,0,1-.57.66,3.68,3.68,0,0,1-1.09-.18,3.84,3.84,0,0,1-1.08-.36c-.14-.1-1.49-1.55-4-4.33s-3.81-4.14-3.89-4.18q-.59-.19-6.69,2L11.12,37a11.33,11.33,0,0,1-2.69.74c-.11,0-.2-.37-.27-1.07a4.56,4.56,0,0,1,0-1.43q.12-.37,2-5.26T13,23.09c.26-.64.46-.92.58-.86s0,.43-.24,1.11q-1.18,2.86-4.69,12s0,.28,0,.78,0,.86.07,1a11.87,11.87,0,0,0,2.8-.71c.89-.29,2.32-.8,4.3-1.51,4.05-1.47,6.34-2.12,6.85-1.95a33.91,33.91,0,0,1,4,4.11q3.63,4,4,4.25a3.38,3.38,0,0,0,.83.29,6.34,6.34,0,0,0,1.09.24,2.33,2.33,0,0,0,.37-.59,4.38,4.38,0,0,0,.29-.79q.2-.78.52-13.37Z"/><path class="cls-8" d="M33.77,16.43s0,0,.14-.11.17-.08.19-.06q1.23,1,4.38,4.14l3.35,3.41a3,3,0,0,1,.47,1.1c.16.55.21.88.14,1s-.39.26-.93.39l-3,.56-2.92.5a4.26,4.26,0,0,0-1.74.58s0-.06,0-.24,0-.27.06-.29A15,15,0,0,1,35.74,27l2.64-.49L40.65,26a8,8,0,0,0,1.28-.33,2.26,2.26,0,0,0-.07-.68,1.87,1.87,0,0,0-.34-.85c-.63-.69-1.75-1.87-3.36-3.52Q35,17.44,33.77,16.43Z"/><path class="cls-8" d="M8.47,20.25s.08,0,.19.09.14.14.11.17q-.86,1-6.22,5.62L1,27.52a3.8,3.8,0,0,0-.34.76,6.12,6.12,0,0,0-.21.7,93.72,93.72,0,0,0,9.83,1.69L10,31l-5.23-.76a31.07,31.07,0,0,1-4.73-.9A.14.14,0,0,1,0,29.26a4.62,4.62,0,0,1,.19-.92,4.35,4.35,0,0,1,.4-1.08L1,26.93l1.3-1.11,3.58-3a17.7,17.7,0,0,0,2.63-2.56Z"/><path class="cls-8" d="M15.2,37.5a8.46,8.46,0,0,0-.36-2.13l.38-.12a14.66,14.66,0,0,1,.37,2l.3,3.05c.09,1.07.16,1.69.19,1.87l.47.56.54.54a3.14,3.14,0,0,0,1.49-.5c.34-.23,1.43-1.13,3.25-2.71a43.14,43.14,0,0,0,4-3.77s.06,0,.13.1.11.14.08.16a46.72,46.72,0,0,1-4,3.88c-1.82,1.65-2.88,2.57-3.18,2.78a3.37,3.37,0,0,1-1.05.44,1.87,1.87,0,0,1-.86.15,4.15,4.15,0,0,1-.73-.71,4.44,4.44,0,0,1-.64-.77c0-.09,0-.33-.07-.74l-.09-1.25L15.2,37.5Z"/><path class="cls-8" d="M36.36,27s0-.06.16-.08l.21,0c.9,2.58,1.53,4.47,1.89,5.7A13.76,13.76,0,0,1,39.41,37c0,.34-.09.55-.2.63l-.53,0C38,37.54,37,37.3,35.62,37l-2-.52v-.34l2.2.52a28.27,28.27,0,0,0,3.06.58,1.74,1.74,0,0,0,.07-.56q0-2.19-2.62-9.62Z"/><path class="cls-8" d="M19,10.84a3.2,3.2,0,0,1,.65-.56c.36-.26.6-.38.7-.36A4.5,4.5,0,0,1,21.63,11a20.19,20.19,0,0,1,1.77,2.19c.16.23.22.38.17.43s-.15,0-.32-.27a24.27,24.27,0,0,0-1.57-1.9,5.21,5.21,0,0,0-1.36-1.2,2.38,2.38,0,0,0-.49.26,3.19,3.19,0,0,0-.56.42,14.86,14.86,0,0,1,.62,1.58,15.68,15.68,0,0,1,.55,1.73l-.06.13L18.51,15.9l-.23,0-.22-.06,2.12-1.54c-.07-.3-.27-.9-.58-1.78A14.92,14.92,0,0,0,19,11l0-.07,0-.06Z"/><path class="cls-8" d="M19.17,11.07c-.05,0-.05-.09,0-.18s.06-.13.08-.12a5.55,5.55,0,0,1,1.5,1.78,8.44,8.44,0,0,1,.78,1.51,1.73,1.73,0,0,1,.14.52c0,.1-.05,0-.17-.2a15.08,15.08,0,0,0-.93-1.61,7,7,0,0,0-1.39-1.7Z"/><path class="cls-8" d="M20,16.1c.28.08.45.17.5.27s-.05.11-.34,0A17,17,0,0,0,17,15.83a11.12,11.12,0,0,0-2,0l-.25.56a3.74,3.74,0,0,0-.21.62l2.91,1.55q.16.07.15.21l.11,1.44A17.24,17.24,0,0,1,17.77,22c0,.05-.12.12-.36.2,0-.16,0-.76,0-1.8l-.06-1.57-3.09-1.57-.06-.08a1.22,1.22,0,0,1,.06-.29l.21-.58.22-.54a.25.25,0,0,1,.14-.16l.37-.06a10.22,10.22,0,0,1,2.05,0A17.07,17.07,0,0,1,20,16.1Z"/><path class="cls-8" d="M19.06,18.06c.34.15.52.26.55.33s-.12.06-.44-.05a16,16,0,0,0-4.65-1.13c-.06,0-.1,0-.14-.12s0-.13,0-.13a12.47,12.47,0,0,1,2.32.35,15.77,15.77,0,0,1,2.37.75Z"/><path class="cls-8" d="M25.61,27.32c.1-.33.17-.44.22-.34a1.79,1.79,0,0,1,0,.74,14.41,14.41,0,0,1-1,3.46l-.85,1.47a.13.13,0,0,1-.16.05L22,32.05c-.08,0-.12-.08-.12-.14a19.85,19.85,0,0,0,.25-3.49l-2-2a12.77,12.77,0,0,0-1.64-1.5,9.25,9.25,0,0,0-1.53.42l-1.55.5a.14.14,0,0,1-.17-.09,6.1,6.1,0,0,1-.62-1.39.1.1,0,0,1,0-.1,8.28,8.28,0,0,1,1.84-1.57,14.73,14.73,0,0,1,2-1.22,1.46,1.46,0,0,1,.61-.2c.12,0,.06.08-.17.21a21,21,0,0,0-2,1.2,7.84,7.84,0,0,0-2,1.7,7,7,0,0,0,.48,1.2l1.38-.47c.76-.26,1.27-.42,1.54-.49l.25,0a.51.51,0,0,1,.14.09c.51.44,1.1,1,1.76,1.67L22.14,28l.24.27a1.16,1.16,0,0,1,0,.33c0,.67-.09,1.73-.25,3.17l1.47.54a4.39,4.39,0,0,0,1-1.69,15.68,15.68,0,0,0,.95-3.34Z"/><path class="cls-8" d="M17.76,24.3a9.17,9.17,0,0,0-2.07,1.35c0,.07-.14.08-.26.05s-.16-.07-.14-.09a8.58,8.58,0,0,1,1.58-1.12A23.42,23.42,0,0,1,19,23.42a2,2,0,0,1,.63-.17c.16,0,.13.05-.12.15s-1,.46-1.75.9Z"/><path class="cls-8" d="M23.59,26.74q.09-.48.18-.33a1.33,1.33,0,0,1,0,.69A24.24,24.24,0,0,1,23,30.19a5.44,5.44,0,0,1-.9,1.8s0,0-.06-.15a.36.36,0,0,1,0-.25,8.05,8.05,0,0,0,.83-2.09,26.66,26.66,0,0,0,.7-2.76Z"/><path class="cls-8" d="M30.81,29a6.91,6.91,0,0,0-1-1.13l-2,.75-2.46.92s0-.05,0-.17,0-.2.07-.21l4.43-1.58.11,0a5.43,5.43,0,0,1,1,1.11l1,1.26a6.67,6.67,0,0,0,.95-1.09,8.09,8.09,0,0,0-.46-2,10.09,10.09,0,0,0-.89-2q-.14-.3,0-.3c.08,0,.17.09.28.29a14,14,0,0,1,.9,1.9,13.16,13.16,0,0,1,.47,1.66.78.78,0,0,1,0,.43l-.21.28-.92,1-.1,0c-.05,0-.08,0-.1-.05L30.81,29Z"/><path class="cls-8" d="M30.06,26.41c-.17-.24-.22-.36-.14-.35s.23.14.45.39a7.24,7.24,0,0,1,1.25,2.1A5.57,5.57,0,0,1,32,30.09l-.14,0c-.1,0-.15-.09-.16-.15a4.12,4.12,0,0,0-.36-1.39,9.75,9.75,0,0,0-1.24-2.1Z"/><path class="cls-8" d="M32.06,19.9s0-.07-.05-.17,0-.15,0-.14a14.8,14.8,0,0,1,2.46,1.21A5,5,0,0,1,36,22l0,.07a4.12,4.12,0,0,1,0,.8l-.13.75a.14.14,0,0,1-.16.09L34,23.39l-1.49-.29-.25,1.34A11.75,11.75,0,0,1,32,25.72s-.05,0-.11-.13a.57.57,0,0,1-.08-.27L32.1,24,32.32,23a.12.12,0,0,1,.13-.11l1.35.22,1.84.37.12-.71,0-.59A5.15,5.15,0,0,0,34.32,21a10.19,10.19,0,0,0-2.26-1.05Z"/><path class="cls-8" d="M32.19,17.64s0-.08.13-.12h.12c0,.23,0,.64.1,1.23a8.57,8.57,0,0,0,.22,1.3l-.16,0c-.12-.05-.18-.11-.19-.17-.14-1.27-.22-2-.22-2.2Z"/><path class="cls-8" d="M34,14.47a.19.19,0,0,1,.21,0l.4.47a2.21,2.21,0,0,1,.31.58v.12l-.07.1a9.1,9.1,0,0,1-1.22,1l-1.31.93c-.19.12-.32.17-.37.14s0-.11.17-.25.49-.37,1.35-1a8.11,8.11,0,0,0,1.22-1l-.22-.43a2.49,2.49,0,0,0-.35-.48c-.07,0-.49.23-1.24.6L31.36,16l-.4,0c-.06-.06,0-.14.26-.25L34,14.47Z"/><path class="cls-8" d="M28.56,8.21c.46.12.72.24.76.33a6.61,6.61,0,0,1,0,1.89,18.38,18.38,0,0,1-.42,2.84,2,2,0,0,1-.24.62c-.1.14-.12.08-.06-.16A26.16,26.16,0,0,0,29,10.79a6.93,6.93,0,0,0,0-2.06,2.33,2.33,0,0,0-.54-.22,3,3,0,0,0-.75-.18l-.77,2a7.55,7.55,0,0,1-.83,1.8,20.8,20.8,0,0,1-3.14.73s-.07,0-.12-.11-.06-.13,0-.13l1.79-.36A6.16,6.16,0,0,0,26,11.9a23.28,23.28,0,0,0,1.51-3.76.12.12,0,0,1,.12-.09,3.09,3.09,0,0,1,1,.16Z"/><path class="cls-8" d="M27.51,8.52a.46.46,0,0,1,.13-.25c.08-.1.12-.14.12-.09a9.47,9.47,0,0,1-.18,2.07,21.57,21.57,0,0,1-.6,2.54,1.17,1.17,0,0,1-.27.56c-.09.07-.09,0,0-.29a23.65,23.65,0,0,0,.57-2.45,12.63,12.63,0,0,0,.25-2.09Z"/><path class="cls-8" d="M28.85,13.32a.44.44,0,0,1,0-.35l.07-.19a12.59,12.59,0,0,0,1.31,1.83,10.13,10.13,0,0,0,1.09,1.21s0,.06,0,.13l-.12.07a29.72,29.72,0,0,1-2.28-2.7Z"/><path class="cls-8" d="M35.89,22.72s0-.07,0-.19,0-.16,0-.16a20.23,20.23,0,0,1,4.68,2,3.52,3.52,0,0,1,.85.65c.14.17,0,.14-.36-.11a15.63,15.63,0,0,0-2.34-1.2,24.23,24.23,0,0,0-2.83-1Z"/><path class="cls-8" d="M33.87,27.54s0-.05.15-.06.18,0,.19,0c.35.6.94,1.77,1.77,3.49s1.34,2.85,1.58,3.45a2.21,2.21,0,0,1,.18.65c0,.12-.08,0-.21-.26l-1.82-3.7c-1-1.92-1.57-3.11-1.84-3.57Z"/><path class="cls-8" d="M38.44,36.48c-.11-.31-.11-.44,0-.37a1.21,1.21,0,0,1,.31.56l.17.68h-.15l-.16,0a2.44,2.44,0,0,0-.16-.84Z"/><path class="cls-8" d="M29.65,27.79l.19,0,.18,0,.68,3.77c.25,1.38.47,2.52.66,3.41l1,4.66a6.4,6.4,0,0,1,.26,2.5s-.06,0-.16,0-.17,0-.16-.06a7.59,7.59,0,0,0-.28-2.47l-1-4.59c-.59-2.75-1.06-5.16-1.44-7.23Z"/><path class="cls-8" d="M22.39,33.07h.18c.11,0,.16.07.15.11-.3.76-.89,2-1.78,3.69-.82,1.55-1.57,2.9-2.24,4A4.15,4.15,0,0,1,17.87,42c-.23.18-.21.06.08-.38.55-.84,1.33-2.24,2.37-4.22a44.42,44.42,0,0,0,2.07-4.33Z"/><path class="cls-8" d="M24.83,34.3l-.7-.83A10.59,10.59,0,0,0,23,32.34s.13,0,.32.08l.28,0,.59.68.47.63a2.81,2.81,0,0,1,.44.72c.06.17,0,.11-.26-.19Z"/><path class="cls-8" d="M9.32,35.77c.19-.21.3-.28.32-.2s0,.17-.14.33l-.38.55c-.13.18-.21.26-.25.24s0-.13.08-.33a2.41,2.41,0,0,1,.37-.59Z"/><path class="cls-8" d="M19.23,25.42s.09,0,.18.13.13.18.1.2c-1.07,1-2.59,2.48-4.58,4.43-2.61,2.57-4.26,4.27-4.93,5.08-.2.25-.3.31-.31.18a1.1,1.1,0,0,1,.32-.57c.74-.87,2.17-2.38,4.27-4.52q2.76-2.8,5-4.93Z"/><path class="cls-8" d="M.84,28.13c.2-.21.34-.31.43-.29s0,.13-.17.34l-.29.34-.46.56s0,0,0-.14a.41.41,0,0,1,.08-.3l.46-.51Z"/><path class="cls-8" d="M2.32,27.53c-.42.23-.6.28-.53.14a2,2,0,0,1,.72-.51c1.05-.55,2.79-1.3,5.19-2.25,2-.81,3.69-1.42,5-1.85l.2.16c.1.12.14.18.11.19q-1.73.49-5.22,1.82a50,50,0,0,0-5.42,2.3Z"/><path class="cls-8" d="M3.76,15.83c-.45.08-.61.06-.46-.05a1.86,1.86,0,0,1,.87-.24,32.32,32.32,0,0,1,5.12,0l5.46.45s0,.08,0,.21-.08.2-.12.19q-3.86-.48-6.89-.62a22.54,22.54,0,0,0-4,.09Z"/><path class="cls-8" d="M12.5,3c.21.17.32.29.32.35s-.11,0-.31-.09l-.6-.32-.58-.28c-.16-.06-.23-.13-.19-.19s.13-.07.29,0A3.08,3.08,0,0,1,12.5,3Z"/><path class="cls-8" d="M13.23,3.83c-.24-.19-.28-.27-.14-.25a1.37,1.37,0,0,1,.62.36A38.21,38.21,0,0,1,16.88,7c1.27,1.33,2.19,2.35,2.77,3.05,0,0,0,.09-.1.19s-.14.13-.17.11c-.7-.86-1.71-2-3-3.4a35.37,35.37,0,0,0-3.14-3.15Z"/><path class="cls-8" d="M39.57,11.53c.14-.11.2-.12.19,0l-.19.32a3.37,3.37,0,0,1-.56.45.59.59,0,0,1-.34.14c-.08,0,0-.1.18-.26l.72-.62Z"/><path class="cls-8" d="M37.6,13c.3-.2.43-.24.38-.12a1.31,1.31,0,0,1-.51.48l-2.86,1.92s-.07,0-.13-.16-.06-.2,0-.22l1.17-.67,2-1.23Z"/><path class="cls-8" d="M32.11,22s0-.05,0-.14,0-.12.08-.11a9,9,0,0,1,2.26.83,4.41,4.41,0,0,1,1.32.88s0,.05-.08.07a.21.21,0,0,1-.21-.05,5.51,5.51,0,0,0-1.61-.92A12.69,12.69,0,0,0,32.11,22Z"/><path class="cls-8" d="M27.7,14.88c-.88-.33-1.46-.54-1.76-.62s-.81.3-2,.81A18.75,18.75,0,0,0,22,16l-.84,1.93a14.7,14.7,0,0,0-.75,1.94,21.08,21.08,0,0,0,.45,2.07c.29,1.21.47,1.89.53,2s1.2.51,3.09,1.18,3,1.07,3.49,1.18q.27-.17,2.73-2.55l.74-.71a5.3,5.3,0,0,0,0-.78l0-2.08a11.51,11.51,0,0,0-.1-1.39c-.06-.17-.29-.69-.7-1.53s-.65-1.31-.72-1.41a10.43,10.43,0,0,0-2.17-1ZM25.94,14c.21.05.81.26,1.8.64A11.74,11.74,0,0,1,30,15.73l0,0a10.18,10.18,0,0,1,.76,1.45c.42.88.66,1.4.71,1.58a18.7,18.7,0,0,1,.14,2.3l0,1.2,0,.81-.07.16-.76.76-2,2c-.47.46-.73.69-.77.67-.43-.1-1.68-.51-3.75-1.26a20.54,20.54,0,0,1-3.15-1.24c-.06-.11-.24-.83-.56-2.17s-.47-2.08-.47-2.22a13.61,13.61,0,0,1,.81-2.09l.82-1.86a12.3,12.3,0,0,1,2.06-1A12.86,12.86,0,0,1,25.94,14Z"/><path class="cls-8" d="M19.46,20.57a1.23,1.23,0,0,1,0-.59c.05-.09.1,0,.17.27l.82,3.28c.1.41.12.61,0,.61s-.17-.21-.29-.64a28.26,28.26,0,0,1-.72-2.93Z"/><path class="cls-8" d="M25,13.7a1.37,1.37,0,0,1,.62-.14c.11,0,.06.07-.15.16-.62.25-1.36.58-2.23,1a12.92,12.92,0,0,0-1.86,1c-.05,0-.29.58-.73,1.59l-.87,1.92c-.13.26-.21.34-.22.25a2.09,2.09,0,0,1,.19-.65c.86-2.13,1.33-3.25,1.42-3.33a10.18,10.18,0,0,1,1.79-.88c.82-.36,1.5-.65,2-.85Z"/><path class="cls-8" d="M26.13,13.72c-.23-.06-.29-.12-.19-.16l.49,0c.56.17,1.12.36,1.69.58a12.47,12.47,0,0,1,1.47.66,1,1,0,0,1,.41.34c0,.11-.05.1-.27,0a14.49,14.49,0,0,0-1.85-.8c-.8-.3-1.39-.5-1.75-.61Z"/><path class="cls-8" d="M32.1,18.66a14.37,14.37,0,0,1,.1,1.62,16.27,16.27,0,0,1,0,2.33c0,.26-.08.36-.12.29a1.18,1.18,0,0,1-.05-.48l0-1.79-.12-1.89a12.43,12.43,0,0,0-.6-1.37L30.6,16c-.15-.25-.17-.36-.07-.33s.21.16.36.42a26.51,26.51,0,0,1,1.21,2.55Z"/><path class="cls-8" d="M27.45,27.09c.32.12.45.2.39.26s-.25,0-.59-.08q-4.53-1.5-5.62-1.94a1.74,1.74,0,0,1-.69-.38l.32,0,6.19,2.16Z"/><path class="cls-8" d="M30.22,25.63,28.79,27c-.18.15-.29.19-.34.13s0-.16.17-.31l1.56-1.51L31.55,24c.16-.19.24-.24.26-.16s-.06.21-.21.4-.6.66-1.38,1.42Z"/><path class="cls-8" d="M26,15.09l.29,0c.11,0,.11.1,0,.15-1.08.49-1.75.83-2,1-.64,1.58-1,2.53-1.12,2.85l.38.78.44.94a.91.91,0,0,1,.12.48c0,.07-.1,0-.23-.26L23,19.13v-.08c.05-.18.21-.64.48-1.37l.62-1.59.05-.09c.26-.16.9-.46,1.91-.91Z"/><path class="cls-8" d="M23.05,19s.06,0,.09.14,0,.16,0,.17L21,19.9l-.25,0a.82.82,0,0,1,.34-.21l2-.7Z"/><path class="cls-8" d="M21.81,16s0-.05.13-.11l.18-.1,2.21.19s0,0,0,.12l-.11.09-1.75-.14-.63,0Z"/><path class="cls-8" d="M25.94,14.6c0-.1,0-.15,0-.17s.1,0,.17.12l.2.47a14.57,14.57,0,0,1,1.42.49c.6.23,1,.4,1.28.53a.69.69,0,0,1,.36.27c0,.09,0,.08-.24,0a12,12,0,0,0-1.41-.54c-.73-.25-1.26-.42-1.59-.5l-.21-.65Z"/><path class="cls-8" d="M29.91,15.71s0,0,.08.08.05.14,0,.17l-.3.47a18.25,18.25,0,0,1,.78,1.7l-.1.07h-.13l-.37-.85a8.16,8.16,0,0,0-.42-.87.12.12,0,0,1,0-.13l.42-.65Z"/><path class="cls-8" d="M26,22l1.58.61a1.32,1.32,0,0,1,.46.29l-.3,0-3.39-1.2-1,.95-1.09.9a.72.72,0,0,1-.4.19c-.1,0-.06-.07.1-.2l1.24-1.1a8,8,0,0,0,1-1,.12.12,0,0,1,.14-.05L26,22Z"/><path class="cls-8" d="M29.58,21.87c.16-.15.27-.2.32-.18s0,.11-.14.26l-.48.5L28.7,23l-.14,1-.17,1.21c0,.35-.09.5-.15.47s-.07-.22,0-.57l.2-2.21a.1.1,0,0,1,0-.09c.22-.16.6-.47,1.14-.95Z"/><path class="cls-8" d="M31.39,18.82s0,.08,0,.16,0,.12,0,.1l-.48-.38-.45-.31c0,.31-.05.84-.13,1.6l-.16,1.47.48.65.83,1.11-.2.13L30,21.65a.41.41,0,0,1-.09-.3c.2-1.63.29-2.69.29-3.18,0-.15.1-.19.22-.12s.38.3.94.77Z"/><path class="cls-8" d="M28.87,1.73a19.08,19.08,0,0,1,0,2.6c-.07,1.4-.17,2.65-.3,3.73l0,.3-.3-.12q.21-1.7.36-3.84a23.11,23.11,0,0,0,.07-2.64A5.6,5.6,0,0,0,28.36.65c-.07-.17-.05-.22.05-.17a.52.52,0,0,1,.24.35,4.89,4.89,0,0,1,.22.9Z"/></g></g></svg>